<svg width="600" height="500" viewBox="0 0 600 500" fill="none" xmlns="http://www.w3.org/2000/svg">
  <!-- Background elements -->
  <circle cx="300" cy="250" r="200" fill="#F0F7FF" />
  <circle cx="480" cy="120" r="40" fill="#E1EFFF" />
  <circle cx="120" cy="380" r="60" fill="#E1EFFF" />
  
  <!-- Lock -->
  <rect x="250" y="180" width="100" height="140" rx="10" fill="#BBDEFB" stroke="#2196F3" stroke-width="3" />
  <rect x="270" y="150" width="60" height="60" rx="30" fill="#BBDEFB" stroke="#2196F3" stroke-width="3" />
  <circle cx="300" cy="230" r="15" fill="#2196F3" />
  <rect x="295" y="230" width="10" height="40" rx="2" fill="#2196F3" />
  
  <!-- Key -->
  <circle cx="150" cy="230" r="20" fill="#FFC107" stroke="#FF9800" stroke-width="2" />
  <rect x="150" y="230" width="80" height="10" rx="5" fill="#FFC107" stroke="#FF9800" stroke-width="2" />
  <rect x="210" y="220" width="10" height="30" rx="2" fill="#FFC107" stroke="#FF9800" stroke-width="2" />
  <rect x="225" y="220" width="10" height="30" rx="2" fill="#FFC107" stroke="#FF9800" stroke-width="2" />
  
  <!-- Person -->
  <circle cx="450" cy="200" r="30" fill="#E1BEE7" stroke="#9C27B0" stroke-width="2" />
  <path d="M430 250 L450 230 L470 250 L470 280 L430 280 Z" fill="#E1BEE7" stroke="#9C27B0" stroke-width="2" />
  
  <!-- Devices -->
  <rect x="400" y="320" width="80" height="60" rx="5" fill="white" stroke="#9E9E9E" stroke-width="2" />
  <rect x="410" y="330" width="60" height="30" rx="2" fill="#E0E0E0" />
  <rect x="425" y="370" width="30" height="5" rx="2" fill="#9E9E9E" />
  
  <rect x="350" y="350" width="40" height="70" rx="5" fill="white" stroke="#9E9E9E" stroke-width="2" />
  <rect x="355" y="360" width="30" height="40" rx="2" fill="#E0E0E0" />
  <circle cx="370" cy="410" r="5" fill="#9E9E9E" />
  
  <!-- Connection lines -->
  <path d="M300 300 L300 350 L350 350" stroke="#2196F3" stroke-width="2" stroke-dasharray="5 5" />
  <path d="M300 350 L400 350" stroke="#2196F3" stroke-width="2" stroke-dasharray="5 5" />
</svg> 