<svg width="180" height="60" viewBox="0 0 180 60" fill="none" xmlns="http://www.w3.org/2000/svg">
  <!-- Background shape -->
  <rect width="180" height="60" rx="8" fill="white"/>
  
  <!-- "S" letter -->
  <path d="M30 15 C40 15 45 20 45 25 C45 30 40 32 35 33 C30 34 25 35 25 40 C25 45 30 45 35 45 C40 45 45 40 45 40" 
        stroke="#2196F3" stroke-width="5" stroke-linecap="round" stroke-linejoin="round"/>
  
  <!-- Book icon -->
  <rect x="55" y="15" width="30" height="30" rx="2" fill="#BBDEFB"/>
  <rect x="60" y="20" width="20" height="3" rx="1" fill="#2196F3"/>
  <rect x="60" y="26" width="20" height="3" rx="1" fill="#2196F3"/>
  <rect x="60" y="32" width="20" height="3" rx="1" fill="#2196F3"/>
  <rect x="60" y="38" width="15" height="3" rx="1" fill="#2196F3"/>
  
  <!-- Text -->
  <text x="95" y="30" font-family="Arial, sans-serif" font-size="16" font-weight="bold" fill="#212121">Skutopia</text>
  <text x="95" y="45" font-family="Arial, sans-serif" font-size="12" fill="#757575">Academy</text>
</svg> 