<?xml version="1.0" encoding="UTF-8"?>
<svg version="1.1" xmlns="http://www.w3.org/2000/svg" width="512" height="512">
<path d="M0 0 C15.89353401 12.58332903 25.925337 28.75904782 30.421875 48.421875 C30.5969458 49.10701172 30.7720166 49.79214844 30.95239258 50.49804688 C31.63344779 54.73950148 31.60499842 58.93688815 31.625 63.2265625 C31.63070007 64.18273468 31.63640015 65.13890686 31.64227295 66.12405396 C31.65170772 68.14974875 31.65825087 70.17545879 31.66210938 72.20117188 C31.67173214 75.25158834 31.70273539 78.30130637 31.734375 81.3515625 C31.90654748 112.68711343 21.85274729 137.35905364 0.171875 160.046875 C-5.58327027 165.70488701 -11.82642212 170.04496877 -18.578125 174.421875 C-19.65449219 175.16566406 -20.73085938 175.90945312 -21.83984375 176.67578125 C-24.578125 178.421875 -24.578125 178.421875 -26.578125 178.421875 C-25.47076294 193.45055708 -25.47076294 193.45055708 -17.765625 205.8984375 C-9.71909504 215.18068456 -5.42590375 228.66593154 -2.578125 240.421875 C-2.40390581 241.12838605 -2.22968662 241.8348971 -2.05018806 242.56281757 C-0.09866154 251.71104344 -0.31160308 260.80869493 -0.35107422 270.11206055 C-0.35163921 271.98558038 -0.35132006 273.85910066 -0.35018921 275.73262024 C-0.34961812 280.78969815 -0.36133281 285.84668015 -0.37533712 290.90373588 C-0.38788528 296.19947552 -0.38901819 301.49521764 -0.39138794 306.79096985 C-0.39759074 316.80626015 -0.41398525 326.82150651 -0.43408692 336.83677751 C-0.46067554 350.37957746 -0.47142826 363.92238952 -0.48309135 377.46520901 C-0.50186675 398.78413055 -0.54172044 420.10295939 -0.578125 441.421875 C-45.458125 441.421875 -90.338125 441.421875 -136.578125 441.421875 C-136.578125 420.301875 -136.578125 399.181875 -136.578125 377.421875 C-149.778125 377.421875 -162.978125 377.421875 -176.578125 377.421875 C-176.578125 398.541875 -176.578125 419.661875 -176.578125 441.421875 C-206.3114705 441.48807736 -236.04477523 441.54344444 -265.77817456 441.57507099 C-269.29270895 441.57882287 -272.80724319 441.58270586 -276.32177734 441.58666992 C-277.02142409 441.58745685 -277.72107084 441.58824378 -278.441919 441.58905456 C-289.75349118 441.60208958 -301.06501738 441.62573287 -312.37656233 441.65333339 C-323.99314586 441.68144069 -335.60970266 441.69783811 -347.2263186 441.70414048 C-353.7470324 441.70804621 -360.26764207 441.71720496 -366.78832245 441.73906517 C-372.93108479 441.75949077 -379.07370053 441.76569648 -385.21649361 441.76119804 C-387.46581635 441.76202052 -389.7151442 441.76794976 -391.96443748 441.77949142 C-413.19106969 441.88302938 -430.66900449 438.74096547 -446.56665039 423.70117188 C-457.13943353 413.11204749 -464.7269428 397.88684392 -464.854936 382.79643899 C-464.8502902 381.58402718 -464.8502902 381.58402718 -464.84555054 380.34712219 C-464.85008165 379.46741184 -464.85461276 378.58770149 -464.85928118 377.68133324 C-464.87187981 374.75144973 -464.87030774 371.8217532 -464.86865234 368.8918457 C-464.87464048 366.78370425 -464.88144669 364.67556499 -464.88900757 362.56742859 C-464.90664714 356.85232391 -464.91136214 351.13727916 -464.91263914 345.4221499 C-464.91406263 341.84734175 -464.91833601 338.27254875 -464.92363358 334.69774437 C-464.94212816 322.21425793 -464.95030503 309.73081414 -464.94873047 297.24731445 C-464.94752972 285.63096712 -464.9686206 274.01480579 -465.0002178 262.39850551 C-465.02641607 252.40925518 -465.03709625 242.42006546 -465.03581965 232.43078107 C-465.035311 226.47184181 -465.0409405 220.51306786 -465.06217575 214.55416298 C-465.0816175 208.94555177 -465.08164194 203.33726253 -465.06714249 197.7286396 C-465.06506055 195.67807797 -465.06971827 193.62749587 -465.0818634 191.57696915 C-465.14338241 180.46461167 -464.85598132 170.84151956 -460.578125 160.421875 C-460.30844091 159.75520467 -460.03875683 159.08853434 -459.7609005 158.40166187 C-452.96512435 143.00376891 -440.65306077 132.02677336 -425.375 125.48828125 C-418.06488773 122.7010457 -411.41869847 120.97806895 -403.578125 121.421875 C-403.578125 120.761875 -403.578125 120.101875 -403.578125 119.421875 C-402.918125 119.421875 -402.258125 119.421875 -401.578125 119.421875 C-401.36929688 118.89207031 -401.16046875 118.36226562 -400.9453125 117.81640625 C-399.00918822 114.42542287 -396.43755618 111.87331443 -393.703125 109.109375 C-393.17332031 108.54669922 -392.64351563 107.98402344 -392.09765625 107.40429688 C-390.5234375 105.80859375 -390.5234375 105.80859375 -387.578125 103.421875 C-384.24912827 103.73122345 -381.97962157 105.30988334 -379.27734375 107.1875 C-378.46458984 107.74824219 -377.65183594 108.30898437 -376.81445312 108.88671875 C-375.97333984 109.47582031 -375.13222656 110.06492187 -374.265625 110.671875 C-373.43611328 111.24550781 -372.60660156 111.81914062 -371.75195312 112.41015625 C-366.99694651 115.70525949 -362.27747688 119.04798134 -357.578125 122.421875 C-357.35878296 120.97566772 -357.35878296 120.97566772 -357.13500977 119.50024414 C-356.59309619 115.93449844 -356.04579161 112.3695979 -355.49682617 108.80493164 C-355.25966832 107.25991081 -355.02398715 105.71466259 -354.78979492 104.16918945 C-354.45355955 101.95202642 -354.11207925 99.7357266 -353.76953125 97.51953125 C-353.66532364 96.8247316 -353.56111603 96.12993195 -353.45375061 95.41407776 C-352.69199671 90.53574671 -352.69199671 90.53574671 -351.578125 89.421875 C-350.13522713 89.32891685 -348.68782715 89.30440987 -347.24194336 89.30834961 C-346.3210643 89.30842514 -345.40018524 89.30850067 -344.45140076 89.30857849 C-343.45036819 89.31373978 -342.44933563 89.31890106 -341.41796875 89.32421875 C-340.39836563 89.3256337 -339.37876251 89.32704865 -338.32826233 89.32850647 C-335.05735393 89.33412403 -331.78651287 89.3466795 -328.515625 89.359375 C-326.30403744 89.36438774 -324.09244882 89.36895104 -321.88085938 89.37304688 C-316.44659143 89.38409916 -311.01236303 89.40085437 -305.578125 89.421875 C-304.23797092 93.87678279 -303.19606001 98.18171045 -302.5078125 102.79296875 C-302.33378906 103.94345703 -302.15976562 105.09394531 -301.98046875 106.27929688 C-301.80644531 107.46072266 -301.63242187 108.64214844 -301.453125 109.859375 C-301.18048828 111.67211914 -301.18048828 111.67211914 -300.90234375 113.52148438 C-300.45682642 116.48769185 -300.01554817 119.45446497 -299.578125 122.421875 C-296.57601197 120.38330247 -293.57683919 118.34044319 -290.578125 116.296875 C-289.31935547 115.44222656 -289.31935547 115.44222656 -288.03515625 114.5703125 C-287.20371094 114.003125 -286.37226563 113.4359375 -285.515625 112.8515625 C-284.68675781 112.28663086 -283.85789062 111.72169922 -283.00390625 111.13964844 C-280.01508213 109.0231663 -277.17661531 106.74343219 -274.3671875 104.39501953 C-272.578125 103.421875 -272.578125 103.421875 -270.64135742 103.63949585 C-268.05567799 104.61998727 -267.33677027 105.70547557 -265.77734375 107.96679688 C-260.16746638 115.25683376 -255.07601126 120.52399042 -245.6484375 121.83203125 C-237.60121591 122.40261353 -229.64047705 122.17414972 -221.578125 121.921875 C-207.223125 121.674375 -207.223125 121.674375 -192.578125 121.421875 C-192.578125 149.801875 -192.578125 178.181875 -192.578125 207.421875 C-184.658125 209.401875 -184.658125 209.401875 -176.578125 211.421875 C-172.04780268 212.67332383 -167.52718589 213.94016757 -163.01171875 215.2421875 C-161.80798111 215.58692108 -160.60424347 215.93165466 -159.36402893 216.28683472 C-155.58049967 217.37099574 -151.79804503 218.45885121 -148.015625 219.546875 C-145.45002718 220.28310202 -142.8841867 221.01847908 -140.31835938 221.75390625 C-135.63164242 223.09760263 -130.94532302 224.44266564 -126.25952148 225.78955078 C-125.26848419 226.070793 -124.2774469 226.35203522 -123.25637817 226.64179993 C-121.61607424 227.11955917 -119.98167982 227.61909154 -118.35958862 228.15544128 C-116.33527806 228.84906473 -116.33527806 228.84906473 -113.578125 229.421875 C-111.19863396 227.82176271 -109.71751722 226.54691296 -107.828125 224.484375 C-106.80071266 223.45188295 -105.76673256 222.42588826 -104.7265625 221.40625 C-104.20803711 220.89771484 -103.68951172 220.38917969 -103.15527344 219.86523438 C-99.55660038 216.57183575 -93.66401873 211.421875 -88.578125 211.421875 C-88.578125 200.201875 -88.578125 188.981875 -88.578125 177.421875 C-91.548125 177.421875 -94.518125 177.421875 -97.578125 177.421875 C-108.37505758 175.13463007 -116.58850177 168.63798977 -123.0703125 159.91015625 C-125.65867008 155.63869568 -127.07448612 151.17337385 -128.578125 146.421875 C-133.858125 146.091875 -139.138125 145.761875 -144.578125 145.421875 C-145.19316826 123.77576915 -144.49755157 101.26072815 -134.578125 81.421875 C-135.66351563 81.46828125 -136.74890625 81.5146875 -137.8671875 81.5625 C-139.31247231 81.60003987 -140.75778711 81.63643764 -142.203125 81.671875 C-142.91597656 81.70539063 -143.62882812 81.73890625 -144.36328125 81.7734375 C-149.58089209 81.86917348 -152.50057262 80.95030141 -156.578125 77.421875 C-161.31949066 72.61729113 -161.09785228 67.64123714 -161.125 61.234375 C-161.10953125 59.97625 -161.0940625 58.718125 -161.078125 57.421875 C-161.09359375 56.16375 -161.1090625 54.905625 -161.125 53.609375 C-161.0893811 45.20331492 -160.21952823 41.06327823 -154.1953125 35.0390625 C-149.45571654 32.92006387 -145.63149303 33.25458092 -140.49926758 33.42797852 C-130.18354998 34.16293854 -130.18354998 34.16293854 -120.63818359 31.17919922 C-118.29244856 28.46649595 -117.14286709 25.48589864 -115.9453125 22.140625 C-113.82647113 16.37737647 -109.82117412 12.72697968 -105.578125 8.421875 C-104.75248047 7.48794922 -104.75248047 7.48794922 -103.91015625 6.53515625 C-78.44993236 -21.43965766 -29.10358627 -21.73886078 0 0 Z M-176.578125 277.421875 C-176.578125 289.301875 -176.578125 301.181875 -176.578125 313.421875 C-163.378125 313.421875 -150.178125 313.421875 -136.578125 313.421875 C-136.578125 305.501875 -136.578125 297.581875 -136.578125 289.421875 C-141.85253652 287.44397068 -146.9578014 285.64746361 -152.359375 284.16015625 C-152.98038086 283.98625366 -153.60138672 283.81235107 -154.24121094 283.63317871 C-156.51910776 282.9963878 -158.79871248 282.36571894 -161.078125 281.734375 C-166.193125 280.31125 -171.308125 278.888125 -176.578125 277.421875 Z " fill="#010000" transform="translate(472.578125,62.578125)"/>
<path d="M0 0 C1.28036752 0.95942849 2.56061852 1.91901248 3.84082031 2.87866211 C4.55377258 3.41301376 5.26672485 3.94736542 6.00128174 4.49790955 C7.52087096 5.63992166 9.03512128 6.78904183 10.546875 7.94140625 C21.5580586 16.04360695 33.60520215 20.31044694 47.23815918 20.2784729 C48.5837339 20.2871615 48.5837339 20.2871615 49.95649195 20.29602563 C52.944339 20.31294971 55.93203087 20.31589558 58.91992188 20.31884766 C61.06886165 20.32815107 63.21779782 20.33832035 65.36672974 20.34928894 C71.18837675 20.37655635 77.00999961 20.39172875 82.83169365 20.40471697 C88.92025392 20.42036172 95.00876496 20.44714768 101.09729004 20.4727478 C112.62136084 20.51951173 124.14544093 20.55626743 135.66955805 20.58942068 C148.79165256 20.62765888 161.9136976 20.67706462 175.03575039 20.72740483 C202.0238016 20.83068925 229.01187365 20.9184869 256 21 C256 42.12 256 63.24 256 85 C252.7 85.66 249.4 86.32 246 87 C236.12185895 91.21273662 229.82162621 97.08701578 225.75 107.0625 C224.91793374 110.32142617 224.47566656 113.67033405 224 117 C218.72 117 213.44 117 208 117 C208 90.6 208 64.2 208 37 C186.88 37 165.76 37 144 37 C144 63.4 144 89.8 144 117 C133.44 117 122.88 117 112 117 C112 143.4 112 169.8 112 197 C100.511875 197.061875 89.02375 197.12375 77.1875 197.1875 C73.58094482 197.21481201 69.97438965 197.24212402 66.25854492 197.27026367 C61.8013916 197.28381348 61.8013916 197.28381348 59.70454407 197.28633118 C58.26249908 197.29089113 56.8204644 197.30134338 55.37849426 197.31672668 C39.34311266 197.47901247 25.90266176 194.69662785 13.75 183.5 C1.91035704 171.00050433 -0.31351967 156.37502601 -0.22705078 139.74975586 C-0.22648579 138.22135424 -0.22680495 136.69295208 -0.22793579 135.16455078 C-0.22850687 131.039134 -0.21679247 126.91383482 -0.20278788 122.78844523 C-0.19023945 118.46830904 -0.18910679 114.1481698 -0.18673706 109.82801819 C-0.18053434 101.65782842 -0.16413994 93.48769251 -0.14403808 85.3175264 C-0.1216414 76.0115773 -0.11067619 66.70562555 -0.10064721 57.39965618 C-0.07977259 38.26640697 -0.0446202 19.13320783 0 0 Z " fill="#E5E8EC" transform="translate(24,291)"/>
<path d="M0 0 C10.29431566 24.68636862 14.02349089 50.66951034 7 77 C6.73316406 78.01320313 6.46632813 79.02640625 6.19140625 80.0703125 C0.32732101 99.6172633 -11.20898798 120.11263085 -28.63671875 131.20703125 C-38.79474413 136.6222852 -49.62989162 139.16964947 -61.11669922 139.11352539 C-62.30307228 139.11374443 -62.30307228 139.11374443 -63.51341248 139.1139679 C-66.11053269 139.11327489 -68.70757991 139.10551129 -71.3046875 139.09765625 C-73.1121517 139.0957899 -74.91961641 139.09436702 -76.7270813 139.09336853 C-81.47157196 139.08956049 -86.21603174 139.07974488 -90.96051025 139.06866455 C-95.80700259 139.05841355 -100.65349994 139.05386302 -105.5 139.04882812 C-115.00001571 139.03812102 -124.50000045 139.02053815 -134 139 C-134 128.44 -134 117.88 -134 107 C-131.67380615 106.98541748 -129.3476123 106.97083496 -126.95092773 106.95581055 C-119.25144373 106.90539597 -111.5521605 106.83878878 -103.8528738 106.76428509 C-99.18635738 106.71962317 -94.51992742 106.68035787 -89.85327148 106.65356445 C-85.34677993 106.62748974 -80.84062184 106.58705795 -76.33433723 106.53681374 C-74.61806459 106.52017317 -72.9017343 106.50864142 -71.18539238 106.50238609 C-68.77485353 106.49271423 -66.3651624 106.46461931 -63.95483398 106.43237305 C-62.89854797 106.43452568 -62.89854797 106.43452568 -61.82092285 106.4367218 C-55.99476439 106.32702619 -51.14496888 105.08720446 -46.88769531 100.94458008 C-44.19585661 96.74563199 -41.99627629 92.35946149 -39.796875 87.88671875 C-39.0728952 86.43239189 -39.0728952 86.43239189 -38.33428955 84.94868469 C-36.80051658 81.8644038 -35.27516095 78.77604709 -33.75 75.6875 C-32.70888671 73.59022 -31.66722612 71.49321159 -30.625 69.39648438 C-28.07698436 64.2674524 -25.53585902 59.13505228 -23 54 C-23.93730957 53.6920752 -24.87461914 53.38415039 -25.84033203 53.06689453 C-28.60857406 52.13216901 -31.21795349 51.08274841 -33.875 49.875 C-35.04675781 49.34519531 -35.04675781 49.34519531 -36.2421875 48.8046875 C-36.82226562 48.53914063 -37.40234375 48.27359375 -38 48 C-38.36822876 49.22432739 -38.36822876 49.22432739 -38.74389648 50.47338867 C-40.22768411 54.63924139 -42.10743178 58.4829394 -44.09765625 62.42578125 C-44.49198349 63.21397751 -44.88631073 64.00217377 -45.29258728 64.81425476 C-46.12195221 66.46997689 -46.95325051 68.12473185 -47.78637695 69.77856445 C-49.06601129 72.31947221 -50.33913142 74.86356463 -51.61132812 77.40820312 C-52.41889205 79.01841919 -53.2268218 80.62845185 -54.03515625 82.23828125 C-54.41744888 83.00175369 -54.79974152 83.76522614 -55.19361877 84.55183411 C-57.88390992 89.88390992 -57.88390992 89.88390992 -59 91 C-61.59359322 91.08851529 -64.16039691 91.11525945 -66.75390625 91.09765625 C-67.52935287 91.0962413 -68.3047995 91.09482635 -69.10374451 91.09336853 C-71.59003494 91.08775345 -74.0762366 91.07519846 -76.5625 91.0625 C-78.24413933 91.05748694 -79.92578006 91.0529237 -81.60742188 91.04882812 C-85.73831566 91.03777913 -89.86914276 91.02050445 -94 91 C-94.64858102 64.51793808 -93.87944533 39.73037134 -75 19 C-74.31550781 18.2471875 -73.63101563 17.494375 -72.92578125 16.71875 C-67.62853842 11.1571346 -67.62853842 11.1571346 -63 10 C-58.38 19.24 -53.76 28.48 -49 38 C-45.15608479 36.0780424 -42.26767585 33.84378725 -39.0625 31.0625 C-37.8998054 30.06632943 -36.73704306 29.07023791 -35.57421875 28.07421875 C-34.9817334 27.5642334 -34.38924805 27.05424805 -33.77880859 26.52880859 C-30.98879235 24.13091102 -28.18292661 21.75187785 -25.375 19.375 C-24.83939453 18.92116943 -24.30378906 18.46733887 -23.75195312 17.99975586 C-19.33624269 14.26611978 -14.87201963 10.59424553 -10.3828125 6.94921875 C-8.37444865 5.30631127 -6.40229201 3.63177717 -4.4375 1.9375 C-2 0 -2 0 0 0 Z " fill="#FD816D" transform="translate(446,285)"/>
<path d="M0 0 C6.6 0 13.2 0 20 0 C21.98 11.22 23.96 22.44 26 34 C36.03223357 39.03122652 36.03223357 39.03122652 42 36 C43.95888367 34.75960614 43.95888367 34.75960614 45.77734375 33.3203125 C46.45603516 32.80339844 47.13472656 32.28648437 47.83398438 31.75390625 C48.52814453 31.21636719 49.22230469 30.67882812 49.9375 30.125 C52.61511484 28.06991186 55.30146761 26.02754221 58 24 C58.56090332 23.5678418 59.12180664 23.13568359 59.69970703 22.69042969 C61.7960926 21.15848095 63.37803172 20.03013412 66.015625 19.90234375 C69.0850064 21.60017087 71.35616591 24.04614684 73.75 26.5625 C74.25660156 27.08263672 74.76320312 27.60277344 75.28515625 28.13867188 C76.53034405 29.41910084 77.76611502 30.70867554 79 32 C75.97618801 36.65074305 72.88480836 41.21716097 69.53515625 45.640625 C68.96345703 46.40117187 68.39175781 47.16171875 67.80273438 47.9453125 C66.62511131 49.5049031 65.43727645 51.05682654 64.24023438 52.6015625 C63.3962207 53.73464844 63.3962207 53.73464844 62.53515625 54.890625 C62.023479 55.56125977 61.51180176 56.23189453 60.98461914 56.92285156 C59.10584179 60.88631245 61.21056412 64.874252 62.5625 68.8125 C62.83191406 69.60269531 63.10132813 70.39289063 63.37890625 71.20703125 C63.68634766 72.09455078 63.68634766 72.09455078 64 73 C65.43835205 73.21934204 65.43835205 73.21934204 66.90576172 73.44311523 C70.45837134 73.98578023 74.01028842 74.53286538 77.56201172 75.08129883 C79.10023728 75.31818621 80.63864878 75.55386938 82.17724609 75.78833008 C84.38689192 76.12526189 86.59583603 76.46649801 88.8046875 76.80859375 C89.49432587 76.91280136 90.18396423 77.01700897 90.89450073 77.12437439 C95.77225659 77.88612829 95.77225659 77.88612829 98 79 C98 84.94 98 90.88 98 97 C93.24498676 98.18875331 88.82410457 99.2765718 84.0390625 100.03515625 C82.99105469 100.20466797 81.94304687 100.37417969 80.86328125 100.54882812 C79.79464844 100.71833984 78.72601563 100.88785156 77.625 101.0625 C75.47087778 101.40456545 73.31720411 101.74947164 71.1640625 102.09765625 C70.21998535 102.24726807 69.2759082 102.39687988 68.30322266 102.55102539 C65.98401378 102.89640184 65.98401378 102.89640184 64 104 C62.82580138 106.19840341 62.82580138 106.19840341 61.8125 108.8125 C61.44769531 109.68519531 61.08289063 110.55789063 60.70703125 111.45703125 C59.92603768 114.26601918 59.90998722 115.33317263 61 118 C61.96813893 119.59568605 62.99302956 121.15787916 64.0625 122.6875 C67 126.91058824 67 126.91058824 67 128 C49.84 128 32.68 128 15 128 C15 127.67 15 127.34 15 127 C15.67804688 126.85304688 16.35609375 126.70609375 17.0546875 126.5546875 C27.7239901 123.98341513 36.85578815 119.39611023 43 110 C48.97454771 98.06642288 50.56793543 87.90737091 47.03515625 74.9921875 C43.58201142 65.01064434 37.27036489 57.61568591 27.9375 52.6875 C18.84633106 48.29111414 8.39403748 47.26766194 -1.359375 49.91015625 C-13.53330764 54.71484286 -21.31712233 61.87117184 -26.875 73.6875 C-31.15307329 84.70803831 -29.46666822 95.2855622 -25 106 C-20.12383961 115.75232078 -12.41451002 121.56263009 -2.26171875 125.17578125 C0 126 0 126 4 128 C-12.83 128 -29.66 128 -47 128 C-43 121 -43 121 -41.1875 118.875 C-39.77852762 117.05203649 -39.77852762 117.05203649 -40.125 114.75 C-40.41375 113.8425 -40.7025 112.935 -41 112 C-41.15507523 111.35816772 -41.31015045 110.71633545 -41.46992493 110.05505371 C-42.11076383 107.82230056 -42.78470128 105.98412312 -44 104 C-46.88807878 102.78276615 -48.71678315 102.27850907 -51.73046875 101.90625 C-52.48088943 101.78439331 -53.23131012 101.66253662 -54.00447083 101.5369873 C-56.394964 101.15685019 -58.78935304 100.82799283 -61.1875 100.5 C-62.81236591 100.25074275 -64.43672769 99.99817512 -66.06054688 99.7421875 C-70.03599837 99.11651603 -74.0127109 98.56081211 -78 98 C-78 91.4 -78 84.8 -78 78 C-73.80125774 77.28488575 -69.60227463 76.5717854 -65.40234375 75.86376953 C-63.97441001 75.62243318 -62.54667269 75.37993152 -61.11914062 75.13623047 C-59.06431098 74.7856502 -57.00880569 74.43930052 -54.953125 74.09375 C-53.71723633 73.88427734 -52.48134766 73.67480469 -51.20800781 73.45898438 C-48 73 -48 73 -44 73 C-43.516941 71.60550891 -43.03874483 70.20933293 -42.5625 68.8125 C-42.29566406 68.03519531 -42.02882812 67.25789063 -41.75390625 66.45703125 C-40.030651 61.67127182 -40.030651 61.67127182 -40.98461914 56.92285156 C-41.49629639 56.2522168 -42.00797363 55.58158203 -42.53515625 54.890625 C-43.09783203 54.13523438 -43.66050781 53.37984375 -44.24023438 52.6015625 C-44.84158203 51.82554687 -45.44292969 51.04953125 -46.0625 50.25 C-47.2217113 48.71479311 -48.37926745 47.17833502 -49.53515625 45.640625 C-50.10766113 44.88458984 -50.68016602 44.12855469 -51.27001953 43.34960938 C-53.98865644 39.65723546 -56.48957682 35.836324 -59 32 C-54.71 27.71 -50.42 23.42 -46 19 C-41.35400511 22.04025761 -36.78622631 25.11262664 -32.359375 28.46484375 C-31.59882812 29.03654297 -30.83828125 29.60824219 -30.0546875 30.19726562 C-28.4950969 31.37488869 -26.94317346 32.56272355 -25.3984375 33.75976562 C-24.64304688 34.32244141 -23.88765625 34.88511719 -23.109375 35.46484375 C-22.43874023 35.976521 -21.76810547 36.48819824 -21.07714844 37.01538086 C-17.13650403 38.88334265 -13.10457187 36.78216646 -9.1875 35.4375 C-8.39730469 35.16808594 -7.60710937 34.89867187 -6.79296875 34.62109375 C-6.20128906 34.41613281 -5.60960937 34.21117187 -5 34 C-4.83564453 32.58074219 -4.83564453 32.58074219 -4.66796875 31.1328125 C-3.42689331 20.69176496 -1.78118419 10.36325348 0 0 Z " fill="#F8D46E" transform="translate(134,168)"/>
<path d="M0 0 C25.04572316 -0.20054405 25.04572316 -0.20054405 35.70703125 -0.24414062 C42.98700132 -0.27405095 50.2666575 -0.3094658 57.54638672 -0.37719727 C63.41432895 -0.43145274 69.28193468 -0.46140725 75.15010834 -0.47438622 C77.39088999 -0.48363761 79.63165285 -0.50170319 81.87229156 -0.52865028 C85.00673986 -0.56485367 88.13979094 -0.56994886 91.27441406 -0.56762695 C92.20445755 -0.58560333 93.13450104 -0.60357971 94.09272766 -0.62210083 C100.38163586 -0.57156387 100.38163586 -0.57156387 103.60784912 2.41047668 C105 5 105 5 105 7 C105.57492187 7.2784375 106.14984375 7.556875 106.7421875 7.84375 C109 9 109 9 111.0078125 10.21875 C111.70648438 10.6415625 112.40515625 11.064375 113.125 11.5 C113.80820312 11.9228125 114.49140625 12.345625 115.1953125 12.78125 C119.05908119 14.57743126 119.05908119 14.57743126 128 16 C128 31.84 128 47.68 128 64 C85.76 64 43.52 64 0 64 C0 42.88 0 21.76 0 0 Z " fill="#FBD66F" transform="translate(152,424)"/>
<path d="M0 0 C22.44 0 44.88 0 68 0 C68 10.56 68 21.12 68 32 C71.3 32 74.6 32 78 32 C82.51315789 34.02631579 82.51315789 34.02631579 84 37 C84.61048692 42.37228486 83.18657059 44.74414613 80 49 C77.15120322 51.68964612 74.23026422 54.26704924 71.265625 56.828125 C66.64685555 63.29440223 69.16541966 72.5623903 70.3125 80.05859375 C70.5122644 81.42504784 70.5122644 81.42504784 70.71606445 82.81910706 C71.13733233 85.69294308 71.56818171 88.56523215 72 91.4375 C72.43004204 94.33499242 72.85805386 97.23276783 73.28393555 100.13087463 C73.54821573 101.92534788 73.81520315 103.71942501 74.08520508 105.51304626 C74.20532959 106.32141434 74.3254541 107.12978241 74.44921875 107.96264648 C74.55580811 108.67194809 74.66239746 109.38124969 74.7722168 110.11204529 C75 112 75 112 75 115 C70.77155158 116.14849509 66.54212074 117.29333049 62.3125 118.4375 C61.11431641 118.76298828 59.91613281 119.08847656 58.68164062 119.42382812 C57.52470703 119.73642578 56.36777344 120.04902344 55.17578125 120.37109375 C54.11270752 120.65911865 53.04963379 120.94714355 51.9543457 121.24389648 C49.32383197 121.91712192 46.66256726 122.46748655 44 123 C44 114.09 44 105.18 44 96 C49.28 96 54.56 96 60 96 C60 90.72 60 85.44 60 80 C58.33614258 80.0314209 58.33614258 80.0314209 56.63867188 80.06347656 C52.49394821 80.13628467 48.34928024 80.18194695 44.20410156 80.21972656 C42.41559316 80.23974959 40.62714946 80.26697654 38.83886719 80.30175781 C36.25699838 80.35068955 33.6760005 80.37306165 31.09375 80.390625 C29.90888 80.42159271 29.90888 80.42159271 28.70007324 80.45318604 C21.82840877 80.45591708 16.71694927 78.37193984 11.5390625 73.8515625 C10.90742188 73.11679688 10.27578125 72.38203125 9.625 71.625 C8.97789062 70.89539063 8.33078125 70.16578125 7.6640625 69.4140625 C3.03264368 62.69524365 3.83984489 55.84760059 4 48 C-1.28 48 -6.56 48 -12 48 C-10.49402331 30.93226419 -7.13229797 15.69105552 0 0 Z " fill="#EFCFB3" transform="translate(356,144)"/>
<path d="M0 0 C5.28 0 10.56 0 16 0 C16 5.28 16 10.56 16 16 C32.17 16 48.34 16 65 16 C65.66 14.35 66.32 12.7 67 11 C70.47288383 5.68007285 74.79126787 1.66024641 81 0 C87.96638754 -0.78941541 95.08009918 -1.133182 101.25390625 2.59765625 C106.13592264 6.51855979 110.12676295 10.95615969 112 17 C112.80514105 24.83608208 113.12460392 32.61922577 108 39 C103.19551361 44.04521222 98.83822945 47.60562995 91.73046875 48.3359375 C83.18114273 48.43019688 77.30690155 48.10501554 71 42.09375 C67.82034459 38.65767077 66.15818909 36.63275636 65 32 C48.83 32 32.66 32 16 32 C16 42.56 16 53.12 16 64 C26.56 64 37.12 64 48 64 C48 69.28 48 74.56 48 80 C32.16 80 16.32 80 0 80 C0 64.16 0 48.32 0 32 C-5.28 32 -10.56 32 -16 32 C-16 53.12 -16 74.24 -16 96 C-21.28 96 -26.56 96 -32 96 C-32 69.6 -32 43.2 -32 16 C-21.44 16 -10.88 16 0 16 C0 10.72 0 5.44 0 0 Z " fill="#000000" transform="translate(200,40)"/>
<path d="M0 0 C0.33 0 0.66 0 1 0 C1 30.36 1 60.72 1 92 C-33.32 92 -67.64 92 -103 92 C-103 76.16 -103 60.32 -103 44 C-82 43.75 -82 43.75 -75.48046875 43.70214844 C-61.09968513 43.50536794 -47.45753719 42.16006083 -34.5625 35.1875 C-33.90056641 34.84203125 -33.23863281 34.4965625 -32.55664062 34.140625 C-27.23977114 31.29174302 -22.47970189 28.05521401 -18 24 C-17.01 23.14728516 -17.01 23.14728516 -16 22.27734375 C-9.32105588 16.13323695 -4.05290285 8.10580571 0 0 Z " fill="#FE816D" transform="translate(455,396)"/>
<path d="M0 0 C10.53325663 8.76156779 17.84396938 20.37761719 21.6328125 33.5234375 C21.85582031 34.22984375 22.07882812 34.93625 22.30859375 35.6640625 C23.83808119 40.94963815 23.6328125 44.68404875 23.6328125 50.5234375 C7.7928125 50.5234375 -8.0471875 50.5234375 -24.3671875 50.5234375 C-24.8621875 40.1284375 -24.8621875 40.1284375 -25.3671875 29.5234375 C-29.71055859 22.78237877 -29.71055859 22.78237877 -36.3671875 19.5234375 C-38.28372801 19.40683816 -40.20390903 19.34677001 -42.1237793 19.31811523 C-43.30477707 19.29817001 -44.48577484 19.27822479 -45.70256042 19.25767517 C-46.97762955 19.24096268 -48.25269867 19.22425018 -49.56640625 19.20703125 C-50.87172806 19.18625015 -52.17704987 19.16546906 -53.52192688 19.14405823 C-56.98901103 19.08891477 -60.45615396 19.03947155 -63.92333984 18.99121094 C-67.46261819 18.9409394 -71.00181139 18.88528287 -74.54101562 18.83007812 C-81.48299906 18.72259112 -88.42505944 18.62112523 -95.3671875 18.5234375 C-90.93755681 6.65960098 -79.39480492 -1.92898079 -68.3671875 -7.4765625 C-45.64065904 -17.66391216 -19.88094995 -15.29395253 0 0 Z " fill="#FDE8A5" transform="translate(464.3671875,77.4765625)"/>
<path d="M0 0 C5.58730223 3.3716479 9.98188183 8.17752734 11.5625 14.5 C33.0125 14.5 54.4625 14.5 76.5625 14.5 C76.5625 30.34 76.5625 46.18 76.5625 62.5 C71.2825 62.5 66.0025 62.5 60.5625 62.5 C60.5625 51.94 60.5625 41.38 60.5625 30.5 C44.3925 30.5 28.2225 30.5 11.5625 30.5 C10.9025 32.15 10.2425 33.8 9.5625 35.5 C6.00754381 40.62138807 1.92652132 45.34188305 -4.4375 46.5 C-12.33133952 47.24416864 -19.99874134 47.67117306 -26.4375 42.5 C-31.48271222 37.69551361 -35.04312995 33.33822945 -35.7734375 26.23046875 C-35.86733204 17.71423427 -35.5552288 11.82404506 -29.56640625 5.53515625 C-21.52363185 -1.89946886 -10.4806088 -4.64434821 0 0 Z " fill="#000000" transform="translate(43.4375,73.5)"/>
<path d="M0 0 C5.82485779 3.51996782 10.54466582 8.98962934 12.5625 15.5 C13.36748575 23.33457059 13.68829143 31.12123733 8.5625 37.5 C4.79441918 41.45339627 1.92912621 44.15834345 -3.4375 45.5 C-3.4375 72.23 -3.4375 98.96 -3.4375 126.5 C-8.7175 126.5 -13.9975 126.5 -19.4375 126.5 C-19.4375 99.77 -19.4375 73.04 -19.4375 45.5 C-21.0875 44.84 -22.7375 44.18 -24.4375 43.5 C-29.55888807 39.94504381 -34.27938305 35.86402132 -35.4375 29.5 C-36.18166864 21.60616048 -36.60867306 13.93875866 -31.4375 7.5 C-23.13577971 -1.21767287 -11.72105717 -5.1940371 0 0 Z " fill="#000000" transform="translate(155.4375,9.5)"/>
<path d="M0 0 C10.56 0 21.12 0 32 0 C32 31.68 32 63.36 32 96 C17.81 96 3.62 96 -11 96 C-18 87 -18 87 -18 84 C-14.1234573 83.28113037 -10.24569194 82.56930273 -6.36669922 81.86376953 C-4.4039504 81.50528758 -2.44219945 81.14135597 -0.48046875 80.77734375 C0.76347656 80.55175781 2.00742188 80.32617188 3.2890625 80.09375 C4.43068848 79.88427734 5.57231445 79.67480469 6.74853516 79.45898438 C10 79 10 79 16 79 C16 63.82 16 48.64 16 33 C12.04 32.67 8.08 32.34 4 32 C1.99914492 31.71558738 0.00142776 31.40270891 -1.984375 31.02734375 C-2.93828125 30.85009766 -3.8921875 30.67285156 -4.875 30.49023438 C-5.82375 30.30783203 -6.7725 30.12542969 -7.75 29.9375 C-8.74515625 29.75123047 -9.7403125 29.56496094 -10.765625 29.37304688 C-13.17814481 28.92069941 -15.58950383 28.46298772 -18 28 C-17.38143791 24.68272264 -16.19733359 22.58476243 -14.19921875 19.8828125 C-13.63396484 19.11066406 -13.06871094 18.33851563 -12.48632812 17.54296875 C-11.89271484 16.74503906 -11.29910156 15.94710937 -10.6875 15.125 C-9.52375889 13.54499269 -8.3609775 11.96427799 -7.19921875 10.3828125 C-6.42324341 9.33697998 -6.42324341 9.33697998 -5.6315918 8.27001953 C-3.68507556 5.56184836 -1.8499993 2.77499895 0 0 Z " fill="#EDCEB2" transform="translate(232,200)"/>
<path d="M0 0 C15.84 0 31.68 0 48 0 C48 25.5717293 40.18865968 45.95624046 23 65 C17.29438915 70.70561085 10.91112539 75.81935704 4 80 C3.34 80 2.68 80 2 80 C-0.19096721 67.8127449 -0.19096721 67.8127449 2.50390625 63.7109375 C3.90702521 62.45957903 5.33564439 61.23637458 6.78515625 60.0390625 C11.67397454 55.53824566 14.46077262 49.35150555 15.5078125 42.84375 C15.74929055 36.4687294 14.93162054 31.13517785 11 26 C7.61821374 22.48482542 4.37638782 20.18819391 0 18 C0 12.06 0 6.12 0 0 Z " fill="#646C76" transform="translate(440,144)"/>
<path d="M0 0 C10.56 0 21.12 0 32 0 C32 21.12 32 42.24 32 64 C21.44 64 10.88 64 0 64 C0 42.88 0 21.76 0 0 Z " fill="#5CD6B3" transform="translate(184,344)"/>
<path d="M0 0 C5.55419366 3.8109066 10.09397894 9.01088622 12.140625 15.46875 C13.309496 23.47859234 11.74549187 29.84053253 7.140625 36.46875 C2.42949069 41.88884142 -3.20835476 44.8679005 -10.30859375 45.78515625 C-16.3406825 46.07151881 -20.99127647 45.1198239 -25.859375 41.46875 C-32.49382404 35.26953964 -35.80740954 30.23583396 -36.234375 21.09375 C-36.06149574 14.36965668 -34.40452533 10.14210753 -29.765625 5.26953125 C-21.0360648 -2.83441047 -11.14510397 -5.61264228 0 0 Z " fill="#EDCDB1" transform="translate(155.859375,234.53125)"/>
<path d="M0 0 C1.72924805 1.82592773 1.72924805 1.82592773 3.26171875 4.18359375 C3.82310547 5.02857422 4.38449219 5.87355469 4.96289062 6.74414062 C5.81657227 8.07735352 5.81657227 8.07735352 6.6875 9.4375 C7.83570478 11.18720606 8.98537706 12.93595024 10.13671875 14.68359375 C10.63905029 15.46275146 11.14138184 16.24190918 11.65893555 17.04467773 C12.98720195 19.10932821 12.98720195 19.10932821 15 21 C15 21.99 15 22.98 15 24 C10.80148069 24.71626282 6.60226012 25.42821704 2.40234375 26.13623047 C0.97441001 26.37756682 -0.45332731 26.62006848 -1.88085938 26.86376953 C-3.93568902 27.2143498 -5.99119431 27.56069948 -8.046875 27.90625 C-9.28276367 28.11572266 -10.51865234 28.32519531 -11.79199219 28.54101562 C-15 29 -15 29 -19 29 C-19 44.18 -19 59.36 -19 75 C-13.72 75.66 -8.44 76.32 -3 77 C0.34195495 77.51743337 3.67018278 78.04435572 7 78.625 C8.17949219 78.82609375 8.17949219 78.82609375 9.3828125 79.03125 C11.25574837 79.35101954 13.12796569 79.67499404 15 80 C14.38801624 83.43950364 13.07941153 85.51564485 10.9375 88.25 C10.38964844 88.95640625 9.84179688 89.6628125 9.27734375 90.390625 C8.64505859 91.18726563 8.64505859 91.18726563 8 92 C-6.11367379 89.44203686 -16.95836476 84.47119029 -26 73 C-33.98454885 60.48894832 -37.54897252 46.60072154 -34.3125 31.87109375 C-29.45403437 17.63983819 -20.70745762 7.15412132 -7.578125 -0.1015625 C-4.46938125 -1.1849126 -3.11392958 -1.00130102 0 0 Z " fill="#ECCCB1" transform="translate(59,204)"/>
<path d="M0 0 C0.65194336 0.17885742 1.30388672 0.35771484 1.97558594 0.54199219 C6.96311314 1.90672087 11.95385706 3.25700698 16.953125 4.578125 C34.45988895 9.21710643 51.84126441 14.19411781 69 20 C67.44488431 23.9584763 65.76436043 27.85260971 64.0625 31.75 C61.74856909 37.0910308 59.7255082 42.44002912 58 48 C49.85307912 46.60888293 41.9737214 44.3836976 34.0559082 42.05883789 C31.91193786 41.43000252 29.76571444 40.80933629 27.61914062 40.18945312 C26.25506966 39.79214246 24.89113212 39.39437336 23.52734375 38.99609375 C22.29749756 38.63700928 21.06765137 38.2779248 19.80053711 37.90795898 C17 37 17 37 16 36 C15.91241997 34.00035018 15.89303424 31.9976389 15.90234375 29.99609375 C15.90556641 28.78115234 15.90878906 27.56621094 15.91210938 26.31445312 C15.92048828 25.03505859 15.92886719 23.75566406 15.9375 22.4375 C15.94201172 21.15423828 15.94652344 19.87097656 15.95117188 18.54882812 C15.96300445 15.3658658 15.98094056 12.18292726 16 9 C10.72 9 5.44 9 0 9 C0 6.03 0 3.06 0 0 Z " fill="#FB806C" transform="translate(280,287)"/>
<path d="M0 0 C31.68 0 63.36 0 96 0 C96 5.28 96 10.56 96 16 C64.32 16 32.64 16 0 16 C0 10.72 0 5.44 0 0 Z " fill="#FCD770" transform="translate(328,112)"/>
<path d="M0 0 C26.4 0 52.8 0 80 0 C80 5.28 80 10.56 80 16 C53.6 16 27.2 16 0 16 C0 10.72 0 5.44 0 0 Z " fill="#000000" transform="translate(72,376)"/>
<path d="M0 0 C26.4 0 52.8 0 80 0 C80 5.28 80 10.56 80 16 C53.6 16 27.2 16 0 16 C0 10.72 0 5.44 0 0 Z " fill="#000000" transform="translate(72,344)"/>
<path d="M0 0 C5.28 0 10.56 0 16 0 C16 5.28 16 10.56 16 16 C26.56 16 37.12 16 48 16 C48 21.28 48 26.56 48 32 C32.16 32 16.32 32 0 32 C0 21.44 0 10.88 0 0 Z " fill="#000000" transform="translate(72,40)"/>
<path d="M0 0 C0.84771973 0.00249756 1.69543945 0.00499512 2.56884766 0.00756836 C4.18605713 0.02122437 4.18605713 0.02122437 5.8359375 0.03515625 C10.9715625 0.06609375 10.9715625 0.06609375 16.2109375 0.09765625 C16.2109375 10.65765625 16.2109375 21.21765625 16.2109375 32.09765625 C12.8696875 32.18015625 9.5284375 32.26265625 6.0859375 32.34765625 C5.04421387 32.38407227 4.00249023 32.42048828 2.92919922 32.45800781 C-2.84012824 32.52680918 -6.26114529 32.04433528 -10.7890625 28.09765625 C-15.18799354 23.10427507 -16.14582587 20.18750398 -16.0703125 13.63671875 C-15.51922565 8.66162912 -12.78208549 5.97246222 -9.1640625 2.78515625 C-5.78512595 0.38433291 -4.09603345 -0.0246749 0 0 Z " fill="#EDCDB1" transform="translate(279.7890625,391.90234375)"/>
<path d="M0 0 C15.84 0 31.68 0 48 0 C48 5.28 48 10.56 48 16 C32.16 16 16.32 16 0 16 C0 10.72 0 5.44 0 0 Z " fill="#000000" transform="translate(72,440)"/>
<path d="M0 0 C15.84 0 31.68 0 48 0 C48 5.28 48 10.56 48 16 C32.16 16 16.32 16 0 16 C0 10.72 0 5.44 0 0 Z " fill="#000000" transform="translate(72,408)"/>
<path d="M0 0 C-6.01982037 5.52360958 -12.15549927 10.84694496 -18.51171875 15.98046875 C-20.5599752 17.64286841 -22.56650689 19.33846702 -24.5625 21.0625 C-27 23 -27 23 -29 23 C-30.98 18.71 -32.96 14.42 -35 10 C-28.44952832 6.42773552 -21.84710001 4.23867553 -14.6875 2.1875 C-13.60404297 1.86330078 -12.52058594 1.53910156 -11.40429688 1.20507812 C-10.36724609 0.90408203 -9.33019531 0.60308594 -8.26171875 0.29296875 C-7.32287842 0.0199292 -6.38403809 -0.25311035 -5.41674805 -0.53442383 C-3 -1 -3 -1 0 0 Z " fill="#EF684C" transform="translate(431,276)"/>
<path d="M0 0 C5.28 0 10.56 0 16 0 C16 5.28 16 10.56 16 16 C10.72 16 5.44 16 0 16 C0 10.72 0 5.44 0 0 Z " fill="#000000" transform="translate(232,456)"/>
<path d="M0 0 C5.28 0 10.56 0 16 0 C16 5.28 16 10.56 16 16 C10.72 16 5.44 16 0 16 C0 10.72 0 5.44 0 0 Z " fill="#000000" transform="translate(200,456)"/>
<path d="M0 0 C5.28 0 10.56 0 16 0 C16 5.28 16 10.56 16 16 C10.72 16 5.44 16 0 16 C0 10.72 0 5.44 0 0 Z " fill="#000000" transform="translate(168,456)"/>
<path d="M0 0 C5.28 0 10.56 0 16 0 C16 5.28 16 10.56 16 16 C10.72 16 5.44 16 0 16 C0 10.72 0 5.44 0 0 Z " fill="#000000" transform="translate(264,104)"/>
<path d="M0 0 C5.28 0 10.56 0 16 0 C16 5.28 16 10.56 16 16 C10.72 16 5.44 16 0 16 C0 10.72 0 5.44 0 0 Z " fill="#000000" transform="translate(200,8)"/>
<path d="M0 0 C5.28 0 10.56 0 16 0 C16 5.28 16 10.56 16 16 C10.72 16 5.44 16 0 16 C0 10.72 0 5.44 0 0 Z " fill="#000000" transform="translate(72,8)"/>
<path d="M0 0 C4.0743356 0.84881992 5.54405875 2.30225596 8 5.625 C8.625 8.625 8.625 8.625 8 11.625 C5.54405875 14.94774404 4.0743356 16.40118008 0 17.25 C-4.0743356 16.40118008 -5.54405875 14.94774404 -8 11.625 C-8.625 8.625 -8.625 8.625 -8 5.625 C-5.54405875 2.30225596 -4.0743356 0.84881992 0 0 Z " fill="#0B0908" transform="translate(368,159.375)"/>
<path d="M0 0 C4.0743356 0.84881992 5.54405875 2.30225596 8 5.625 C8.625 8.625 8.625 8.625 8 11.625 C5.54405875 14.94774404 4.0743356 16.40118008 0 17.25 C-4.0743356 16.40118008 -5.54405875 14.94774404 -8 11.625 C-8.625 8.625 -8.625 8.625 -8 5.625 C-5.54405875 2.30225596 -4.0743356 0.84881992 0 0 Z " fill="#F0CC6A" transform="translate(32,87.375)"/>
<path d="M0 0 C4.0743356 0.84881992 5.54405875 2.30225596 8 5.625 C8.625 8.625 8.625 8.625 8 11.625 C5.54405875 14.94774404 4.0743356 16.40118008 0 17.25 C-4.0743356 16.40118008 -5.54405875 14.94774404 -8 11.625 C-8.625 8.625 -8.625 8.625 -8 5.625 C-5.54405875 2.30225596 -4.0743356 0.84881992 0 0 Z " fill="#F0CC6A" transform="translate(288,55.375)"/>
<path d="M0 0 C4.0743356 0.84881992 5.54405875 2.30225596 8 5.625 C8.625 8.625 8.625 8.625 8 11.625 C5.54405875 14.94774404 4.0743356 16.40118008 0 17.25 C-4.0743356 16.40118008 -5.54405875 14.94774404 -8 11.625 C-8.625 8.625 -8.625 8.625 -8 5.625 C-5.54405875 2.30225596 -4.0743356 0.84881992 0 0 Z " fill="#F0CC6A" transform="translate(144,23.375)"/>
</svg>
