<?xml version="1.0" encoding="UTF-8"?>
<svg version="1.1" xmlns="http://www.w3.org/2000/svg" width="512" height="512">
<path d="M0 0 C6.56239216 5.16772817 11.4367552 11.03247965 15.05859375 18.62109375 C15.05859375 19.61109375 15.05859375 20.60109375 15.05859375 21.62109375 C16.04859375 21.29109375 17.03859375 20.96109375 18.05859375 20.62109375 C27.14646319 19.94914219 34.90951809 20.19995062 43.05859375 24.62109375 C44.08984375 25.17796875 45.12109375 25.73484375 46.18359375 26.30859375 C54.10537025 32.68045746 60.17179924 40.45037286 62.05859375 50.62109375 C62.15241704 53.14052503 62.18852273 55.66242091 62.18359375 58.18359375 C62.18746094 58.85583984 62.19132812 59.52808594 62.1953125 60.22070312 C62.18920448 63.29609127 62.03850604 65.68135688 61.05859375 68.62109375 C61.63867188 68.56308594 62.21875 68.50507812 62.81640625 68.4453125 C67.07069473 68.19960277 70.087831 68.1055803 73.49609375 70.87109375 C77.59638575 75.27140712 78.51504041 78.45898156 78.37890625 84.37109375 C77.74824169 88.80112772 75.25713271 91.56783224 71.99609375 94.43359375 C70.05859375 95.62109375 70.05859375 95.62109375 67.05859375 96.62109375 C67.7134375 97.35070312 68.36828125 98.0803125 69.04296875 98.83203125 C84.85399661 116.78325016 97.56528891 137.52369889 105.75268555 160.01074219 C107.88105807 165.62091916 110.3081205 169.53636868 114.58740234 173.77197266 C117.16167721 177.00754481 117.11121684 180.62173881 117.05859375 184.62109375 C117.05859375 185.94109375 117.05859375 187.26109375 117.05859375 188.62109375 C117.71085937 188.8634375 118.363125 189.10578125 119.03515625 189.35546875 C129.91053437 193.52596774 138.54219982 199.51701294 143.49609375 210.43359375 C145.69051848 215.83601157 146.19507742 220.30969757 146.18359375 226.18359375 C146.18746094 226.85583984 146.19132812 227.52808594 146.1953125 228.22070312 C146.18920448 231.29609127 146.03850604 233.68135688 145.05859375 236.62109375 C145.63867188 236.5746875 146.21875 236.52828125 146.81640625 236.48046875 C150.97279031 236.2884246 153.59523331 236.40657503 157.43359375 238.18359375 C161.02570056 241.5191215 162.81247336 244.64420905 163.22265625 249.60546875 C162.93458915 255.32249266 160.19483149 258.8359425 156.05859375 262.62109375 C152.7796745 264.26055338 149.15245841 263.74139553 145.55078125 263.71875 C144.71016144 263.71733505 143.86954163 263.7159201 143.00344849 263.71446228 C140.313461 263.70885612 137.62355616 263.69630261 134.93359375 263.68359375 C133.11198037 263.67857954 131.29036568 263.6740165 129.46875 263.66992188 C124.99866598 263.65888469 120.52864389 263.64161595 116.05859375 263.62109375 C115.95337402 264.41813721 115.8481543 265.21518066 115.73974609 266.03637695 C114.63376462 273.85232392 112.96321712 281.25734133 110.68359375 288.80859375 C110.24660156 290.31196289 110.24660156 290.31196289 109.80078125 291.84570312 C108.39214406 296.59985365 106.87690648 301.05760404 104.76953125 305.546875 C100.58625182 315.82163237 104.4910921 326.25729786 108.55859375 335.93359375 C109.04070312 337.12033691 109.5228125 338.30708008 110.01953125 339.52978516 C111.66786724 343.57353059 113.35970173 347.59837323 115.05859375 351.62109375 C115.36490723 352.34742004 115.6712207 353.07374634 115.98681641 353.82208252 C119.04141808 361.05989609 122.11387461 368.29005678 125.20361328 375.51293945 C131.04517554 389.17539259 136.76337985 402.88670294 142.43359375 416.62109375 C142.84609375 417.61880798 143.25859375 418.61652222 143.68359375 419.64447021 C144.85973269 422.49016336 146.03382604 425.33669002 147.20703125 428.18359375 C147.72624649 429.44044479 147.72624649 429.44044479 148.25595093 430.72268677 C154.47260716 445.84300074 154.47260716 445.84300074 154.37109375 452.37109375 C154.36722656 453.4590625 154.36335938 454.54703125 154.359375 455.66796875 C154.06966607 458.51238371 153.53093668 460.20433962 152.05859375 462.62109375 C152.69667969 462.68167969 153.33476562 462.74226563 153.9921875 462.8046875 C154.81847656 462.88847656 155.64476562 462.97226562 156.49609375 463.05859375 C157.31980469 463.13980469 158.14351563 463.22101563 158.9921875 463.3046875 C161.05859375 463.62109375 161.05859375 463.62109375 162.05859375 464.62109375 C162.18359375 467.62109375 162.18359375 467.62109375 162.05859375 470.62109375 C160.39707611 472.28261139 158.39022702 471.74572717 156.17066765 471.75483716 C155.11383121 471.75149107 155.11383121 471.75149107 154.03564453 471.74807739 C153.29228914 471.74963738 152.54893375 471.75119737 151.78305244 471.75280464 C149.27331733 471.75681739 146.7636419 471.75362394 144.25390625 471.75048828 C142.46230026 471.7518422 140.67069454 471.75362208 138.87908936 471.75579834 C133.99906487 471.76037379 129.11906143 471.75858266 124.23903656 471.75541925 C119.14389487 471.75289623 114.04875504 471.75523303 108.95361328 471.75680542 C100.39550451 471.75862728 91.83740434 471.75622037 83.27929688 471.75146484 C73.36987937 471.74602219 63.46048245 471.74778484 53.55106544 471.75329125 C45.05937842 471.7578219 36.5676976 471.75847316 28.07600975 471.75585258 C22.9971419 471.75428954 17.91828374 471.75409677 12.8394165 471.75738907 C8.06575808 471.76026709 3.2921263 471.75829337 -1.48152924 471.75249481 C-3.23879705 471.75116684 -4.9960671 471.75156195 -6.75333405 471.75375748 C-9.14173918 471.75646755 -11.53005751 471.75308964 -13.91845703 471.74807739 C-14.62301466 471.75030811 -15.32757229 471.75253884 -16.05348015 471.75483716 C-20.82725639 471.73524361 -20.82725639 471.73524361 -21.94140625 470.62109375 C-22.06640625 467.62109375 -22.06640625 467.62109375 -21.94140625 464.62109375 C-20.35868024 463.03836774 -18.56106622 463.27373628 -16.37890625 463.05859375 C-15.13947266 462.93291016 -15.13947266 462.93291016 -13.875 462.8046875 C-13.23691406 462.74410156 -12.59882813 462.68351562 -11.94140625 462.62109375 C-12.16957031 462.07582031 -12.39773438 461.53054688 -12.6328125 460.96875 C-13.06400391 459.83759766 -13.06400391 459.83759766 -13.50390625 458.68359375 C-13.93896484 457.58724609 -13.93896484 457.58724609 -14.3828125 456.46875 C-16.19194837 447.24595243 -12.05383012 439.40973419 -8.37890625 431.18359375 C-7.35387917 428.85283206 -6.33159301 426.52086238 -5.3125 424.1875 C-4.8580249 423.16599854 -4.4035498 422.14449707 -3.93530273 421.09204102 C-2.81701428 418.75573117 -2.81701428 418.75573117 -2.94140625 416.62109375 C-4.02292969 417.05679687 -5.10445313 417.4925 -6.21875 417.94140625 C-23.74228684 424.79827407 -42.95643149 430.95416348 -61.94140625 430.62109375 C-61.90660156 431.85085938 -61.90660156 431.85085938 -61.87109375 433.10546875 C-61.85304688 434.183125 -61.835 435.26078125 -61.81640625 436.37109375 C-61.78160156 437.97210938 -61.78160156 437.97210938 -61.74609375 439.60546875 C-61.93652938 442.54579481 -62.41470521 444.14471253 -63.94140625 446.62109375 C-63.34972656 446.69585937 -62.75804687 446.770625 -62.1484375 446.84765625 C-57.77219325 447.57584045 -55.35119351 448.27821054 -51.87890625 451.18359375 C-49.42335976 455.54020849 -49.45351541 458.74218539 -49.94140625 463.62109375 C-48.33458984 463.60369141 -48.33458984 463.60369141 -46.6953125 463.5859375 C-45.29817882 463.57656076 -43.90104326 463.56746044 -42.50390625 463.55859375 C-41.79685547 463.55021484 -41.08980469 463.54183594 -40.36132812 463.53320312 C-38.55447066 463.52455787 -36.74753022 463.56889364 -34.94140625 463.62109375 C-33.94140625 464.62109375 -33.94140625 464.62109375 -33.81640625 467.62109375 C-33.94140625 470.62109375 -33.94140625 470.62109375 -34.94140625 471.62109375 C-36.48864828 471.71892071 -38.04036669 471.74664888 -39.59069824 471.74693489 C-40.60225731 471.74954264 -41.61381638 471.75215039 -42.65602875 471.75483716 C-44.34319881 471.75149107 -44.34319881 471.75149107 -46.06445312 471.74807739 C-47.84102169 471.75041738 -47.84102169 471.75041738 -49.65348053 471.75280464 C-52.95576687 471.75611791 -56.25799685 471.75490546 -59.56027985 471.75181842 C-63.11587219 471.74956618 -66.67145943 471.75304305 -70.22705078 471.75579834 C-77.1983057 471.76025693 -84.16954989 471.75927918 -91.14080524 471.7563857 C-96.80391338 471.75413201 -102.4670185 471.75381899 -108.13012695 471.75490952 C-108.9345575 471.75506275 -109.73898805 471.75521598 -110.56779528 471.75537386 C-112.20171801 471.75569357 -113.83564075 471.75601778 -115.46956348 471.75634645 C-130.80934088 471.7592015 -146.14911232 471.75591383 -161.48888874 471.75054608 C-174.66577257 471.74607802 -187.84264758 471.74685395 -201.01953125 471.75146484 C-216.30249934 471.75681016 -231.5854622 471.75892681 -246.86843109 471.75585258 C-248.49651591 471.75553401 -250.12460073 471.75521964 -251.75268555 471.75490952 C-252.55384182 471.75475524 -253.3549981 471.75460096 -254.18043184 471.75444201 C-259.84009711 471.75357673 -265.49975907 471.75503998 -271.15942383 471.75738907 C-278.0518393 471.7601868 -284.94424337 471.75944938 -291.83665752 471.75410832 C-295.35670792 471.75147094 -298.87673928 471.75046686 -302.39678955 471.75375748 C-306.20399038 471.75726283 -310.01115968 471.753092 -313.81835938 471.74807739 C-314.94313942 471.75030811 -316.06791946 471.75253884 -317.22678375 471.75483716 C-318.23834282 471.75222941 -319.24990189 471.74962166 -320.29211426 471.74693489 C-321.17214363 471.74677254 -322.052173 471.74661019 -322.95886993 471.74644291 C-324.94140625 471.62109375 -324.94140625 471.62109375 -325.94140625 470.62109375 C-326.06640625 467.62109375 -326.06640625 467.62109375 -325.94140625 464.62109375 C-324.35664573 463.03633323 -322.71248624 463.45682058 -320.51342773 463.41577148 C-319.57252792 463.39582626 -318.63162811 463.37588104 -317.66221619 463.35533142 C-316.63930984 463.33861893 -315.6164035 463.32190643 -314.5625 463.3046875 C-312.99980125 463.27351585 -312.99980125 463.27351585 -311.40553284 463.24171448 C-308.06339378 463.17610318 -304.7211734 463.11728044 -301.37890625 463.05859375 C-299.11913207 463.01541953 -296.85936624 462.97180561 -294.59960938 462.92773438 C-289.04696204 462.82041008 -283.49423304 462.71866563 -277.94140625 462.62109375 C-278.35132813 462.04101562 -278.76125 461.4609375 -279.18359375 460.86328125 C-279.72242188 460.08210938 -280.26125 459.3009375 -280.81640625 458.49609375 C-281.35007812 457.73039062 -281.88375 456.9646875 -282.43359375 456.17578125 C-285.67392323 450.68568934 -286.22991971 445.57516909 -286.18191528 439.30679321 C-286.18362413 438.48495619 -286.18533298 437.66311917 -286.18709362 436.816378 C-286.1903798 434.0710179 -286.1793992 431.32590388 -286.16845703 428.58056641 C-286.16789273 426.60926316 -286.16820985 424.6379595 -286.16934204 422.66665649 C-286.16991581 417.32003801 -286.15815748 411.97350927 -286.14419413 406.62691164 C-286.13169088 401.03752377 -286.13051659 395.44813383 -286.12814331 389.85873413 C-286.12192736 379.27662308 -286.10551495 368.69455335 -286.08544433 358.11246049 C-286.06308895 346.06418877 -286.0520928 334.01591507 -286.04205346 321.96762776 C-286.02114885 297.18542685 -285.98597059 272.40326261 -285.94140625 247.62109375 C-287.37552856 247.17056641 -287.37552856 247.17056641 -288.83862305 246.7109375 C-293.49651832 245.07486507 -295.72787447 242.04815732 -297.94140625 237.62109375 C-298.03790564 235.62298865 -298.07121497 233.62152195 -298.06640625 231.62109375 C-298.07027344 230.01234375 -298.07027344 230.01234375 -298.07421875 228.37109375 C-297.94140625 225.62109375 -297.94140625 225.62109375 -296.94140625 223.62109375 C-297.85635864 223.64465942 -297.85635864 223.64465942 -298.78979492 223.66870117 C-301.56940335 223.73129188 -304.34886317 223.77015997 -307.12890625 223.80859375 C-308.08861328 223.83373047 -309.04832031 223.85886719 -310.03710938 223.88476562 C-318.96676086 223.97746097 -318.96676086 223.97746097 -322.94140625 220.62109375 C-325.61099682 217.0934205 -326.67675176 214.03200197 -326.94140625 209.62109375 C-325.97849299 204.13248817 -324.37347426 201.04587357 -319.94140625 197.62109375 C-316.62890625 196.80859375 -316.62890625 196.80859375 -313.94140625 196.62109375 C-314.02390625 195.50734375 -314.10640625 194.39359375 -314.19140625 193.24609375 C-314.14317421 184.13023845 -309.27386936 175.91863519 -302.94140625 169.62109375 C-297.51896761 165.42028009 -292.8351776 162.43093473 -285.94140625 161.62109375 C-285.85503906 160.95464844 -285.76867187 160.28820312 -285.6796875 159.6015625 C-284.8579079 154.21098986 -283.67886995 149.71240923 -281.25390625 144.80859375 C-279.20355126 140.55109192 -278.39586066 138.25773051 -279.94140625 133.62109375 C-284.0369974 119.55025597 -283.80143641 103.74173396 -276.94140625 90.62109375 C-269.24075836 77.69739772 -258.6413866 68.86216664 -244.17578125 64.48046875 C-239.54124959 63.4000123 -234.99865645 63.23785554 -230.25390625 63.24609375 C-228.94595093 63.24633545 -228.94595093 63.24633545 -227.61157227 63.24658203 C-219.10656526 63.39564128 -211.14403428 64.81934173 -203.94140625 69.62109375 C-200.78170179 69.25856343 -198.57593251 67.9169505 -195.95703125 66.1796875 C-194.81439819 65.43380371 -194.81439819 65.43380371 -193.64868164 64.67285156 C-192.83778076 64.14014648 -192.02687988 63.60744141 -191.19140625 63.05859375 C-182.69496855 57.60265486 -174.15823671 52.74542279 -164.94140625 48.62109375 C-164.19342773 48.28625977 -163.44544922 47.95142578 -162.67480469 47.60644531 C-133.44590792 34.75924141 -104.54043454 30.97950582 -72.94140625 31.62109375 C-72.88641968 30.76946655 -72.88641968 30.76946655 -72.83032227 29.90063477 C-71.93516242 19.30366838 -67.04790396 9.44705123 -59.1015625 2.296875 C-41.54743821 -11.32106229 -18.41820815 -13.16524326 0 0 Z M-221.94140625 375.62109375 C-221.94505188 376.50090912 -221.94869751 377.38072449 -221.95245361 378.28720093 C-221.99045582 386.61364572 -222.04744644 394.93970369 -222.12530899 403.26587486 C-222.16467351 407.54559142 -222.19691562 411.82510562 -222.21240234 416.10498047 C-222.22764217 420.24199454 -222.26221563 424.37845187 -222.30971527 428.51521683 C-222.32445407 430.08665733 -222.33244292 431.65817735 -222.3332901 433.22968674 C-222.34639978 445.36374923 -224.09873099 453.35708085 -230.94140625 463.62109375 C-220.05140625 463.62109375 -209.16140625 463.62109375 -197.94140625 463.62109375 C-196.6546215 459.7607395 -195.55320962 456.24616432 -194.6887207 452.32177734 C-194.4654158 451.31408295 -194.2421109 450.30638855 -194.01203918 449.26815796 C-193.77861313 448.19611115 -193.54518707 447.12406433 -193.3046875 446.01953125 C-193.06098923 444.90550934 -192.81729095 443.79148743 -192.56620789 442.64370728 C-192.05425041 440.29575197 -191.54418361 437.94738372 -191.03588867 435.59863281 C-190.25474617 431.99996319 -189.46056392 428.40432391 -188.66601562 424.80859375 C-188.16976686 422.52491459 -187.67429728 420.24106595 -187.1796875 417.95703125 C-186.82043938 416.34288834 -186.82043938 416.34288834 -186.45393372 414.69613647 C-186.2400853 413.6947464 -186.02623688 412.69335632 -185.8059082 411.66162109 C-185.51850517 410.34307632 -185.51850517 410.34307632 -185.22529602 408.99789429 C-184.92445791 406.47919771 -184.98802277 404.96661011 -185.94140625 402.62109375 C-188.22805111 400.88619416 -190.44753932 399.37225975 -192.87890625 397.87109375 C-194.25871902 396.98520143 -195.63632199 396.09585802 -197.01171875 395.203125 C-197.6862207 394.76564941 -198.36072266 394.32817383 -199.05566406 393.87744141 C-206.26928524 389.0714737 -212.65562204 383.17520335 -219.0078125 377.30859375 C-220.63924265 375.51150471 -220.63924265 375.51150471 -221.94140625 375.62109375 Z M-176.94140625 408.62109375 C-178.51376634 415.80978067 -180.07968467 422.9998488 -181.64111328 430.19091797 C-182.17315501 432.63753085 -182.70667552 435.08382264 -183.24169922 437.52978516 C-184.01007019 441.04376372 -184.77313147 444.55885927 -185.53515625 448.07421875 C-185.77576782 449.16913635 -186.01637939 450.26405396 -186.26428223 451.39215088 C-186.4845105 452.4129071 -186.70473877 453.43366333 -186.93164062 454.48535156 C-187.12705444 455.38247864 -187.32246826 456.27960571 -187.52380371 457.20391846 C-188.05490138 459.86919793 -188.05490138 459.86919793 -187.94140625 463.62109375 C-180.68140625 463.62109375 -173.42140625 463.62109375 -165.94140625 463.62109375 C-165.94140625 447.12109375 -165.94140625 430.62109375 -165.94140625 413.62109375 C-173.51685365 408.45921277 -173.51685365 408.45921277 -176.94140625 408.62109375 Z M-157.94140625 417.62109375 C-157.94140625 432.80109375 -157.94140625 447.98109375 -157.94140625 463.62109375 C-143.42140625 463.62109375 -128.90140625 463.62109375 -113.94140625 463.62109375 C-113.61140625 460.65109375 -113.28140625 457.68109375 -112.94140625 454.62109375 C-111.50390625 451.68359375 -111.50390625 451.68359375 -108.94140625 449.62109375 C-105.6411941 448.63672906 -102.35417494 448.05745921 -98.94140625 447.62109375 C-99.25851563 446.92628906 -99.575625 446.23148437 -99.90234375 445.515625 C-101.03541677 442.35920731 -101.34620636 439.64829208 -101.56640625 436.30859375 C-101.64117187 435.23996094 -101.7159375 434.17132813 -101.79296875 433.0703125 C-101.84195313 432.26207031 -101.8909375 431.45382812 -101.94140625 430.62109375 C-102.57304687 430.53657959 -103.2046875 430.45206543 -103.85546875 430.36499023 C-119.12913244 428.26458637 -133.64577421 425.09733741 -148.34033203 420.42724609 C-151.52512965 419.44018004 -154.73544327 418.53708317 -157.94140625 417.62109375 Z " fill="#363267" transform="translate(337.94140625,24.37890625)"/>
<path d="M0 0 C25.08 0 50.16 0 76 0 C77.32 2.97 78.64 5.94 80 9 C85.43847214 13.57976601 89.55340521 15.37216192 96.51953125 15.28125 C102.0102337 14.65868216 106.50273309 12.45887545 110.4375 8.625 C112.37814726 5.57723797 112.37814726 5.57723797 114 0 C131.16 0 148.32 0 166 0 C170.64004067 9.28008134 174.50788262 17.15676249 177 27 C177.22558594 27.88945312 177.45117188 28.77890625 177.68359375 29.6953125 C182.92604238 53.91904063 176.35128127 78.63419482 164.22265625 99.62109375 C163.87514376 100.14866933 163.52763126 100.67624491 163.16958809 101.21980762 C162.3072417 102.53235729 161.50540391 103.88513517 160.7393322 105.25610638 C158.33538273 109.04067599 156.4967385 111.56245003 152.08815384 112.85123634 C148.41033663 113.19497104 144.82329874 113.25032066 141.12939453 113.2121582 C139.72421397 113.22928521 138.31907512 113.25018428 136.91400146 113.27455139 C133.11167471 113.32823413 129.31142861 113.32486613 125.50883722 113.30772424 C122.32796325 113.2984294 119.14748548 113.31674674 115.96666801 113.33484048 C108.45839819 113.37693514 100.95115256 113.37233081 93.44287109 113.33813477 C85.71244295 113.30370358 77.98513865 113.34589161 70.2551223 113.42632419 C63.60414207 113.49292204 56.95413944 113.51268015 50.30284965 113.49509495 C46.33641411 113.48500908 42.37197975 113.49206084 38.40582657 113.54384804 C34.672866 113.5904658 30.94450612 113.57819795 27.21172333 113.5219326 C25.20122488 113.50570667 23.19051657 113.54828006 21.18045044 113.59301758 C15.64585556 113.4585051 12.33516642 113.26361976 8.21438217 109.36365318 C5.84392367 106.42139629 3.89633022 103.26687813 2 100 C1.55453386 99.30579106 1.10906773 98.61158213 0.65010262 97.89633656 C-11.92121066 77.93446016 -16.33630863 51.75875803 -11.3125 28.8125 C-8.87946395 18.46049511 -5.28705202 9.25234104 0 0 Z " fill="#FE5948" transform="translate(173,264)"/>
<path d="M0 0 C25.74 0 51.48 0 78 0 C87.22231846 22.12066596 87.22231846 22.12066596 91.15805054 31.60107422 C94.69771698 40.12303813 98.25650116 48.63486342 101.90544128 57.11070251 C103.50795024 60.8356737 105.09606975 64.56669452 106.68289185 68.29837036 C107.43135219 70.04701557 108.18703292 71.79258923 108.95016479 73.53488159 C110.01268103 75.96238047 111.04970437 78.39938523 112.08203125 80.83984375 C112.39558563 81.53791138 112.70914001 82.235979 113.03219604 82.9552002 C115.13286897 88.02067867 115.6227253 92.67756464 114 98 C111.55043322 101.09221794 108.74683741 102.7510542 105 104 C103.57850376 104.08844068 102.15320189 104.12198928 100.72895813 104.12025452 C99.42278534 104.12231651 99.42278534 104.12231651 98.09022522 104.12442017 C97.13788498 104.12082489 96.18554474 104.11722961 95.2043457 104.11352539 C94.19928986 104.11367142 93.19423401 104.11381744 92.15872192 104.1139679 C88.83105321 104.11327029 85.50344021 104.10548494 82.17578125 104.09765625 C79.8707838 104.09579153 77.56578595 104.09436788 75.26078796 104.09336853 C69.18955392 104.08954759 63.11834374 104.07972089 57.04711914 104.06866455 C50.85368167 104.05844135 44.66024035 104.05386896 38.46679688 104.04882812 C26.31118742 104.03809827 14.15559569 104.0210269 2 104 C1.66839622 102.50410088 1.66839622 102.50410088 1.33009338 100.97798157 C0.48899933 97.18440462 -0.35281078 93.39098684 -1.19480896 89.59761047 C-1.55524619 87.97332343 -1.91550355 86.34899646 -2.27555847 84.72462463 C-5.6459225 69.52042014 -9.10225709 54.33673548 -12.59790039 39.16088867 C-14.33888926 25.47504599 -4.61807777 11.16035462 0 0 Z " fill="#FEDB7B" transform="translate(369,384)"/>
<path d="M0 0 C-0.33 0.99 -0.66 1.98 -1 3 C-3.00390625 3.95703125 -3.00390625 3.95703125 -5.5625 4.8125 C-14.64638031 8.2594503 -20.44895995 13.38146791 -25 22 C-26.73346784 26.1034434 -27.93507135 29.8529271 -28.1875 34.3125 C-29 37 -29 37 -30.73046875 38.078125 C-32.16740084 38.73770038 -33.60891849 39.38737073 -35.0546875 40.02734375 C-38.04342352 41.52171176 -38.90531536 42.85278167 -40 46 C-39.92017775 47.66800986 -39.81349864 49.3348415 -39.6875 51 C-39.58984375 53.640625 -39.58984375 53.640625 -40 56 C-41.8449983 57.75208472 -43.69431251 58.7214651 -45.953125 59.87890625 C-49.23441398 61.67610078 -50.47150214 63.62456723 -52 67 C-52.77502608 71.94886443 -52.58506633 75.75965939 -50.4375 80.3125 C-48.10094934 83.23533991 -48.10094934 83.23533991 -44.39038086 84.6940918 C-41.59500264 86.67729531 -41.05942206 87.69961122 -40.38381958 91.11489868 C-40.18711198 95.28793144 -40.21270649 99.40799244 -40.31640625 103.58203125 C-40.32947013 105.12185921 -40.33943058 106.66171635 -40.34642029 108.20158386 C-40.3730852 112.24491406 -40.44178951 116.28647006 -40.51934814 120.32910156 C-40.59109397 124.45808918 -40.62295571 128.58736494 -40.65820312 132.71679688 C-40.73316598 140.81201007 -40.85255628 148.90578404 -41 157 C-41.51908936 157.2266333 -42.03817871 157.4532666 -42.57299805 157.68676758 C-44.94604285 158.72518975 -47.31677393 159.76879562 -49.6875 160.8125 C-50.50412109 161.16892578 -51.32074219 161.52535156 -52.16210938 161.89257812 C-55.54435472 163.38514793 -58.762239 164.85564582 -61.92700195 166.77709961 C-64 168 -64 168 -66.48046875 167.75390625 C-67.31191406 167.50511719 -68.14335937 167.25632813 -69 167 C-70.32451172 166.73509766 -70.32451172 166.73509766 -71.67578125 166.46484375 C-74.1171875 165.9765625 -76.55859375 165.48828125 -79 165 C-78.96519531 163.73285156 -78.93039063 162.46570313 -78.89453125 161.16015625 C-78.86636763 159.46095089 -78.83907025 157.76173102 -78.8125 156.0625 C-78.78736328 155.23169922 -78.76222656 154.40089844 -78.73632812 153.54492188 C-78.65947158 146.9608782 -79.39568777 140.37942678 -83.53189087 135.01217651 C-85.68020266 130.60440178 -85.4395157 126.54567707 -85.43237305 121.7019043 C-85.44766052 120.14999138 -85.44766052 120.14999138 -85.46325684 118.56672668 C-85.49341202 115.15250246 -85.50265687 111.73855871 -85.51171875 108.32421875 C-85.52856352 105.95480922 -85.54671348 103.58540864 -85.56611633 101.21601868 C-85.61364415 94.98374222 -85.64343572 88.75150205 -85.66955566 82.519104 C-85.69934699 76.15784541 -85.74588227 69.79671184 -85.79101562 63.43554688 C-85.87708052 50.95709661 -85.9444118 38.47862064 -86 26 C-87.65614657 25.61781233 -89.32457024 25.28604898 -91 25 C-92.57073532 26.57073532 -92.16369307 28.15362218 -92.20532227 30.33618164 C-92.22526749 31.2570607 -92.24521271 32.17793976 -92.26576233 33.12672424 C-92.29083107 34.62827309 -92.29083107 34.62827309 -92.31640625 36.16015625 C-92.33718735 37.17975937 -92.35796844 38.19936249 -92.37937927 39.24986267 C-92.44498852 42.52067048 -92.50381234 45.79156137 -92.5625 49.0625 C-92.60567442 51.27409728 -92.64928834 53.48568603 -92.69335938 55.69726562 C-92.80068145 61.13142436 -92.90191645 66.56566698 -93 72 C-97.29 72 -101.58 72 -106 72 C-106.680625 70.22625 -107.36125 68.4525 -108.0625 66.625 C-112.84516014 55.27450854 -119.76369045 47.850028 -129 40 C-125.02406597 35.64764618 -120.73191473 32.70467475 -115.6875 29.6875 C-114.89061768 29.20821045 -114.09373535 28.7289209 -113.27270508 28.23510742 C-91.49166801 15.29444364 -68.81367965 7.10103874 -44 2 C-42.71351563 1.731875 -41.42703125 1.46375 -40.1015625 1.1875 C-26.97106102 -1.01622053 -13.2744296 -0.17380158 0 0 Z " fill="#34ACFE" transform="translate(265,56)"/>
<path d="M0 0 C8.83373611 5.23137296 14.34411252 12.61150689 18.140625 22.01953125 C19.03961799 24.25187984 19.03961799 24.25187984 21 27 C23.76276177 26.47731534 26.3260876 25.89130413 29 25 C38.29495782 23.85085811 45.27044981 25.73899113 53 31 C58.87404112 36.15540843 62.70736928 41.69549648 63.2421875 49.5625 C63.49894109 59.54640629 63.49894109 59.54640629 61.91796875 64.15234375 C60.91162032 67.27416506 61.08711236 68.89618201 62 72 C63.04800781 72.03738281 64.09601563 72.07476562 65.17578125 72.11328125 C66.55472305 72.17894515 67.93362771 72.24539235 69.3125 72.3125 C70.00279297 72.33505859 70.69308594 72.35761719 71.40429688 72.38085938 C76.50905792 72.65212687 76.50905792 72.65212687 78.95703125 74.38671875 C80.47214468 76.73032117 80.40944943 78.27033712 80 81 C78.96459961 82.62915039 78.96459961 82.62915039 77 84 C74.31862319 84.31043572 71.87388207 84.44427069 69.19140625 84.43359375 C68.42827621 84.4388356 67.66514618 84.44407745 66.87889099 84.44947815 C65.26587134 84.45589754 63.65280486 84.45456236 62.03979492 84.44604492 C59.5745074 84.43754142 57.11154251 84.46628257 54.64648438 84.49804688 C53.07812569 84.49965921 51.50976292 84.49908074 49.94140625 84.49609375 C49.20588028 84.50732773 48.47035431 84.51856171 47.71253967 84.53013611 C44.21552963 84.48264324 42.33510292 84.25644352 39.52148438 82.10327148 C37.72941641 79.62595032 37.63792671 78.62073287 37.9375 75.625 C38.12959932 71.3063226 37.49737404 68.65686913 35 65 C30.05831098 61.90222479 24.49702228 62.59232289 18.9375 63.5 C18.298125 63.665 17.65875 63.83 17 64 C13.11270037 59.82826381 10.31003518 55.85542814 7.625 50.8125 C5.00624226 46.2037171 2.99050695 43.37144011 -2.03125 41.48828125 C-7.23922354 40.19662115 -10.64155457 40.53007526 -15.25 43.1875 C-18.49542148 45.45174754 -20.64062557 47.17675942 -22 51 C-22.69183639 56.89049271 -22.64741541 62.09878554 -19 67 C-17.13122773 68.38761711 -15.21565603 69.55539046 -13.1953125 70.7109375 C-8.51741477 73.45774578 -3.51605783 76.82400517 0 81 C0 81.99 0 82.98 0 84 C-12.07384494 84.06943244 -24.14764258 84.12277691 -36.22164631 84.15543652 C-41.82776745 84.17110947 -47.43375226 84.19237755 -53.03979492 84.22631836 C-58.44735751 84.25885356 -63.85478875 84.27684073 -69.26244164 84.28463173 C-71.32817847 84.29018574 -73.39390791 84.30103101 -75.459589 84.31719017 C-78.34732365 84.33888675 -81.23451175 84.34197018 -84.12231445 84.34057617 C-84.98114731 84.351362 -85.83998016 84.36214783 -86.72483826 84.3732605 C-92.56873555 84.34262364 -92.56873555 84.34262364 -94.7197752 82.63370228 C-96 81 -96 81 -96.375 78.5 C-96 76 -96 76 -94.9375 74.25 C-92.11575122 72.42951691 -89.29485361 72.36609485 -86 72 C-84.35040663 70.35040663 -84.79784938 68.27004429 -84.6875 66 C-83.86884082 56.55487248 -80.06046384 49.35303034 -73 43 C-68.92738447 40.15998138 -64.79647442 38.10007817 -60 36.8125 C-59.01 36.544375 -58.02 36.27625 -57 36 C-55.66425132 33.32850263 -55.55549433 30.83958986 -55.1875 27.875 C-53.63433504 17.70679777 -49.57110639 11.01364479 -42 4 C-28.84401483 -5.52184729 -14.91193293 -6.55660864 0 0 Z " fill="#FDFDFD" transform="translate(328,28)"/>
<path d="M0 0 C9.24 0 18.48 0 28 0 C28.99 2.31 29.98 4.62 31 7 C33.58079931 9.12441886 33.58079931 9.12441886 37 10 C38.94604126 9.6752771 38.94604126 9.6752771 40.93139648 9.34399414 C46.60714439 9.30615056 49.66778158 12.66764504 53.472785 16.4084177 C55.15513691 18.11045944 56.81386774 19.83360424 58.47265625 21.55859375 C59.64615961 22.74635796 60.82160128 23.93220998 61.99888611 25.1162262 C65.08204468 28.22798333 68.13680347 31.36624634 71.18676758 34.51049805 C74.30645276 37.71545381 77.45486395 40.89193345 80.59960938 44.07226562 C85.1725693 48.70861002 89.7392316 53.35099465 94.27758789 58.02124023 C95.19198135 58.96055893 96.10637482 59.89987762 97.04847717 60.86766052 C99 63 99 63 99 64 C98.02160156 64.09796875 97.04320312 64.1959375 96.03515625 64.296875 C88.44939266 65.16211451 81.69432973 66.11626672 75 70 C74.24203125 70.433125 73.4840625 70.86625 72.703125 71.3125 C63.03062228 77.28478356 57.08364387 85.41530435 53 96 C52.79145034 97.76639053 52.62154121 99.53799832 52.5 101.3125 C52.14453125 103.74609375 52.14453125 103.74609375 51 106 C47.60796958 108.26280134 44.23325356 109.87517624 40.48046875 111.4296875 C37.14210002 112.93588754 34.73569087 114.59259203 32 117 C28.45971359 115.42099902 25.66514556 113.26547062 22.625 110.875 C12.45720051 103.09106892 1.89871359 97.95779733 -10 93 C-10 69.9 -10 46.8 -10 23 C-8.02 22.01 -6.04 21.02 -4 20 C-0.31012681 15.9112216 1.14103558 13.52261397 1.125 8.0625 C1.12757813 7.18722656 1.13015625 6.31195313 1.1328125 5.41015625 C1.09822003 2.85540944 1.09822003 2.85540944 0 0 Z " fill="#34ACFE" transform="translate(298,120)"/>
<path d="M0 0 C15.84 0 31.68 0 48 0 C48.33 24.42 48.66 48.84 49 74 C51.97 75.32 54.94 76.64 58 78 C74.68326999 85.92455324 89.61672489 94.96008624 101 110 C101 110.66 101 111.32 101 112 C85.82 112 70.64 112 55 112 C54.01 109.69 53.02 107.38 52 105 C48.28987042 100.58795401 44.52007969 97.48512023 38.67578125 96.6796875 C32.6674492 96.40365387 27.8427618 97.30873934 23 101 C19.7520449 104.48226032 18.16118106 107.35527576 17 112 C-6.43 112 -29.86 112 -54 112 C-39.50311645 92.67082194 -22.64488991 83.27638139 -1 74 C-0.67 49.58 -0.34 25.16 0 0 Z " fill="#E8F1FE" transform="translate(232,144)"/>
<path d="M0 0 C0.66 0 1.32 0 2 0 C3.04755745 1.14576596 4.03809717 2.3439356 5 3.5625 C11.8647227 11.57607091 19.96750801 16.01909983 30 19 C30.60199219 19.19207031 31.20398438 19.38414062 31.82421875 19.58203125 C45.34762756 22.17988537 57.9114095 19.06850471 70 13 C78.20244514 9.68904623 86.8534794 8.07685834 95.32421875 11.2421875 C104.26361329 15.57709293 104.26361329 15.57709293 107 19 C107.36076355 21.25895691 107.36076355 21.25895691 107.34057617 23.93041992 C107.34034958 24.93123093 107.34012299 25.93204193 107.33988953 26.96318054 C107.32440567 28.04138565 107.30892181 29.11959076 107.29296875 30.23046875 C107.28872391 31.33602615 107.28447906 32.44158356 107.28010559 33.5806427 C107.26329437 37.11650812 107.22563685 40.65180645 107.1875 44.1875 C107.17245636 46.58267407 107.1587674 48.97785706 107.14648438 51.37304688 C107.11338285 57.24889185 107.06315893 63.12440542 107 69 C87.62464944 69.07002658 68.2493245 69.12295698 48.87387371 69.15543652 C39.87786826 69.17091699 30.88194136 69.19202899 21.88598633 69.22631836 C14.04671563 69.25618466 6.20750181 69.27556641 -1.6318242 69.28226548 C-5.78416017 69.28618246 -9.93633342 69.29541223 -14.08861732 69.31719017 C-17.99475963 69.33751168 -21.90067174 69.34384266 -25.80686188 69.33932304 C-27.24240303 69.3401502 -28.67795166 69.34614176 -30.11344719 69.35761642 C-32.06978194 69.37249087 -34.02623946 69.36717784 -35.98262024 69.36076355 C-37.0786321 69.36352893 -38.17464396 69.36629431 -39.30386829 69.36914349 C-42 69 -42 69 -43.85264874 67.63370228 C-45.49661727 65.29287151 -45.41907981 63.79386539 -45 61 C-43.9375 59.25 -43.9375 59.25 -42 58 C-39.67724823 57.59952556 -37.34260643 57.2602896 -35 57 C-33.35040663 55.35040663 -33.79784938 53.27004429 -33.6875 51 C-32.86087238 41.4629381 -28.99384996 34.50590694 -22 28 C-17.74243983 24.77487359 -12.87971414 23.14825226 -7.8203125 21.61328125 C-6.00300796 21.15111973 -6.00300796 21.15111973 -5 20 C-4.49657464 16.54467142 -4.09818844 13.08167688 -3.6953125 9.61328125 C-2.98944934 5.94517214 -1.82216436 3.24106284 0 0 Z " fill="#FEFEFE" transform="translate(65,171)"/>
<path d="M0 0 C15.18 0 30.36 0 46 0 C45.06767582 4.66162089 44.32272167 6.37777495 41.75 10.125 C27.46517616 32.0478317 23.45461376 59.58279425 28.125 85.1875 C31.31507015 98.20119739 36.35773508 112.54897186 44.70703125 123.171875 C46 125 46 125 46 128 C40.06 128.33 34.12 128.66 28 129 C27.67 130.65 27.34 132.3 27 134 C29.40370085 136.40370085 33.62144496 135.624605 37 136 C34.03 150.52 31.06 165.04 28 180 C19.02055382 176.40822153 10.96184769 170.49499087 3.67475891 164.1569519 C1.08024422 161.93527774 1.08024422 161.93527774 -1.85066223 160.43606567 C-6.51254903 157.42171468 -9.39777645 154.70272066 -10.6109581 149.25807953 C-11.51828498 141.1785296 -11.29831838 133.05198978 -11.11533332 124.9372077 C-11.04614714 121.34867622 -11.04007494 117.76002447 -11.02705383 114.17092896 C-10.99298483 107.38815901 -10.90289113 100.60736018 -10.79220945 93.82545483 C-10.66887315 86.0989266 -10.60868255 78.3722997 -10.55355966 70.64503074 C-10.43885605 54.76221575 -10.24562125 38.88136292 -10 23 C-9.05769531 22.55785156 -8.11539063 22.11570312 -7.14453125 21.66015625 C-3.16539132 19.55936809 -1.00072262 17.00144525 1 13 C1.09585131 11.35643193 1.12983511 9.70885358 1.125 8.0625 C1.12757812 7.18722656 1.13015625 6.31195313 1.1328125 5.41015625 C1.09822003 2.85540944 1.09822003 2.85540944 0 0 Z " fill="#34ACFE" transform="translate(126,248)"/>
<path d="M0 0 C2.18600615 1.60010801 4.11232328 3.30023304 6.05859375 5.18359375 C7.99561288 6.99589536 9.98827714 8.3992598 12.1875 9.875 C16.62579129 13.12974695 18.69225649 17.09604504 21 22 C21.598125 23.175625 22.19625 24.35125 22.8125 25.5625 C23.4003125 26.7690625 23.4003125 26.7690625 24 28 C26.76276177 27.47731534 29.3260876 26.89130413 32 26 C41.29495782 24.85085811 48.27044981 26.73899113 56 32 C61.87404112 37.15540843 65.70736928 42.69549648 66.2421875 50.5625 C66.49894109 60.54640629 66.49894109 60.54640629 64.91796875 65.15234375 C63.91162032 68.27416506 64.08711236 69.89618201 65 73 C66.04800781 73.03738281 67.09601563 73.07476562 68.17578125 73.11328125 C69.55472305 73.17894515 70.93362771 73.24539235 72.3125 73.3125 C73.00279297 73.33505859 73.69308594 73.35761719 74.40429688 73.38085938 C79.50905792 73.65212687 79.50905792 73.65212687 81.95703125 75.38671875 C83.47214468 77.73032117 83.40944943 79.27033712 83 82 C81.37086861 84.18142487 80.49376194 84.91979655 77.77900696 85.36076355 C76.91518906 85.35410172 76.05137115 85.34743988 75.16137695 85.34057617 C74.1805867 85.34034958 73.19979645 85.34012299 72.18928528 85.33988953 C71.13295395 85.32440567 70.07662262 85.30892181 68.98828125 85.29296875 C67.90491989 85.28872391 66.82155853 85.28447906 65.70536804 85.28010559 C62.24082723 85.26329569 58.77686538 85.22563848 55.3125 85.1875 C52.96550318 85.17245619 50.61849726 85.15876726 48.27148438 85.14648438 C42.51412495 85.11338461 36.75710383 85.06316205 31 85 C31.99 84.34 32.98 83.68 34 83 C39.96076323 78.43484568 39.96076323 78.43484568 42.3359375 71.6328125 C42.42531743 65.89462069 42.01244424 62.43480679 38 58 C33.65725904 54.6128948 30.84843455 53.49774152 25.35546875 53.48242188 C24.05391846 53.46981323 22.75236816 53.45720459 21.41137695 53.44421387 C20.00341242 53.45137413 18.59545287 53.45957822 17.1875 53.46875 C15.73071026 53.46605236 14.27392228 53.46216767 12.81713867 53.45715332 C9.77082091 53.45127096 6.72497378 53.4597797 3.67871094 53.47851562 C-0.21527063 53.5013053 -4.1081493 53.4881753 -8.00209045 53.46422577 C-11.0082624 53.44973308 -14.01417524 53.45438947 -17.02035522 53.46473694 C-18.45559827 53.46739468 -19.89086527 53.46416809 -21.32608032 53.45481873 C-23.33587154 53.44459785 -25.34574585 53.46295288 -27.35546875 53.48242188 C-28.49653076 53.48560425 -29.63759277 53.48878662 -30.81323242 53.49206543 C-35.89311867 54.30174162 -38.98531455 56.87850556 -42.375 60.625 C-44.57907893 65.20270239 -44.7971639 69.00552411 -44 74 C-41.62431278 78.93411962 -38.60849041 81.17206271 -34 84 C-34 84.33 -34 84.66 -34 85 C-40.6 85 -47.2 85 -54 85 C-55.546875 81.349375 -55.546875 81.349375 -57.125 77.625 C-61.5546944 67.40779111 -66.9476944 58.63803112 -74 50 C-71.31791874 44.16037763 -66.77177053 41.53957903 -61 39 C-59.741875 38.649375 -58.48375 38.29875 -57.1875 37.9375 C-56.135625 37.628125 -55.08375 37.31875 -54 37 C-52.66425132 34.32850263 -52.55549433 31.83958986 -52.1875 28.875 C-50.63433504 18.70679777 -46.57110639 12.01364479 -39 5 C-27.49729892 -3.32525742 -13.28537885 -6.49405782 0 0 Z " fill="#FDFDFD" transform="translate(409,195)"/>
<path d="M0 0 C8.33883893 6.60158082 14.46675435 17.13891772 16.09375 27.66015625 C17.01216629 42.12521288 14.04838354 53.51141066 4.90625 64.84765625 C-2.69300627 73.08564311 -13.55257964 77.9015671 -24.6171875 79.04296875 C-37.68492198 79.44056716 -49.22173099 75.4269163 -59.09765625 66.73046875 C-68.25699743 57.24090464 -72.19685016 45.85534192 -72.22314453 32.93896484 C-72.10679159 26.56828225 -70.75654342 21.38738134 -67.90625 15.66015625 C-67.48214844 14.79777344 -67.05804688 13.93539062 -66.62109375 13.046875 C-60.25821693 1.36683093 -50.42702129 -4.84703236 -37.96484375 -8.984375 C-23.96206654 -11.40231186 -11.4737739 -8.0645583 0 0 Z " fill="#8CA0AB" transform="translate(135.90625,105.33984375)"/>
<path d="M0 0 C15.84 0 31.68 0 48 0 C48.16043524 26.84170651 48.16043524 26.84170651 48.1953125 38.30664062 C48.21919914 46.12161152 48.2474202 53.93639447 48.30175781 61.7512207 C48.34530354 68.05359008 48.36915588 74.35575783 48.37950897 80.65826607 C48.38688459 83.05956762 48.40128741 85.46085847 48.42292023 87.8620739 C48.45206923 91.23242691 48.45595106 94.60195279 48.45410156 97.97241211 C48.47567322 99.45272163 48.47567322 99.45272163 48.49768066 100.9629364 C48.45277432 108.55408182 46.79279782 114.67403169 41.8515625 120.55859375 C34.91789329 126.40963742 29.88200667 128.53587027 20.73828125 128.30078125 C12.99703891 127.45045934 8.67174913 123.0601793 3.6640625 117.4140625 C-0.47773341 111.40554167 -0.27764279 105.33241633 -0.22705078 98.31298828 C-0.22734283 97.24897293 -0.22763489 96.18495758 -0.22793579 95.08869934 C-0.22654586 91.58248656 -0.21100026 88.07648802 -0.1953125 84.5703125 C-0.19158118 82.13508215 -0.18873477 79.6998503 -0.18673706 77.26461792 C-0.17911001 70.86295407 -0.15946937 64.46138133 -0.1373291 58.05975342 C-0.11324868 50.37464277 -0.10408528 42.68950161 -0.09242249 35.00436401 C-0.07304456 23.33617936 -0.03471529 11.66819452 0 0 Z " fill="#36C7E2" transform="translate(60,360)"/>
<path d="M0 0 C15.84 0 31.68 0 48 0 C48.03738281 4.55296875 48.07476562 9.1059375 48.11328125 13.796875 C48.14360522 16.70446284 48.17478176 19.61199273 48.20898438 22.51953125 C48.26303244 27.1208989 48.31415069 31.72215193 48.34643555 36.32373047 C48.37270311 40.03924677 48.41326471 43.75437159 48.46318626 47.46964264 C48.4796983 48.87754648 48.49130899 50.28551778 48.49761391 51.69350433 C48.5588586 64.12872719 50.68771291 74.76848987 55.6875 86.125 C59 93.77640845 59 93.77640845 59 96 C35.9 96 12.8 96 -11 96 C-8.89426214 89.68278641 -6.68824325 83.60295256 -4.07421875 77.5078125 C-1.44744887 71.16089644 -0.88768409 65.05456283 -0.79467773 58.23852539 C-0.77473251 56.93770523 -0.75478729 55.63688507 -0.73423767 54.29664612 C-0.71725972 52.896984 -0.70038069 51.49732067 -0.68359375 50.09765625 C-0.6629938 48.65033923 -0.64199659 47.20302781 -0.62062073 45.75572205 C-0.56571374 41.96646698 -0.5161676 38.17716048 -0.46777344 34.38781738 C-0.40844143 29.83049712 -0.34238797 25.27326982 -0.27747345 20.71602631 C-0.1798593 13.8107415 -0.09073344 6.90539407 0 0 Z " fill="#FDFDFE" transform="translate(384,280)"/>
<path d="M0 0 C15.84 0 31.68 0 48 0 C48 26.4 48 52.8 48 80 C32.16 80 16.32 80 0 80 C0 53.6 0 27.2 0 0 Z " fill="#E8F1FE" transform="translate(60,272)"/>
<path d="M0 0 C0.88849905 3.85603227 1.76065813 7.71537735 2.6184082 11.57836914 C3.0555316 13.53136632 3.50520648 15.48154054 3.95507812 17.43164062 C4.22900391 18.67236328 4.50292969 19.91308594 4.78515625 21.19140625 C5.17006226 22.89598999 5.17006226 22.89598999 5.56274414 24.63500977 C6.52442809 32.0358416 4.04639239 38.39839379 1.4375 45.1875 C1.12748047 46.07630859 0.81746094 46.96511719 0.49804688 47.88085938 C-1.16743294 52.20201656 -2.47298499 55.20890837 -6.6875 57.3984375 C-8.11142442 57.96751199 -9.55014452 58.50067484 -11 59 C-11.72888428 59.28625244 -12.45776855 59.57250488 -13.20874023 59.86743164 C-23.63471358 63.87245652 -34.31399618 66.7236716 -45.25 68.9375 C-46.28439209 69.14882568 -47.31878418 69.36015137 -48.38452148 69.57788086 C-54.36400801 70.72055379 -59.91424782 71.20832969 -66 71 C-66.32230591 70.03271973 -66.32230591 70.03271973 -66.65112305 69.04589844 C-69.53159222 60.63610891 -74.72414013 53.27585987 -81 47 C-81.14497985 44.41935871 -81.18677545 41.95056116 -81.125 39.375 C-81.11597656 38.66859375 -81.10695313 37.9621875 -81.09765625 37.234375 C-81.07407603 35.48943902 -81.03820461 33.74467705 -81 32 C-79.14761719 31.77957031 -79.14761719 31.77957031 -77.2578125 31.5546875 C-52.74981335 28.40738551 -32.7583261 20.12865421 -14 4 C-13.41605469 3.23171875 -12.83210938 2.4634375 -12.23046875 1.671875 C-8.56793155 -1.07342434 -4.41938413 -0.30362181 0 0 Z " fill="#34ACFE" transform="translate(341,384)"/>
<path d="M0 0 C2.31 1.98 4.62 3.96 7 6 C26.32881426 21.56171357 47.33027745 29.7754086 72 32 C73.07215793 45.07011572 73.07215793 45.07011572 70.65234375 49.42578125 C69.45913089 50.69242259 68.22282724 51.91969533 66.94921875 53.10546875 C62.09237602 57.82604736 58.71281042 64.49132039 57 71 C49.81323969 71.2460198 43.28499254 70.37377215 36.25 68.9375 C35.16904053 68.7199707 34.08808105 68.50244141 32.97436523 68.27832031 C21.92671343 65.94773529 10.1599563 63.07997815 0 58 C0 38.86 0 19.72 0 0 Z " fill="#34ACFE" transform="translate(180,384)"/>
<path d="M0 0 C6.6 0 13.2 0 20 0 C20.495 36.63 20.495 36.63 21 74 C23.97 75.32 26.94 76.64 30 78 C46.68326999 85.92455324 61.61672489 94.96008624 73 110 C73 110.66 73 111.32 73 112 C68.98015717 112.23368566 64.96206913 112.3748607 60.9375 112.5 C59.80376953 112.56703125 58.67003906 112.6340625 57.50195312 112.703125 C49.18920351 112.89700837 49.18920351 112.89700837 45.82495117 110.359375 C44.07042486 108.31774439 42.53895757 106.20659166 41 104 C30.08293403 93.58260556 17.95877131 86.58916486 3.66796875 81.91015625 C1 81 1 81 0 80 C-0.09502416 77.50507612 -0.12557566 75.03793986 -0.11352539 72.54272461 C-0.11367142 71.76229294 -0.11381744 70.98186127 -0.1139679 70.17778015 C-0.11326858 67.5859402 -0.10547536 64.99417122 -0.09765625 62.40234375 C-0.09579213 60.6101536 -0.0943682 58.81796294 -0.09336853 57.02577209 C-0.08954284 52.29929203 -0.07971212 47.57284248 -0.06866455 42.84637451 C-0.05845153 38.0271445 -0.05387115 33.20790958 -0.04882812 28.38867188 C-0.03808989 18.92576565 -0.02049268 9.46289013 0 0 Z " fill="#B8D6FE" transform="translate(260,144)"/>
<path d="M0 0 C6.6 0 13.2 0 20 0 C20.09046133 14.18677216 20.1638089 28.37335194 20.20724869 42.56034756 C20.22810029 49.14833248 20.25637431 55.73610939 20.30175781 62.32397461 C20.34530105 68.68469849 20.36915537 75.04522261 20.37950897 81.40608406 C20.38688503 83.82971401 20.40128872 86.25333334 20.42292023 88.67687798 C20.45206588 92.07836184 20.4559512 95.47902607 20.45410156 98.88061523 C20.46848267 99.87683899 20.48286377 100.87306274 20.49768066 101.8994751 C20.44203939 111.39044036 17.38629961 118.08150875 11 125 C7.67611144 123.62093985 6.20287984 122.27131019 4.375 119.1875 C3.97023438 118.52105469 3.56546875 117.85460937 3.1484375 117.16796875 C0.54400838 112.25144438 -0.24303425 108.55652483 -0.1953125 102.94921875 C-0.1924826 102.29041214 -0.18965271 101.63160553 -0.18673706 100.95283508 C-0.17560924 98.86419938 -0.15051948 96.77600444 -0.125 94.6875 C-0.11496059 93.26498018 -0.10583642 91.8424536 -0.09765625 90.41992188 C-0.07569447 86.94647319 -0.04121646 83.47327967 0 80 C-1.32 79.34 -2.64 78.68 -4 78 C-3.67 76.35 -3.34 74.7 -3 73 C-1.515 72.505 -1.515 72.505 0 72 C0 69.36 0 66.72 0 64 C-1.32 63.34 -2.64 62.68 -4 62 C-3.67 60.35 -3.34 58.7 -3 57 C-1.515 56.505 -1.515 56.505 0 56 C0 53.36 0 50.72 0 48 C-1.32 47.34 -2.64 46.68 -4 46 C-3.67 44.35 -3.34 42.7 -3 41 C-1.515 40.505 -1.515 40.505 0 40 C0 37.36 0 34.72 0 32 C-1.32 31.34 -2.64 30.68 -4 30 C-3.67 28.35 -3.34 26.7 -3 25 C-2.01 24.67 -1.02 24.34 0 24 C0 21.36 0 18.72 0 16 C-1.32 15.34 -2.64 14.68 -4 14 C-3.67 12.35 -3.34 10.7 -3 9 C-2.01 8.67 -1.02 8.34 0 8 C0 5.36 0 2.72 0 0 Z " fill="#31DCF3" transform="translate(72,360)"/>
<path d="M0 0 C6.89677014 4.84737403 10.36534717 10.09604152 13 18 C13.98673099 27.72172659 11.96258278 35.57837932 5.9375 43.3125 C0.17595404 49.35599396 -6.82761185 52.23483244 -15.125 52.5625 C-23.5775999 52.14751448 -30.06345193 48.86448209 -36.203125 43.10546875 C-41.54296705 36.84856687 -43.80762659 29.78922795 -43.34375 21.625 C-42.18776853 12.79750513 -38.68587212 6.94697003 -32 1 C-22.14134579 -5.47141316 -10.14746653 -6.3003501 0 0 Z " fill="#FFF8E4" transform="translate(123,116)"/>
<path d="M0 0 C6.2203951 5.5094928 9.40133795 12.61327264 13 20 C15.76276177 19.47731534 18.3260876 18.89130413 21 18 C30.29495782 16.85085811 37.27044981 18.73899113 45 24 C50.87404112 29.15540843 54.70736928 34.69549648 55.2421875 42.5625 C55.49894109 52.54640629 55.49894109 52.54640629 53.91796875 57.15234375 C52.91162032 60.27416506 53.08711236 61.89618201 54 65 C55.04800781 65.03738281 56.09601563 65.07476562 57.17578125 65.11328125 C58.55472305 65.17894515 59.93362771 65.24539235 61.3125 65.3125 C62.00279297 65.33505859 62.69308594 65.35761719 63.40429688 65.38085938 C68.50905792 65.65212687 68.50905792 65.65212687 70.95703125 67.38671875 C72.47214468 69.73032117 72.40944943 71.27033712 72 74 C70.96459961 75.62915039 70.96459961 75.62915039 69 77 C66.31862319 77.31043572 63.87388207 77.44427069 61.19140625 77.43359375 C60.42827621 77.4388356 59.66514618 77.44407745 58.87889099 77.44947815 C57.26587134 77.45589754 55.65280486 77.45456236 54.03979492 77.44604492 C51.5745074 77.43754142 49.11154251 77.46628257 46.64648438 77.49804688 C45.07812569 77.49965921 43.50976292 77.49908074 41.94140625 77.49609375 C41.20588028 77.50732773 40.47035431 77.51856171 39.71253967 77.53013611 C36.21552963 77.48264324 34.33510292 77.25644352 31.52148438 75.10327148 C29.72941641 72.62595032 29.63792671 71.62073287 29.9375 68.625 C30.12959932 64.3063226 29.49737404 61.65686913 27 58 C24.07818746 56.16057198 21.86304152 55.74874204 18.4375 55.8125 C17.67308594 55.81894531 16.90867187 55.82539062 16.12109375 55.83203125 C13.81102284 55.92946495 13.81102284 55.92946495 11 57 C10.608125 55.7625 10.21625 54.525 9.8125 53.25 C8.32963836 49.21292693 6.42090221 47.61068853 3 45 C1.41691479 41.43805829 1.99801863 40.00531367 3.375 36.3125 C3.6534375 35.6215625 3.931875 34.930625 4.21875 34.21875 C7.61798481 24.56492315 5.54026211 14.45685934 1.3125 5.375 C0.879375 4.59125 0.44625 3.8075 0 3 C0 2.01 0 1.02 0 0 Z " fill="#E7EFFD" transform="translate(336,35)"/>
<path d="M0 0 C6.6 0 13.2 0 20 0 C20.01458252 1.90620117 20.02916504 3.81240234 20.04418945 5.77636719 C20.09611787 12.1187668 20.16147584 18.46092056 20.23571491 24.80309677 C20.28018644 28.6432861 20.31949146 32.48337499 20.34643555 36.32373047 C20.37270311 40.03924677 20.41326471 43.75437159 20.46318626 47.46964264 C20.4796983 48.87754648 20.49130899 50.28551778 20.49761391 51.69350433 C20.5588586 64.12872719 22.68771291 74.76848987 27.6875 86.125 C31 93.77640845 31 93.77640845 31 96 C24.4 96 17.8 96 11 96 C9.51356884 92.29443222 8.03565918 88.58584102 6.5625 84.875 C6.14162109 83.82828125 5.72074219 82.7815625 5.28710938 81.703125 C4.68286133 80.17558594 4.68286133 80.17558594 4.06640625 78.6171875 C3.69459229 77.68503418 3.32277832 76.75288086 2.93969727 75.79248047 C1.95599212 72.86922261 1.42704062 70.05029015 1 67 C-0.485 67.495 -0.485 67.495 -2 68 C-4.01829161 68.11904875 -6.04073771 68.17521712 -8.0625 68.1875 C-9.12597656 68.20167969 -10.18945312 68.21585937 -11.28515625 68.23046875 C-14 68 -14 68 -16 66 C-15.44444444 61.44444444 -15.44444444 61.44444444 -14 60 C-12.02287193 59.90099801 -10.04209962 59.87029227 -8.0625 59.875 C-6.44021484 59.87113281 -6.44021484 59.87113281 -4.78515625 59.8671875 C-2 60 -2 60 0 61 C0 57.7 0 54.4 0 51 C-0.99 51.495 -0.99 51.495 -2 52 C-3.9972542 52.12199138 -5.99905981 52.17547512 -8 52.1875 C-9.0725 52.20167969 -10.145 52.21585937 -11.25 52.23046875 C-14 52 -14 52 -16 50 C-15.44444444 45.44444444 -15.44444444 45.44444444 -14 44 C-12.02287193 43.90099801 -10.04209962 43.87029227 -8.0625 43.875 C-6.44021484 43.87113281 -6.44021484 43.87113281 -4.78515625 43.8671875 C-2 44 -2 44 0 45 C0 41.7 0 38.4 0 35 C-0.99 35.495 -0.99 35.495 -2 36 C-3.9972542 36.12199138 -5.99905981 36.17547512 -8 36.1875 C-9.0725 36.20167969 -10.145 36.21585937 -11.25 36.23046875 C-14 36 -14 36 -16 34 C-15.44444444 29.44444444 -15.44444444 29.44444444 -14 28 C-12.02287193 27.90099801 -10.04209962 27.87029227 -8.0625 27.875 C-6.44021484 27.87113281 -6.44021484 27.87113281 -4.78515625 27.8671875 C-2 28 -2 28 0 29 C0 25.7 0 22.4 0 19 C-0.66 19.33 -1.32 19.66 -2 20 C-3.9972542 20.12199138 -5.99905981 20.17547512 -8 20.1875 C-9.0725 20.20167969 -10.145 20.21585937 -11.25 20.23046875 C-14 20 -14 20 -16 18 C-15.44444444 13.44444444 -15.44444444 13.44444444 -14 12 C-12.02287193 11.90099801 -10.04209962 11.87029227 -8.0625 11.875 C-6.44021484 11.87113281 -6.44021484 11.87113281 -4.78515625 11.8671875 C-2 12 -2 12 0 13 C0 8.71 0 4.42 0 0 Z " fill="#B8D6FE" transform="translate(412,280)"/>
<path d="M0 0 C2.1585024 1.70622288 2.92088864 2.50463631 3.36076355 5.25895691 C3.35410172 6.1405397 3.34743988 7.0221225 3.34057617 7.93041992 C3.34023628 9.43163643 3.34023628 9.43163643 3.33988953 10.96318054 C3.32440567 12.04138565 3.30892181 13.11959076 3.29296875 14.23046875 C3.28872391 15.33602615 3.28447906 16.44158356 3.28010559 17.5806427 C3.26329437 21.11650812 3.22563685 24.65180645 3.1875 28.1875 C3.17245636 30.58267407 3.1587674 32.97785706 3.14648438 35.37304688 C3.11593301 41.24909289 3.057214 47.12391066 3 53 C-12.51 53 -28.02 53 -44 53 C-41.525 50.525 -41.525 50.525 -39 48 C-34.4646077 41.99366966 -33.96735332 36.42472964 -35 29 C-36.75489383 25.49021235 -38.41043949 23.52582423 -41.3125 20.9375 C-43 19 -43 19 -42.875 16.5625 C-42 14 -42 14 -40.9375 11.75 C-39.60214484 7.83295819 -39.83920951 4.10015744 -40 0 C-26.28693943 -7.57827032 -13.45491741 -8.65410181 0 0 Z " fill="#E8F0FE" transform="translate(169,187)"/>
<path d="M0 0 C4.89293506 3.26195671 6.67597383 6.81563394 9 12 C9.5775 13.155 10.155 14.31 10.75 15.5 C11.1625 16.325 11.575 17.15 12 18 C14.76276177 17.47731534 17.3260876 16.89130413 20 16 C29.29495782 14.85085811 36.27044981 16.73899113 44 22 C49.87404112 27.15540843 53.70736928 32.69549648 54.2421875 40.5625 C54.49894109 50.54640629 54.49894109 50.54640629 52.91796875 55.15234375 C51.91162032 58.27416506 52.08711236 59.89618201 53 63 C54.04800781 63.03738281 55.09601563 63.07476562 56.17578125 63.11328125 C57.55472305 63.17894515 58.93362771 63.24539235 60.3125 63.3125 C61.00279297 63.33505859 61.69308594 63.35761719 62.40429688 63.38085938 C67.50905792 63.65212687 67.50905792 63.65212687 69.95703125 65.38671875 C71.47214468 67.73032117 71.40944943 69.27033712 71 72 C69.37086861 74.18142487 68.49376194 74.91979655 65.77900696 75.36076355 C64.91518906 75.35410172 64.05137115 75.34743988 63.16137695 75.34057617 C62.1805867 75.34034958 61.19979645 75.34012299 60.18928528 75.33988953 C59.13295395 75.32440567 58.07662262 75.30892181 56.98828125 75.29296875 C55.90491989 75.28872391 54.82155853 75.28447906 53.70536804 75.28010559 C50.24082723 75.26329569 46.77686538 75.22563848 43.3125 75.1875 C40.96550318 75.17245619 38.61849726 75.15876726 36.27148438 75.14648438 C30.51412495 75.11338461 24.75710383 75.06316205 19 75 C20.485 74.01 20.485 74.01 22 73 C27.96076323 68.43484568 27.96076323 68.43484568 30.3359375 61.6328125 C30.42531743 55.89462069 30.01244424 52.43480679 26 48 C20.92102926 43.80365528 16.94802294 43.36093023 10.625 43.25 C9.79355469 43.22035156 8.96210938 43.19070312 8.10546875 43.16015625 C6.07082173 43.08999601 4.03540909 43.04267105 2 43 C0.92580299 38.7676638 1.37592909 37.07440166 3.21875 33.1328125 C6.40587812 24.43195272 4.91826996 15.53626103 2 7 C1.45279297 5.93265625 1.45279297 5.93265625 0.89453125 4.84375 C0 3 0 3 0 0 Z " fill="#E7EFFD" transform="translate(421,205)"/>
<path d="M0 0 C7.92 0 15.84 0 24 0 C28.66686601 8.8849949 32.52448622 17.22234256 35 27 C35.22558594 27.88945312 35.45117188 28.77890625 35.68359375 29.6953125 C41.24003278 55.36989283 33.653704 81.30996235 20 103 C19.20335937 104.42119141 19.20335937 104.42119141 18.390625 105.87109375 C16.74739681 108.47829491 15.52132087 110.21943216 13 112 C8.56469283 112.72360058 4.44812282 112.54180143 0 112 C0.79664063 110.44152344 0.79664063 110.44152344 1.609375 108.8515625 C15.68284925 81.1505458 20.75181051 53.68710103 10.99707031 23.51879883 C8.51297958 16.18261323 5.44645871 9.69825456 1.3203125 3.125 C0 1 0 1 0 0 Z " fill="#E74A3A" transform="translate(315,264)"/>
<path d="M0 0 C41.58 0 83.16 0 126 0 C112.85615057 13.14384943 95.89100823 19.36588895 78 23 C77.20335937 23.19464844 76.40671875 23.38929688 75.5859375 23.58984375 C51.33456096 27.43636118 25.98955761 19.73946885 6.0546875 5.96484375 C3.96484267 4.36961737 1.92041072 2.79550596 0 1 C0 0.67 0 0.34 0 0 Z " fill="#FD5948" transform="translate(193,384)"/>
<path d="M0 0 C6.6 0 13.2 0 20 0 C21.24652344 2.98933594 22.49304688 5.97867187 23.77734375 9.05859375 C24.20803665 10.09112778 24.63872955 11.1236618 25.08247375 12.18748474 C27.27557143 17.44625207 29.46512876 22.70645857 31.64916992 27.96899414 C35.69106495 37.70189242 39.73809665 47.43070191 43.90544128 57.11070251 C45.50795024 60.8356737 47.09606975 64.56669452 48.68289185 68.29837036 C49.43135219 70.04701557 50.18703292 71.79258923 50.95016479 73.53488159 C52.01268103 75.96238047 53.04970437 78.39938523 54.08203125 80.83984375 C54.39558563 81.53791138 54.70914001 82.235979 55.03219604 82.9552002 C57.13286897 88.02067867 57.6227253 92.67756464 56 98 C53.55043322 101.09221794 50.74683741 102.7510542 47 104 C44.42734182 104.07029121 41.88358569 104.09370832 39.3125 104.0625 C38.61060547 104.05798828 37.90871094 104.05347656 37.18554688 104.04882812 C35.45699462 104.03706927 33.72848635 104.01913454 32 104 C32.433125 103.25556641 32.433125 103.25556641 32.875 102.49609375 C33.24625 101.81675781 33.6175 101.13742187 34 100.4375 C34.37125 99.77621094 34.7425 99.11492187 35.125 98.43359375 C37.2096509 92.63565845 35.78816338 87.5675309 33.609375 82.02734375 C33.34525818 81.35001694 33.08114136 80.67269012 32.809021 79.97483826 C29.20583169 70.82605786 25.37720811 61.76463595 21.5682373 52.70019531 C19.34066096 47.39807269 17.12286366 42.09186966 14.90625 36.78515625 C14.47624695 35.75584991 14.0462439 34.72654358 13.60321045 33.66604614 C8.94304247 22.49359792 4.42351222 11.26831533 0 0 Z " fill="#FEB160" transform="translate(427,384)"/>
<path d="M0 0 C4.61741609 3.8665493 9.02089627 7.86868218 13.28320312 12.12207031 C13.86794907 12.70185135 14.45269501 13.28163239 15.05516052 13.87898254 C16.96660257 15.7759574 18.87425499 17.67668028 20.78125 19.578125 C21.43907974 20.23312737 22.09690948 20.88812973 22.77467346 21.56298065 C26.25434579 25.0277251 29.73117922 28.495288 33.20556641 31.96533203 C36.77267493 35.52695785 40.34896786 39.07920811 43.92752838 42.62932205 C46.6985983 45.38166833 49.4628405 48.14079708 52.22532654 50.90175629 C53.53999247 52.21341835 54.85713162 53.52260684 56.17689514 54.82913971 C63.2163916 61.80306233 69.66897023 68.58354896 75 77 C75.76766901 78.09834758 76.54273978 79.1915937 77.328125 80.27734375 C78.62160138 82.06770435 79.91323544 83.85939726 81.203125 85.65234375 C82.88478197 87.98110983 82.88478197 87.98110983 84.75390625 89.6484375 C85.16511719 90.09445313 85.57632813 90.54046875 86 91 C85.6875 93.6875 85.6875 93.6875 85 96 C82.8125 96.7421875 82.8125 96.7421875 80 97 C77.5625 95.4453125 77.5625 95.4453125 75 93.125 C71.18795468 89.75760061 67.41383381 86.89843713 63.12036133 84.15063477 C54.44548288 78.32917635 47.37643702 70.87709879 40.07421875 63.46484375 C38.59152511 61.97467142 37.10793224 60.48539334 35.62348938 58.9969635 C31.75625134 55.11459738 27.90118844 51.22036547 24.04870605 47.32336426 C20.10043059 43.33385674 16.14052474 39.35592867 12.18164062 35.37695312 C4.44312976 27.5957983 -3.28254299 19.80203294 -11 12 C-10.06122074 10.8934059 -9.12079084 9.78821201 -8.1796875 8.68359375 C-7.39440674 7.76018188 -7.39440674 7.76018188 -6.59326172 6.81811523 C-4.4984209 4.42763415 -2.28027529 2.21320837 0 0 Z " fill="#F9FAFB" transform="translate(360,113)"/>
<path d="M0 0 C5.94 0 11.88 0 18 0 C18.09953334 7.73718599 18.17178259 15.47399194 18.21972656 23.21166992 C18.23973214 25.83901469 18.26694537 28.46631556 18.30175781 31.09350586 C18.35076332 34.88927096 18.37308051 38.68444289 18.390625 42.48046875 C18.41127014 43.63830368 18.43191528 44.79613861 18.45318604 45.98905945 C18.45656452 58.51542907 14.12328139 69.25718902 9.25 80.625 C8.81896973 81.64464844 8.38793945 82.66429687 7.94384766 83.71484375 C7.06376607 85.79568441 6.18114053 87.87545106 5.29589844 89.95410156 C3.6669935 93.7827033 2.05536493 97.61844058 0.44433594 101.45458984 C-1.0330984 104.97142328 -2.51639623 108.48576537 -4 112 C-4.66 111.67 -5.32 111.34 -6 111 C-6.63801836 108.4684134 -7.16687368 106.00160498 -7.625 103.4375 C-7.7590625 102.72658203 -7.893125 102.01566406 -8.03125 101.28320312 C-8.36191847 99.52357447 -8.68195767 97.76195452 -9 96 C-4.545 95.505 -4.545 95.505 0 95 C0.38218767 93.34385343 0.71395102 91.67542976 1 90 C-0.54950268 88.45049732 -2.09990594 88.78344807 -4.25390625 88.68359375 C-5.10791016 88.64169922 -5.96191406 88.59980469 -6.84179688 88.55664062 C-7.73962891 88.51732422 -8.63746094 88.47800781 -9.5625 88.4375 C-10.46419922 88.39431641 -11.36589844 88.35113281 -12.29492188 88.30664062 C-14.52978485 88.20021858 -16.76476308 88.09820012 -19 88 C-17.53265443 85.01294683 -15.92663475 82.14698197 -14.23339844 79.28125 C-3.90051124 61.68350373 1.19169984 44.10876824 1.125 23.6875 C1.12886719 22.51509766 1.13273437 21.34269531 1.13671875 20.13476562 C1.12913984 13.34784944 0.80041332 6.73998835 0 0 Z " fill="#34ACFE" transform="translate(358,288)"/>
<path d="M0 0 C3.96 0 7.92 0 12 0 C12 26.4 12 52.8 12 80 C8.04 81.65 4.08 83.3 0 85 C-2.60389126 86.25399862 -5.14978181 87.50614881 -7.6875 88.875 C-8.32196045 89.21668213 -8.9564209 89.55836426 -9.61010742 89.91040039 C-14.83977982 92.7924924 -19.49809293 96.06701525 -24 100 C-24.88945312 100.76957031 -25.77890625 101.53914063 -26.6953125 102.33203125 C-31.79796083 106.76207459 -31.79796083 106.76207459 -36 112 C-37.87939453 112.34057617 -37.87939453 112.34057617 -40.1328125 112.29296875 C-40.93847656 112.28330078 -41.74414062 112.27363281 -42.57421875 112.26367188 C-43.41597656 112.23853516 -44.25773438 112.21339844 -45.125 112.1875 C-46.39923828 112.16719727 -46.39923828 112.16719727 -47.69921875 112.14648438 C-49.79974837 112.11108219 -51.89995293 112.05727401 -54 112 C-40.38827913 92.52618513 -22.18390611 83.0788169 -1 74 C-0.67 49.58 -0.34 25.16 0 0 Z " fill="#FDFDFE" transform="translate(232,144)"/>
<path d="M0 0 C8.11328874 5.66345022 14.36398518 13.61747989 16.19921875 23.53515625 C17.0794337 36.17978254 14.67484584 45.56897562 6.671875 55.4140625 C0.36809427 62.28147539 -7.5261088 66.0335114 -16.78125 66.7734375 C-28.75901947 67.05063314 -37.44820949 63.50769947 -46.36328125 55.47265625 C-51.69381156 49.98847429 -55.32216215 42.19306186 -55.80078125 34.53515625 C-55.86265625 33.725625 -55.92453125 32.91609375 -55.98828125 32.08203125 C-56.44813513 21.79280058 -52.91990416 13.65614504 -46.34375 5.79296875 C-34.20347301 -7.45613916 -15.17000416 -9.08082273 0 0 Z M-41.98828125 12.72265625 C-46.93193065 18.83409684 -48.52443614 25.85185458 -48.2734375 33.6328125 C-46.92326812 41.92352197 -42.46261839 49.08802752 -35.85546875 54.19921875 C-28.98152586 58.66858846 -21.93169897 59.75981299 -13.80078125 58.53515625 C-5.09607793 55.5633326 1.05286428 51.31336697 5.44140625 43.25390625 C8.60864854 36.35150236 9.5609379 29.51469729 7.5390625 22.12109375 C4.32118853 14.01372297 -1.0155802 7.78935592 -9.00390625 4.2265625 C-21.13409182 -0.44092195 -33.27000334 3.44743676 -41.98828125 12.72265625 Z " fill="#383467" transform="translate(127.80078125,109.46484375)"/>
<path d="M0 0 C3.96 0 7.92 0 12 0 C12.29296875 6.0546875 12.29296875 6.0546875 12 8 C11.01 8.66 10.02 9.32 9 10 C9.34444881 12.47266765 9.34444881 12.47266765 10 15 C10.66 15.33 11.32 15.66 12 16 C12.29296875 22.0546875 12.29296875 22.0546875 12 24 C11.01 24.66 10.02 25.32 9 26 C9.34444881 28.47266765 9.34444881 28.47266765 10 31 C10.66 31.33 11.32 31.66 12 32 C12.29296875 38.0546875 12.29296875 38.0546875 12 40 C11.01 40.66 10.02 41.32 9 42 C9.34444881 44.47266765 9.34444881 44.47266765 10 47 C10.66 47.33 11.32 47.66 12 48 C12.29296875 54.0546875 12.29296875 54.0546875 12 56 C11.01 56.66 10.02 57.32 9 58 C9.34444881 60.47266765 9.34444881 60.47266765 10 63 C10.66 63.33 11.32 63.66 12 64 C12.29296875 70.0546875 12.29296875 70.0546875 12 72 C10.515 72.99 10.515 72.99 9 74 C9.34444881 76.47266765 9.34444881 76.47266765 10 79 C10.66 79.33 11.32 79.66 12 80 C11.99887207 80.84594727 11.99774414 81.69189453 11.99658203 82.56347656 C12.00662514 85.76242353 12.04359738 88.95971984 12.09765625 92.15820312 C12.11560331 93.53115312 12.12342418 94.90428044 12.12011719 96.27734375 C12.10512372 106.53287564 13.34829584 116.06683327 20.72070312 123.80639648 C22.48756404 125.32414874 22.48756404 125.32414874 25 127 C25 127.33 25 127.66 25 128 C19.03174151 128.49735487 14.91789674 127.49945214 10 124 C4.62365371 119.0029374 0.41445937 114.32189923 -0.17798233 106.71460342 C-0.24605643 103.91202787 -0.24725567 101.11633118 -0.22705078 98.31298828 C-0.22734283 97.24897293 -0.22763489 96.18495758 -0.22793579 95.08869934 C-0.22654586 91.58248656 -0.21100026 88.07648802 -0.1953125 84.5703125 C-0.19158118 82.13508215 -0.18873477 79.6998503 -0.18673706 77.26461792 C-0.17911001 70.86295407 -0.15946937 64.46138133 -0.1373291 58.05975342 C-0.11685076 51.52422315 -0.10773108 44.98867812 -0.09765625 38.453125 C-0.0762227 25.63537669 -0.04209784 12.81769593 0 0 Z " fill="#ABF2FD" transform="translate(60,360)"/>
<path d="M0 0 C5.28 0 10.56 0 16 0 C16 26.4 16 52.8 16 80 C10.72 80 5.44 80 0 80 C0 53.6 0 27.2 0 0 Z " fill="#B9D7FF" transform="translate(92,272)"/>
<path d="M0 0 C5.28 0 10.56 0 16 0 C14.700625 2.2584375 14.700625 2.2584375 13.375 4.5625 C0.26781048 28.76752216 -4.63402272 56.10872447 3 83 C6.29075938 93.10881772 11.10098374 102.59330902 16 112 C13.76953125 112.31640625 13.76953125 112.31640625 11 112 C-6.10319045 95.5109277 -12.67640263 69.07835928 -13.375 46.25 C-13.35944673 30.31178252 -8.45364772 13.46321674 0 0 Z " fill="#FDC5BF" transform="translate(173,264)"/>
<path d="M0 0 C6.89677014 4.84737403 10.36534717 10.09604152 13 18 C13.98673099 27.72172659 11.96258278 35.57837932 5.9375 43.3125 C0.17595404 49.35599396 -6.82761185 52.23483244 -15.125 52.5625 C-23.5775999 52.14751448 -30.06345193 48.86448209 -36.203125 43.10546875 C-41.54296705 36.84856687 -43.80762659 29.78922795 -43.34375 21.625 C-42.18776853 12.79750513 -38.68587212 6.94697003 -32 1 C-22.14134579 -5.47141316 -10.14746653 -6.3003501 0 0 Z M-31.4375 12.0625 C-35.07550555 17.22708009 -35.67437103 21.81337878 -35 28 C-33.33381658 34.46309363 -30.3431308 38.14678102 -24.90234375 41.90625 C-20.41485582 44.48632519 -16.02873545 44.56315492 -11 44 C-4.65011308 42.20189286 -0.62353572 39.49020564 3 34 C5.53655308 28.56452912 6.12767671 22.57524776 4.3125 16.8203125 C1.65016777 10.94099548 -1.91255444 7.44080793 -7.8125 4.6875 C-17.48685392 2.60087465 -25.18281664 3.97608794 -31.4375 12.0625 Z " fill="#FAD87B" transform="translate(123,116)"/>
<path d="M0 0 C1.34850966 0.00171254 2.69702264 0.00164396 4.04553223 -0.00012207 C6.86678071 0.00152842 9.68723193 0.02017387 12.50830078 0.05175781 C16.11646157 0.09143588 19.72357924 0.09580167 23.33191681 0.08829498 C26.11502564 0.08521887 28.89790191 0.09736833 31.68095398 0.11442566 C33.65564626 0.12483213 35.63038286 0.1253027 37.60510254 0.12561035 C38.80985229 0.14152222 40.01460205 0.15743408 41.25585938 0.17382812 C42.84207092 0.18645691 42.84207092 0.18645691 44.46032715 0.19934082 C47.76530306 0.65141216 49.6672448 1.63267651 52.34375 3.59375 C53.74832737 6.40290474 53.59270157 8.48185534 53.34375 11.59375 C51.56390595 14.7296657 50.82066793 15.43477736 47.34375 16.59375 C45.39238478 16.70738041 43.43743767 16.76295063 41.48291016 16.78662109 C39.67555893 16.81071548 39.67555893 16.81071548 37.83169556 16.83529663 C32.33115857 16.87971854 26.83075176 16.92123295 21.33007812 16.94384766 C18.4257869 16.95719436 15.52219708 16.98506326 12.61816406 17.02587891 C9.10681548 17.0752245 5.59610357 17.09997009 2.08442307 17.10707474 C0.10069895 17.11703493 -1.88285533 17.15127084 -3.86630249 17.18588257 C-13.88239165 17.16231412 -13.88239165 17.16231412 -16.97509766 14.24853516 C-19.06403107 10.94980411 -19.45425877 9.42419211 -18.65625 5.59375 C-14.24329514 -1.34527636 -7.53598437 -0.09557055 0 0 Z " fill="#E9F2FF" transform="translate(390.65625,255.40625)"/>
<path d="M0 0 C1.34850966 0.00171254 2.69702264 0.00164396 4.04553223 -0.00012207 C6.86678071 0.00152842 9.68723193 0.02017387 12.50830078 0.05175781 C16.11646157 0.09143588 19.72357924 0.09580167 23.33191681 0.08829498 C26.11502564 0.08521887 28.89790191 0.09736833 31.68095398 0.11442566 C33.65564626 0.12483213 35.63038286 0.1253027 37.60510254 0.12561035 C38.80985229 0.14152222 40.01460205 0.15743408 41.25585938 0.17382812 C42.84207092 0.18645691 42.84207092 0.18645691 44.46032715 0.19934082 C47.76530306 0.65141216 49.6672448 1.63267651 52.34375 3.59375 C53.74832737 6.40290474 53.59270157 8.48185534 53.34375 11.59375 C51.56390595 14.7296657 50.82066793 15.43477736 47.34375 16.59375 C45.39238478 16.70738041 43.43743767 16.76295063 41.48291016 16.78662109 C39.67555893 16.81071548 39.67555893 16.81071548 37.83169556 16.83529663 C32.33115857 16.87971854 26.83075176 16.92123295 21.33007812 16.94384766 C18.4257869 16.95719436 15.52219708 16.98506326 12.61816406 17.02587891 C9.10681548 17.0752245 5.59610357 17.09997009 2.08442307 17.10707474 C0.10069895 17.11703493 -1.88285533 17.15127084 -3.86630249 17.18588257 C-13.88239165 17.16231412 -13.88239165 17.16231412 -16.97509766 14.24853516 C-19.06403107 10.94980411 -19.45425877 9.42419211 -18.65625 5.59375 C-14.24329514 -1.34527636 -7.53598437 -0.09557055 0 0 Z " fill="#E9F2FF" transform="translate(66.65625,247.40625)"/>
<path d="M0 0 C1.34850966 0.00171254 2.69702264 0.00164396 4.04553223 -0.00012207 C6.86678071 0.00152842 9.68723193 0.02017387 12.50830078 0.05175781 C16.11646157 0.09143588 19.72357924 0.09580167 23.33191681 0.08829498 C26.11502564 0.08521887 28.89790191 0.09736833 31.68095398 0.11442566 C33.65564626 0.12483213 35.63038286 0.1253027 37.60510254 0.12561035 C38.80985229 0.14152222 40.01460205 0.15743408 41.25585938 0.17382812 C42.84207092 0.18645691 42.84207092 0.18645691 44.46032715 0.19934082 C47.76530306 0.65141216 49.6672448 1.63267651 52.34375 3.59375 C53.74832737 6.40290474 53.59270157 8.48185534 53.34375 11.59375 C51.56390595 14.7296657 50.82066793 15.43477736 47.34375 16.59375 C45.39238478 16.70738041 43.43743767 16.76295063 41.48291016 16.78662109 C39.67555893 16.81071548 39.67555893 16.81071548 37.83169556 16.83529663 C32.33115857 16.87971854 26.83075176 16.92123295 21.33007812 16.94384766 C18.4257869 16.95719436 15.52219708 16.98506326 12.61816406 17.02587891 C9.10681548 17.0752245 5.59610357 17.09997009 2.08442307 17.10707474 C0.10069895 17.11703493 -1.88285533 17.15127084 -3.86630249 17.18588257 C-13.88239165 17.16231412 -13.88239165 17.16231412 -16.97509766 14.24853516 C-19.06403107 10.94980411 -19.45425877 9.42419211 -18.65625 5.59375 C-14.24329514 -1.34527636 -7.53598437 -0.09557055 0 0 Z " fill="#E9F2FF" transform="translate(238.65625,119.40625)"/>
<path d="M0 0 C21.8003881 -1.60751586 21.8003881 -1.60751586 28.2421875 1.62890625 C30.60157241 4.25984301 32.24296329 6.93250675 34 10 C34.90056221 11.24875255 35.81851989 12.48507452 36.75 13.7109375 C47.19227306 27.56706304 55.99014514 42.67444487 62.8125 58.625 C63.15635742 59.42470215 63.50021484 60.2244043 63.85449219 61.04833984 C66.1280654 66.61580381 66.1280654 66.61580381 65 70 C64.50262833 69.21800232 64.00525665 68.43600464 63.49281311 67.63031006 C57.49957112 58.56001712 50.61869125 51.10501544 42.87109375 43.515625 C41.62746768 42.2820293 40.38481478 41.04745182 39.14308167 39.81195068 C35.91158996 36.60115377 32.66866398 33.40217793 29.42254639 30.20617676 C24.19357431 25.05325252 18.98393646 19.88075512 13.77174568 14.71086884 C11.95327916 12.91011863 10.13069042 11.1136296 8.30723572 9.31793213 C7.20404827 8.22794891 6.10090163 7.1379244 4.99780273 6.04785156 C4.48830078 5.54822906 3.97879883 5.04860657 3.45385742 4.53384399 C2.28355091 3.37479129 1.13867997 2.19013798 0 1 C0 0.67 0 0.34 0 0 Z " fill="#34AAFB" transform="translate(379,120)"/>
<path d="M0 0 C0.33 0 0.66 0 1 0 C4.17048145 14.15672638 7.30944256 28.32017413 10.375 42.5 C10.63748535 43.70366211 10.8999707 44.90732422 11.17041016 46.14746094 C11.41065918 47.26411133 11.6509082 48.38076172 11.8984375 49.53125 C12.11161621 50.51673828 12.32479492 51.50222656 12.54443359 52.51757812 C13 55 13 55 13 58 C9.45861382 58.11681812 5.9177276 58.187455 2.375 58.25 C1.37597656 58.28351563 0.37695312 58.31703125 -0.65234375 58.3515625 C-6.78550862 58.43279647 -10.36540857 58.15385585 -15 54 C-17.26392589 50.71365597 -18.05677358 48.90105858 -17.80493164 44.90405273 C-16.81233297 40.08978361 -15.10492178 35.85736718 -13.18359375 31.34765625 C-12.80767593 30.44752304 -12.43175812 29.54738983 -12.04444885 28.61997986 C-10.84975892 25.76421725 -9.64382867 22.9133629 -8.4375 20.0625 C-7.62229841 18.11945447 -6.80783723 16.17609813 -5.99414062 14.23242188 C-4.00464658 9.48464049 -2.00506245 4.74122639 0 0 Z " fill="#FBF5E3" transform="translate(350,430)"/>
<path d="M0 0 C4.61741609 3.8665493 9.02089627 7.86868218 13.28320312 12.12207031 C13.86794907 12.70185135 14.45269501 13.28163239 15.05516052 13.87898254 C16.96660257 15.7759574 18.87425499 17.67668028 20.78125 19.578125 C21.43907974 20.23312737 22.09690948 20.88812973 22.77467346 21.56298065 C26.25434579 25.0277251 29.73117922 28.495288 33.20556641 31.96533203 C36.77267493 35.52695785 40.34896786 39.07920811 43.92752838 42.62932205 C46.6985983 45.38166833 49.4628405 48.14079708 52.22532654 50.90175629 C53.53999247 52.21341835 54.85713162 53.52260684 56.17689514 54.82913971 C63.2163916 61.80306233 69.66897023 68.58354896 75 77 C75.76766901 78.09834758 76.54273978 79.1915937 77.328125 80.27734375 C78.62160138 82.06770435 79.91323544 83.85939726 81.203125 85.65234375 C82.87106718 87.9790466 82.87106718 87.9790466 84.734375 89.56640625 C86 91 86 91 86 95 C82.81036694 93.59186573 80.6719266 91.91953332 78.21612549 89.45663452 C77.47859543 88.72185379 76.74106537 87.98707306 75.98118591 87.23002625 C75.18205276 86.42370255 74.38291962 85.61737885 73.55957031 84.78662109 C72.2858532 83.51334206 72.2858532 83.51334206 70.98640442 82.21434021 C68.66282881 79.88961079 66.34374874 77.56050655 64.02659321 75.22938108 C61.60250865 72.79278611 59.17275152 70.36186129 56.74359131 67.93032837 C52.14625257 63.32677578 47.55403547 58.71814913 42.96363807 54.10767615 C37.73664207 48.8583182 32.50395957 43.61464448 27.27079248 38.3714397 C16.50752327 27.58727064 5.75141493 16.79598816 -5 6 C-3.35 4.02 -1.7 2.04 0 0 Z " fill="#E4EDFB" transform="translate(360,113)"/>
<path d="M0 0 C3.96 0 7.92 0 12 0 C12.08074203 2.62561109 12.1403623 5.24875676 12.1875 7.875 C12.22520508 8.99455078 12.22520508 8.99455078 12.26367188 10.13671875 C12.29296875 12.3046875 12.29296875 12.3046875 12 16 C11.01 16.66 10.02 17.32 9 18 C9.34444881 20.47266765 9.34444881 20.47266765 10 23 C10.66 23.33 11.32 23.66 12 24 C12.29296875 30.0546875 12.29296875 30.0546875 12 32 C11.01 32.66 10.02 33.32 9 34 C9.34444881 36.47266765 9.34444881 36.47266765 10 39 C10.66 39.33 11.32 39.66 12 40 C12.29296875 46.0546875 12.29296875 46.0546875 12 48 C11.01 48.66 10.02 49.32 9 50 C9.34444881 52.47266765 9.34444881 52.47266765 10 55 C10.66 55.33 11.32 55.66 12 56 C12.29296875 62.0546875 12.29296875 62.0546875 12 64 C10.515 64.99 10.515 64.99 9 66 C9.34444881 68.47266765 9.34444881 68.47266765 10 71 C10.66 71.33 11.32 71.66 12 72 C12 74.64 12 77.28 12 80 C8.04 80 4.08 80 0 80 C0 53.6 0 27.2 0 0 Z " fill="#FEFEFE" transform="translate(60,272)"/>
<path d="M0 0 C5.67476113 1.96434039 9.31400331 5.62800662 12 11 C12.54360446 15.95482094 12.56437074 19.87125852 10.3125 24.375 C6.72054254 28.45235712 3.52833982 31.59004052 -2.05078125 32.23828125 C-7.58896758 32.42001793 -10.64755155 31.74513006 -15 28 C-19.39893104 23.00661882 -20.35676337 20.08984773 -20.28125 13.5390625 C-19.73016315 8.56397287 -16.99302299 5.87480597 -13.375 2.6875 C-8.92314854 -0.47565762 -5.3540278 -0.48837416 0 0 Z " fill="#3C3265" transform="translate(256,324)"/>
<path d="M0 0 C5.67476113 1.96434039 9.31400331 5.62800662 12 11 C12.54360446 15.95482094 12.56437074 19.87125852 10.3125 24.375 C6.72054254 28.45235712 3.52833982 31.59004052 -2.05078125 32.23828125 C-7.58896758 32.42001793 -10.64755155 31.74513006 -15 28 C-19.39893104 23.00661882 -20.35676337 20.08984773 -20.28125 13.5390625 C-19.73016315 8.56397287 -16.99302299 5.87480597 -13.375 2.6875 C-8.92314854 -0.47565762 -5.3540278 -0.48837416 0 0 Z " fill="#3C3265" transform="translate(220,284)"/>
<path d="M0 0 C0.99 0.66 1.98 1.32 3 2 C5.60245498 2.14221065 8.09117684 2.18802932 10.6875 2.125 C11.38939453 2.11597656 12.09128906 2.10695313 12.81445312 2.09765625 C14.54311525 2.07413704 16.27160145 2.03826713 18 2 C18.19634033 2.53890869 18.39268066 3.07781738 18.5949707 3.63305664 C19.49879695 6.11027891 20.4056275 8.58639138 21.3125 11.0625 C21.7755957 12.33383789 21.7755957 12.33383789 22.24804688 13.63085938 C23.6481143 17.44788531 25.06937639 21.22177008 26.73046875 24.93359375 C28 28 28 28 28 31 C15.46 31 2.92 31 -10 31 C-9.2686779 27.34338949 -8.58578195 24.69051109 -7.1875 21.34765625 C-6.83429688 20.48849609 -6.48109375 19.62933594 -6.1171875 18.74414062 C-5.3737823 16.95970822 -4.62899536 15.1758508 -3.8828125 13.39257812 C-2.0492742 8.92583794 -0.51120737 4.84848237 0 0 Z " fill="#E8F1FE" transform="translate(395,345)"/>
<path d="M0 0 C2.50094494 3.75141741 2.26769802 5.83932442 2.25 10.3125 C2.25515625 11.60800781 2.2603125 12.90351563 2.265625 14.23828125 C2 18 2 18 0.921875 21.16796875 C-0.09197972 24.28256482 0.0883986 25.90055524 1 29 C2.04800781 29.03738281 3.09601563 29.07476562 4.17578125 29.11328125 C5.55472305 29.17894515 6.93362771 29.24539235 8.3125 29.3125 C9.00279297 29.33505859 9.69308594 29.35761719 10.40429688 29.38085938 C15.50905792 29.65212687 15.50905792 29.65212687 17.95703125 31.38671875 C19.47214468 33.73032117 19.40944943 35.27033712 19 38 C17.44945307 40.01008497 16.56883612 40.89504372 14.04475403 41.36076355 C13.30529037 41.35410172 12.56582672 41.34743988 11.80395508 41.34057617 C10.96331009 41.34034958 10.1226651 41.34012299 9.25654602 41.33988953 C8.35333115 41.32440567 7.45011627 41.30892181 6.51953125 41.29296875 C5.59154221 41.28872391 4.66355316 41.28447906 3.70744324 41.28010559 C0.74216757 41.26330662 -2.2224296 41.22565216 -5.1875 41.1875 C-7.19725581 41.17245474 -9.20702227 41.15876606 -11.21679688 41.14648438 C-16.14479286 41.11339908 -21.07228138 41.06160833 -26 41 C-25.64898727 40.45358856 -25.29797455 39.90717712 -24.93632507 39.34420776 C-24.47998184 38.62588776 -24.02363861 37.90756775 -23.5534668 37.16748047 C-23.09932907 36.45606903 -22.64519135 35.74465759 -22.17729187 35.01168823 C-20.84241832 32.73073355 -20.20712344 30.73415734 -19.8125 28.125 C-19.1884058 24.1884058 -19.1884058 24.1884058 -17 22 C-15.7625 21.731875 -14.525 21.46375 -13.25 21.1875 C-8.79098659 20.12737159 -6.17550912 18.39705627 -3 15 C-0.25422031 10.06795799 0.34792452 5.56679225 0 0 Z " fill="#B8D6FE" transform="translate(473,239)"/>
<path d="M0 0 C2.50094494 3.75141741 2.26769802 5.83932442 2.25 10.3125 C2.25515625 11.60800781 2.2603125 12.90351562 2.265625 14.23828125 C2 18 2 18 0.921875 21.16796875 C-0.09197972 24.28256482 0.0883986 25.90055524 1 29 C2.04800781 29.03738281 3.09601563 29.07476562 4.17578125 29.11328125 C5.55472305 29.17894515 6.93362771 29.24539235 8.3125 29.3125 C9.00279297 29.33505859 9.69308594 29.35761719 10.40429688 29.38085938 C15.50905792 29.65212687 15.50905792 29.65212687 17.95703125 31.38671875 C19.47214468 33.73032117 19.40944943 35.27033712 19 38 C17.96459961 39.62695312 17.96459961 39.62695312 16 41 C13.31919302 41.3225595 10.8747288 41.46801722 8.19140625 41.46875 C7.42827621 41.47636353 6.66514618 41.48397705 5.87889099 41.49182129 C4.26589223 41.50261975 2.65282356 41.50547639 1.03979492 41.50097656 C-1.42583084 41.5000046 -3.88833972 41.54161309 -6.35351562 41.5859375 C-7.92186852 41.59114501 -9.49023222 41.59383269 -11.05859375 41.59375 C-11.79411972 41.61014526 -12.52964569 41.62654053 -13.28746033 41.64343262 C-17.22641479 41.59036842 -18.68213149 41.32306011 -21.49633789 38.46289062 C-21.99254639 37.65013672 -22.48875488 36.83738281 -23 36 C-22.25808719 34.31383453 -21.51506498 32.62814592 -20.765625 30.9453125 C-19.86378965 28.82888702 -19.86378965 28.82888702 -19.375 25.75 C-18 23 -18 23 -16.0859375 22.13671875 C-14.50168717 21.66250335 -12.91287407 21.20332008 -11.3203125 20.7578125 C-7.09373464 19.37741502 -4.17751938 17.11864283 -1.96875 13.14453125 C-0.09404385 8.65738736 0.30166891 4.8267026 0 0 Z " fill="#B8D5FD" transform="translate(389,71)"/>
<path d="M0 0 C3.76140292 1.48302009 5.37326416 3.50433303 7.625 6.8125 C8.21539062 7.66457031 8.80578125 8.51664062 9.4140625 9.39453125 C12.43349273 14.35502377 13.52197294 18.15390307 13 24 C11.48007896 27.18459646 9.71704041 29.73579966 7 32 C3.29397865 33.23534045 0.90246386 33.45528745 -3 33 C-6.82209946 30.61307623 -9.56170311 28.31489068 -11 24 C-11.91602926 16.51909439 -8.76605946 10.64057475 -4.33203125 4.8046875 C-2.93330551 3.16342737 -1.47258783 1.57532651 0 0 Z " fill="#FADAAE" transform="translate(255,439)"/>
<path d="M0 0 C3.96 0 7.92 0 12 0 C5.48973481 16.40032763 -1.16264533 32.73325169 -8 49 C-10 48 -10 48 -10.88671875 45.5234375 C-11.15097656 44.48445313 -11.41523438 43.44546875 -11.6875 42.375 C-11.95949219 41.35148437 -12.23148437 40.32796875 -12.51171875 39.2734375 C-13.45386363 32.9572982 -11.72031773 27.75864725 -9.27734375 21.97265625 C-8.87993736 21.02198524 -8.87993736 21.02198524 -8.47450256 20.05210876 C-7.6364644 18.05226076 -6.78722286 16.05740712 -5.9375 14.0625 C-5.36318115 12.69758144 -4.78960626 11.33234959 -4.21679688 9.96679688 C-2.81977437 6.64086825 -1.41267137 3.31931711 0 0 Z " fill="#FCF6E3" transform="translate(369,384)"/>
<path d="M0 0 C4.09206332 1.808121 6.69807584 4.16345973 9 8 C9.67086404 12.15935707 9.97444376 14.45217928 7.71875 18.03515625 C4.42230417 21.96988449 2.55948182 23.81497673 -2.6875 24.4375 C-7.22744391 24.41264629 -9.43982485 22.53738613 -12.65234375 19.5078125 C-15.20699781 16.64956187 -15.44655204 13.96600649 -15.42578125 10.171875 C-14.65151767 6.2224204 -11.92865376 3.61757913 -9 1 C-5.93570224 -0.53214888 -3.3834358 -0.22938548 0 0 Z " fill="#FAC4BF" transform="translate(271,248)"/>
<path d="M0 0 C0.33 0 0.66 0 1 0 C1.81916616 4.07078576 2.63697243 8.14184184 3.45361328 12.21313477 C3.73059919 13.59308945 4.00793263 14.97297444 4.28564453 16.3527832 C5.93616296 24.55472767 7.54456268 32.76083657 9 41 C4.28620106 41.34030099 -0.29702196 41.53825991 -5 41 C-8.67032852 37.32967148 -9.81142055 33.71292997 -10.375 28.59375 C-10.29597824 22.43005255 -7.4527756 17.04194703 -5 11.5 C-4.52304687 10.39140625 -4.04609375 9.2828125 -3.5546875 8.140625 C-2.38253866 5.4212397 -1.19746508 2.70830931 0 0 Z " fill="#FAD87C" transform="translate(354,447)"/>
<path d="M0 0 C4.62 0 9.24 0 14 0 C14 9.24 14 18.48 14 28 C10.04 26.35 6.08 24.7 2 23 C-1.71409557 22.22003993 -5.26333201 21.49282826 -9 21 C-8.73316406 20.4740625 -8.46632812 19.948125 -8.19140625 19.40625 C-6.73092277 16.45655221 -5.32960468 13.48259283 -3.9375 10.5 C-3.41027344 9.3759375 -2.88304687 8.251875 -2.33984375 7.09375 C-0.86318606 3.91453837 -0.86318606 3.91453837 0 0 Z " fill="#33ABFC" transform="translate(158,152)"/>
<path d="M0 0 C4.62 0 9.24 0 14 0 C13.02050986 8.70657904 11.07275458 16.78782334 8.625 25.1875 C8.33294678 26.19619141 8.04089355 27.20488281 7.73999023 28.24414062 C5.83364694 34.65205247 3.5982234 40.84046256 1 47 C0.67 47 0.34 47 0 47 C0 31.49 0 15.98 0 0 Z " fill="#34ADFF" transform="translate(440,288)"/>
<path d="M0 0 C0.87430664 -0.00630432 1.74861328 -0.01260864 2.64941406 -0.019104 C4.06818848 -0.01303131 4.06818848 -0.01303131 5.515625 -0.00683594 C6.48467773 -0.00874939 7.45373047 -0.01066284 8.45214844 -0.01263428 C10.50325785 -0.01399673 12.55437586 -0.01029612 14.60546875 -0.00195312 C17.75280039 0.00874547 20.8995612 -0.00184647 24.046875 -0.01464844 C26.0364596 -0.01332685 28.02604384 -0.01076448 30.015625 -0.00683594 C30.96147461 -0.0108844 31.90732422 -0.01493286 32.88183594 -0.019104 C33.75614258 -0.01279968 34.63044922 -0.00649536 35.53125 0 C36.68802246 0.00238678 36.68802246 0.00238678 37.86816406 0.00482178 C39.765625 0.25878906 39.765625 0.25878906 41.765625 2.25878906 C41.765625 4.23878906 41.765625 6.21878906 41.765625 8.25878906 C25.925625 8.25878906 10.085625 8.25878906 -6.234375 8.25878906 C-6.234375 0.01286345 -6.234375 0.01286345 0 0 Z " fill="#90A4AE" transform="translate(238.234375,479.7412109375)"/>
<path d="M0 0 C4.21901395 3.1140341 6.27295462 7.10208903 8.6640625 11.640625 C10.76550758 15.35194906 13.3545626 18.66365798 16 22 C14.02 23.65 12.04 25.3 10 27 C9.55011719 26.56429687 9.10023438 26.12859375 8.63671875 25.6796875 C3.89602804 21.29051094 -0.8941095 18.22799028 -6.6796875 15.359375 C-9 14 -9 14 -11 11 C-11.42255137 7.12661246 -11.56667558 4.88401391 -9.4375 1.5625 C-6.01685857 -0.63021887 -3.99048721 -0.63007693 0 0 Z " fill="#FA5848" transform="translate(324,77)"/>
<path d="M0 0 C0.33 0 0.66 0 1 0 C1 7.59 1 15.18 1 23 C-5.93 23 -12.86 23 -20 23 C-18.35 20.36 -16.7 17.72 -15 15 C-14.10210218 12.43134275 -14.10210218 12.43134275 -13.8125 10.125 C-13.1884058 6.1884058 -13.1884058 6.1884058 -11 4 C-9.3319364 3.41992464 -7.64041076 2.90549418 -5.9375 2.4375 C-2.6878857 1.7288742 -2.6878857 1.7288742 0 0 Z " fill="#B9D7FF" transform="translate(171,217)"/>
<path d="M0 0 C0.33 0 0.66 0 1 0 C1 17.82 1 35.64 1 54 C-7 51 -7 51 -10 49 C-6.75660989 32.64747365 -3.42875056 16.3146787 0 0 Z " fill="#33ACFC" transform="translate(171,384)"/>
<path d="M0 0 C4.55555556 0.55555556 4.55555556 0.55555556 6 2 C6.04080783 3.99958364 6.04254356 6.00045254 6 8 C7.423125 7.938125 7.423125 7.938125 8.875 7.875 C12 8 12 8 14 10 C13.44444444 14.55555556 13.44444444 14.55555556 12 16 C10.00041636 16.04080783 7.99954746 16.04254356 6 16 C6.04125 16.94875 6.0825 17.8975 6.125 18.875 C6 22 6 22 4 24 C-0.55555556 23.44444444 -0.55555556 23.44444444 -2 22 C-2.04080783 20.00041636 -2.04254356 17.99954746 -2 16 C-2.94875 16.04125 -3.8975 16.0825 -4.875 16.125 C-8 16 -8 16 -10 14 C-9.44444444 9.44444444 -9.44444444 9.44444444 -8 8 C-6.00041636 7.95919217 -3.99954746 7.95745644 -2 8 C-2.04125 7.05125 -2.0825 6.1025 -2.125 5.125 C-2 2 -2 2 0 0 Z " fill="#FAFDFF" transform="translate(318,184)"/>
<path d="M0 0 C2.206875 -0.061875 4.41375 -0.12375 6.6875 -0.1875 C8.54955078 -0.23970703 8.54955078 -0.23970703 10.44921875 -0.29296875 C14.21666932 0.01787701 16.02794917 0.7227143 19 3 C20.40457737 5.80915474 20.24895157 7.88810534 20 11 C18.22015595 14.1359157 17.47691793 14.84102736 14 16 C9.33032246 16.13590447 4.67262015 16.04286807 0 16 C0 10.72 0 5.44 0 0 Z " fill="#B7D4FC" transform="translate(424,256)"/>
<path d="M0 0 C2.206875 -0.061875 4.41375 -0.12375 6.6875 -0.1875 C8.54955078 -0.23970703 8.54955078 -0.23970703 10.44921875 -0.29296875 C14.21666932 0.01787701 16.02794917 0.7227143 19 3 C20.40457737 5.80915474 20.24895157 7.88810534 20 11 C18.22015595 14.1359157 17.47691793 14.84102736 14 16 C9.33032246 16.13590447 4.67262015 16.04286807 0 16 C0 10.72 0 5.44 0 0 Z " fill="#B7D4FC" transform="translate(100,248)"/>
<path d="M0 0 C2.206875 -0.061875 4.41375 -0.12375 6.6875 -0.1875 C8.54955078 -0.23970703 8.54955078 -0.23970703 10.44921875 -0.29296875 C14.21666932 0.01787701 16.02794917 0.7227143 19 3 C20.40457737 5.80915474 20.24895157 7.88810534 20 11 C18.22015595 14.1359157 17.47691793 14.84102736 14 16 C9.33032246 16.13590447 4.67262015 16.04286807 0 16 C0 10.72 0 5.44 0 0 Z " fill="#B7D4FC" transform="translate(272,120)"/>
<path d="M0 0 C4.41026661 3.52821329 5.84001161 4.91918056 8.25 9.625 C8.75015625 10.58664062 9.2503125 11.54828125 9.765625 12.5390625 C11.87050394 16.73549836 12.32553516 19.19835639 12 24 C10.50367272 27.13516193 8.81004637 29.91848417 6 32 C3.03 32.495 3.03 32.495 0 33 C0 22.11 0 11.22 0 0 Z " fill="#FBAF42" transform="translate(256,439)"/>
<path d="M0 0 C0.66 0.66 1.32 1.32 2 2 C1.44444444 6.55555556 1.44444444 6.55555556 0 8 C-1.51825897 8.24564424 -3.03976988 8.47129557 -4.5625 8.6875 C-10.13943908 9.74367785 -13.93478234 12.08423887 -18 16 C-18.66 16.99 -19.32 17.98 -20 19 C-22.5 19.3125 -22.5 19.3125 -25 19 C-27 17 -27 17 -27.0625 14.8125 C-24.60934095 8.31884368 -18.90349304 4.5356068 -12.796875 1.7265625 C-8.2252399 -0.12196821 -4.88860199 -0.23279057 0 0 Z " fill="#3C386B" transform="translate(396,200)"/>
<path d="M0 0 C0.66 0.66 1.32 1.32 2 2 C1.44444444 6.55555556 1.44444444 6.55555556 0 8 C-1.51825897 8.24564424 -3.03976988 8.47129557 -4.5625 8.6875 C-10.13943908 9.74367785 -13.93478234 12.08423887 -18 16 C-18.66 16.99 -19.32 17.98 -20 19 C-22.5 19.3125 -22.5 19.3125 -25 19 C-27 17 -27 17 -27.0625 14.8125 C-24.60934095 8.31884368 -18.90349304 4.5356068 -12.796875 1.7265625 C-8.2252399 -0.12196821 -4.88860199 -0.23279057 0 0 Z " fill="#3C386B" transform="translate(312,32)"/>
<path d="M0 0 C1 1 1 1 1.29760742 3.28588867 C0.90982323 6.82239141 -0.2754062 7.92005522 -2.76171875 10.42578125 C-3.55126953 11.22177734 -4.34082031 12.01777344 -5.15429688 12.83789062 C-6.40823242 14.06282227 -6.40823242 14.06282227 -7.6875 15.3125 C-8.50412109 16.14845703 -9.32074219 16.98441406 -10.16210938 17.84570312 C-11.35610352 19.0300293 -11.35610352 19.0300293 -12.57421875 20.23828125 C-13.66609497 21.321698 -13.66609497 21.321698 -14.7800293 22.42700195 C-17.42689606 24.30248447 -18.82248498 24.41369121 -22 24 C-23 23 -23 23 -23.29760742 20.71411133 C-22.90982323 17.17760859 -21.7245938 16.07994478 -19.23828125 13.57421875 C-18.44873047 12.77822266 -17.65917969 11.98222656 -16.84570312 11.16210938 C-16.00974609 10.34548828 -15.17378906 9.52886719 -14.3125 8.6875 C-13.49587891 7.85154297 -12.67925781 7.01558594 -11.83789062 6.15429688 C-11.04189453 5.36474609 -10.24589844 4.57519531 -9.42578125 3.76171875 C-8.69786377 3.03944092 -7.96994629 2.31716309 -7.2199707 1.57299805 C-4.57310394 -0.30248447 -3.17751502 -0.41369121 0 0 Z " fill="#B6D3FB" transform="translate(357,98)"/>
<path d="M0 0 C4.0743356 0.84881992 5.54405875 2.30225596 8 5.625 C8.625 8.625 8.625 8.625 8 11.625 C5.50915752 14.99496335 4.11411135 16.44310427 -0.0625 17.125 C-3.42877241 16.55201746 -4.79003464 16.2442182 -7 13.625 C-7.96988093 10.89277446 -8.32575603 8.5118724 -8 5.625 C-5.60540961 2.14195943 -4.14822958 0.8642145 0 0 Z " fill="#F6C1BE" transform="translate(252,331.375)"/>
<path d="M0 0 C4.0743356 0.84881992 5.54405875 2.30225596 8 5.625 C8.625 8.625 8.625 8.625 8 11.625 C5.50915752 14.99496335 4.11411135 16.44310427 -0.0625 17.125 C-3.42877241 16.55201746 -4.79003464 16.2442182 -7 13.625 C-7.96988093 10.89277446 -8.32575603 8.5118724 -8 5.625 C-5.60540961 2.14195943 -4.14822958 0.8642145 0 0 Z " fill="#F6C1BE" transform="translate(216,291.375)"/>
<path d="M0 0 C5.28 0 10.56 0 16 0 C16 4.29 16 8.58 16 13 C15.01257813 12.98839844 14.02515625 12.97679687 13.0078125 12.96484375 C11.72648437 12.95582031 10.44515625 12.94679688 9.125 12.9375 C7.21074219 12.92009766 7.21074219 12.92009766 5.2578125 12.90234375 C2.11335348 12.76823431 2.11335348 12.76823431 0 14 C0 9.38 0 4.76 0 0 Z " fill="#E8F1FE" transform="translate(396,280)"/>
<path d="M0 0 C0 5.28 0 10.56 0 16 C-7 16 -7 16 -9.9375 13.875 C-12 11 -12 11 -12.625 8 C-11.05447087 0.46146016 -7.20843708 0 0 0 Z " fill="#F9F9FA" transform="translate(384,256)"/>
<path d="M0 0 C0 5.28 0 10.56 0 16 C-7 16 -7 16 -9.9375 13.875 C-12 11 -12 11 -12.625 8 C-11.05447087 0.46146016 -7.20843708 0 0 0 Z " fill="#F9F9FA" transform="translate(60,248)"/>
<path d="M0 0 C0 5.28 0 10.56 0 16 C-7 16 -7 16 -9.9375 13.875 C-12 11 -12 11 -12.625 8 C-11.05447087 0.46146016 -7.20843708 0 0 0 Z " fill="#F9F9FA" transform="translate(232,120)"/>
<path d="M0 0 C2.95857409 -0.05379226 5.91617721 -0.09357093 8.875 -0.125 C9.71675781 -0.14175781 10.55851562 -0.15851563 11.42578125 -0.17578125 C12.23144531 -0.18222656 13.03710938 -0.18867188 13.8671875 -0.1953125 C14.98262939 -0.21102295 14.98262939 -0.21102295 16.12060547 -0.22705078 C18 0 18 0 20 2 C20 3.98 20 5.96 20 8 C13.4 8 6.8 8 0 8 C0 5.36 0 2.72 0 0 Z " fill="#8496A0" transform="translate(260,480)"/>
<path d="M0 0 C0.99 0.495 0.99 0.495 2 1 C4.37402501 1.07116382 6.75000677 1.08409085 9.125 1.0625 C10.40632813 1.05347656 11.68765625 1.04445313 13.0078125 1.03515625 C13.99523437 1.02355469 14.98265625 1.01195312 16 1 C16 4.3 16 7.6 16 11 C15.01257813 10.98839844 14.02515625 10.97679687 13.0078125 10.96484375 C11.72648437 10.95582031 10.44515625 10.94679688 9.125 10.9375 C7.21074219 10.92009766 7.21074219 10.92009766 5.2578125 10.90234375 C2.11335348 10.76823431 2.11335348 10.76823431 0 12 C0 8.04 0 4.08 0 0 Z " fill="#E7F0FD" transform="translate(396,330)"/>
<path d="M0 0 C0.99 0.495 0.99 0.495 2 1 C4.37402501 1.07116382 6.75000677 1.08409085 9.125 1.0625 C10.40632813 1.05347656 11.68765625 1.04445313 13.0078125 1.03515625 C13.99523437 1.02355469 14.98265625 1.01195312 16 1 C16 4.3 16 7.6 16 11 C15.01257813 10.98839844 14.02515625 10.97679687 13.0078125 10.96484375 C11.72648437 10.95582031 10.44515625 10.94679688 9.125 10.9375 C7.21074219 10.92009766 7.21074219 10.92009766 5.2578125 10.90234375 C2.11335348 10.76823431 2.11335348 10.76823431 0 12 C0 8.04 0 4.08 0 0 Z " fill="#E7F0FD" transform="translate(396,314)"/>
<path d="M0 0 C0.99 0.495 0.99 0.495 2 1 C4.37402501 1.07116382 6.75000677 1.08409085 9.125 1.0625 C10.40632813 1.05347656 11.68765625 1.04445313 13.0078125 1.03515625 C13.99523437 1.02355469 14.98265625 1.01195312 16 1 C16 4.3 16 7.6 16 11 C15.01257813 10.98839844 14.02515625 10.97679687 13.0078125 10.96484375 C11.72648437 10.95582031 10.44515625 10.94679688 9.125 10.9375 C7.21074219 10.92009766 7.21074219 10.92009766 5.2578125 10.90234375 C2.11335348 10.76823431 2.11335348 10.76823431 0 12 C0 8.04 0 4.08 0 0 Z " fill="#E7F0FD" transform="translate(396,298)"/>
<path d="M0 0 C1.08152344 -0.01417969 2.16304687 -0.02835937 3.27734375 -0.04296875 C6.0625 0.1875 6.0625 0.1875 8.0625 2.1875 C7.50694444 6.74305556 7.50694444 6.74305556 6.0625 8.1875 C4.08630553 8.31264928 2.10511827 8.3632276 0.125 8.375 C-0.95652344 8.38917969 -2.03804688 8.40335937 -3.15234375 8.41796875 C-5.9375 8.1875 -5.9375 8.1875 -7.9375 6.1875 C-7.18513529 0.01810941 -5.98340298 0.03557314 0 0 Z " fill="#363569" transform="translate(75.9375,431.8125)"/>
<path d="M0 0 C1.08152344 -0.01417969 2.16304687 -0.02835937 3.27734375 -0.04296875 C6.0625 0.1875 6.0625 0.1875 8.0625 2.1875 C7.50694444 6.74305556 7.50694444 6.74305556 6.0625 8.1875 C4.08630553 8.31264928 2.10511827 8.3632276 0.125 8.375 C-0.95652344 8.38917969 -2.03804688 8.40335937 -3.15234375 8.41796875 C-5.9375 8.1875 -5.9375 8.1875 -7.9375 6.1875 C-7.18513529 0.01810941 -5.98340298 0.03557314 0 0 Z " fill="#363569" transform="translate(75.9375,415.8125)"/>
<path d="M0 0 C1.08152344 -0.01417969 2.16304687 -0.02835937 3.27734375 -0.04296875 C6.0625 0.1875 6.0625 0.1875 8.0625 2.1875 C7.50694444 6.74305556 7.50694444 6.74305556 6.0625 8.1875 C4.08630553 8.31264928 2.10511827 8.3632276 0.125 8.375 C-0.95652344 8.38917969 -2.03804688 8.40335937 -3.15234375 8.41796875 C-5.9375 8.1875 -5.9375 8.1875 -7.9375 6.1875 C-7.18513529 0.01810941 -5.98340298 0.03557314 0 0 Z " fill="#363569" transform="translate(75.9375,399.8125)"/>
<path d="M0 0 C1.08152344 -0.01417969 2.16304687 -0.02835937 3.27734375 -0.04296875 C6.0625 0.1875 6.0625 0.1875 8.0625 2.1875 C7.50694444 6.74305556 7.50694444 6.74305556 6.0625 8.1875 C4.08630553 8.31264928 2.10511827 8.3632276 0.125 8.375 C-0.95652344 8.38917969 -2.03804688 8.40335937 -3.15234375 8.41796875 C-5.9375 8.1875 -5.9375 8.1875 -7.9375 6.1875 C-7.18513529 0.01810941 -5.98340298 0.03557314 0 0 Z " fill="#363569" transform="translate(75.9375,383.8125)"/>
<path d="M0 0 C1.08152344 -0.01417969 2.16304687 -0.02835937 3.27734375 -0.04296875 C6.0625 0.1875 6.0625 0.1875 8.0625 2.1875 C7.50694444 6.74305556 7.50694444 6.74305556 6.0625 8.1875 C4.08630553 8.31264928 2.10511827 8.3632276 0.125 8.375 C-0.95652344 8.38917969 -2.03804688 8.40335937 -3.15234375 8.41796875 C-5.9375 8.1875 -5.9375 8.1875 -7.9375 6.1875 C-7.18513529 0.01810941 -5.98340298 0.03557314 0 0 Z " fill="#363569" transform="translate(75.9375,367.8125)"/>
<path d="M0 0 C1.08152344 -0.01417969 2.16304688 -0.02835937 3.27734375 -0.04296875 C6.0625 0.1875 6.0625 0.1875 8.0625 2.1875 C7.50694444 6.74305556 7.50694444 6.74305556 6.0625 8.1875 C4.08630553 8.31264928 2.10511827 8.3632276 0.125 8.375 C-0.95652344 8.38917969 -2.03804688 8.40335937 -3.15234375 8.41796875 C-5.9375 8.1875 -5.9375 8.1875 -7.9375 6.1875 C-7.18513529 0.01810941 -5.98340298 0.03557314 0 0 Z " fill="#39366A" transform="translate(403.9375,339.8125)"/>
<path d="M0 0 C1.08152344 -0.01417969 2.16304687 -0.02835937 3.27734375 -0.04296875 C6.0625 0.1875 6.0625 0.1875 8.0625 2.1875 C7.50694444 6.74305556 7.50694444 6.74305556 6.0625 8.1875 C4.08630553 8.31264928 2.10511827 8.3632276 0.125 8.375 C-0.95652344 8.38917969 -2.03804688 8.40335937 -3.15234375 8.41796875 C-5.9375 8.1875 -5.9375 8.1875 -7.9375 6.1875 C-7.18513529 0.01810941 -5.98340298 0.03557314 0 0 Z " fill="#3A366A" transform="translate(75.9375,335.8125)"/>
<path d="M0 0 C1.08152344 -0.01417969 2.16304688 -0.02835937 3.27734375 -0.04296875 C6.0625 0.1875 6.0625 0.1875 8.0625 2.1875 C7.50694444 6.74305556 7.50694444 6.74305556 6.0625 8.1875 C4.08630553 8.31264928 2.10511827 8.3632276 0.125 8.375 C-0.95652344 8.38917969 -2.03804688 8.40335937 -3.15234375 8.41796875 C-5.9375 8.1875 -5.9375 8.1875 -7.9375 6.1875 C-7.18513529 0.01810941 -5.98340298 0.03557314 0 0 Z " fill="#39366A" transform="translate(403.9375,323.8125)"/>
<path d="M0 0 C1.08152344 -0.01417969 2.16304687 -0.02835937 3.27734375 -0.04296875 C6.0625 0.1875 6.0625 0.1875 8.0625 2.1875 C7.50694444 6.74305556 7.50694444 6.74305556 6.0625 8.1875 C4.08630553 8.31264928 2.10511827 8.3632276 0.125 8.375 C-0.95652344 8.38917969 -2.03804688 8.40335937 -3.15234375 8.41796875 C-5.9375 8.1875 -5.9375 8.1875 -7.9375 6.1875 C-7.18513529 0.01810941 -5.98340298 0.03557314 0 0 Z " fill="#3A366A" transform="translate(75.9375,319.8125)"/>
<path d="M0 0 C1.08152344 -0.01417969 2.16304688 -0.02835937 3.27734375 -0.04296875 C6.0625 0.1875 6.0625 0.1875 8.0625 2.1875 C7.50694444 6.74305556 7.50694444 6.74305556 6.0625 8.1875 C4.08630553 8.31264928 2.10511827 8.3632276 0.125 8.375 C-0.95652344 8.38917969 -2.03804688 8.40335937 -3.15234375 8.41796875 C-5.9375 8.1875 -5.9375 8.1875 -7.9375 6.1875 C-7.18513529 0.01810941 -5.98340298 0.03557314 0 0 Z " fill="#39366A" transform="translate(403.9375,307.8125)"/>
<path d="M0 0 C1.08152344 -0.01417969 2.16304687 -0.02835937 3.27734375 -0.04296875 C6.0625 0.1875 6.0625 0.1875 8.0625 2.1875 C7.50694444 6.74305556 7.50694444 6.74305556 6.0625 8.1875 C4.08630553 8.31264928 2.10511827 8.3632276 0.125 8.375 C-0.95652344 8.38917969 -2.03804688 8.40335937 -3.15234375 8.41796875 C-5.9375 8.1875 -5.9375 8.1875 -7.9375 6.1875 C-7.18513529 0.01810941 -5.98340298 0.03557314 0 0 Z " fill="#3A366A" transform="translate(75.9375,303.8125)"/>
<path d="M0 0 C1.08152344 -0.01417969 2.16304688 -0.02835937 3.27734375 -0.04296875 C6.0625 0.1875 6.0625 0.1875 8.0625 2.1875 C7.50694444 6.74305556 7.50694444 6.74305556 6.0625 8.1875 C4.08630553 8.31264928 2.10511827 8.3632276 0.125 8.375 C-0.95652344 8.38917969 -2.03804688 8.40335937 -3.15234375 8.41796875 C-5.9375 8.1875 -5.9375 8.1875 -7.9375 6.1875 C-7.18513529 0.01810941 -5.98340298 0.03557314 0 0 Z " fill="#39366A" transform="translate(403.9375,291.8125)"/>
<path d="M0 0 C1.08152344 -0.01417969 2.16304687 -0.02835937 3.27734375 -0.04296875 C6.0625 0.1875 6.0625 0.1875 8.0625 2.1875 C7.50694444 6.74305556 7.50694444 6.74305556 6.0625 8.1875 C4.08630553 8.31264928 2.10511827 8.3632276 0.125 8.375 C-0.95652344 8.38917969 -2.03804688 8.40335937 -3.15234375 8.41796875 C-5.9375 8.1875 -5.9375 8.1875 -7.9375 6.1875 C-7.18513529 0.01810941 -5.98340298 0.03557314 0 0 Z " fill="#3A366A" transform="translate(75.9375,287.8125)"/>
<path d="M0 0 C2.62187494 1.04874998 3.79371361 1.64931313 5.25 4.125 C5.4975 4.74375 5.745 5.3625 6 6 C4.78719339 7.34823166 3.55401909 8.67816082 2.3125 10 C1.28576172 11.11375 1.28576172 11.11375 0.23828125 12.25 C-2 14 -2 14 -4.70703125 14.3125 C-7 14 -7 14 -8 13 C-8.3125 10.70703125 -8.3125 10.70703125 -8 8 C-6.25 5.76171875 -6.25 5.76171875 -4 3.6875 C-3.2575 2.99011719 -2.515 2.29273437 -1.75 1.57421875 C-1.1725 1.05472656 -0.595 0.53523438 0 0 Z " fill="#E4EDFB" transform="translate(342,108)"/>
<path d="M0 0 C2.6015625 -0.29296875 2.6015625 -0.29296875 5.625 -0.1875 C7.12933594 -0.14689453 7.12933594 -0.14689453 8.6640625 -0.10546875 C9.43492187 -0.07066406 10.20578125 -0.03585937 11 0 C7.47746549 3.76524173 4.01956167 6.44761313 -0.4375 9.125 C-2.07525391 10.11886719 -2.07525391 10.11886719 -3.74609375 11.1328125 C-6.79490262 12.88230907 -9.78198872 14.58314899 -13 16 C-13.66 15.67 -14.32 15.34 -15 15 C-13.62714844 13.75283203 -13.62714844 13.75283203 -12.2265625 12.48046875 C-11.02588968 11.38297875 -9.8253772 10.28531332 -8.625 9.1875 C-8.02171875 8.64029297 -7.4184375 8.09308594 -6.796875 7.52929688 C-6.21679688 6.99755859 -5.63671875 6.46582031 -5.0390625 5.91796875 C-4.50490723 5.43094482 -3.97075195 4.9439209 -3.42041016 4.44213867 C-1.76545531 2.85257274 -1.76545531 2.85257274 0 0 Z " fill="#E44A3B" transform="translate(308,384)"/>
<path d="M0 0 C3.96 0 7.92 0 12 0 C12 2.64 12 5.28 12 8 C8.04 8 4.08 8 0 8 C0 5.36 0 2.72 0 0 Z " fill="#8597A1" transform="translate(160,136)"/>
<path d="M0 0 C0.90492188 0.02320313 1.80984375 0.04640625 2.7421875 0.0703125 C4.10730469 0.09738281 4.10730469 0.09738281 5.5 0.125 C6.19867188 0.14820313 6.89734375 0.17140625 7.6171875 0.1953125 C7.6171875 2.8353125 7.6171875 5.4753125 7.6171875 8.1953125 C3.6571875 8.1953125 -0.3028125 8.1953125 -4.3828125 8.1953125 C-4.3828125 0.35924693 -4.3828125 0.35924693 0 0 Z " fill="#B0C4D0" transform="translate(236.3828125,479.8046875)"/>
<path d="M0 0 C3.96 0 7.92 0 12 0 C8.64800393 4.7486611 4.67806201 7.6473889 0 11 C0 7.37 0 3.74 0 0 Z " fill="#B7D4FC" transform="translate(180,229)"/>
<path d="M0 0 C2.625 0.375 2.625 0.375 5 1 C5.625 3.375 5.625 3.375 6 6 C5.34 6.66 4.68 7.32 4 8 C1.375 7.625 1.375 7.625 -1 7 C-1.625 4.625 -1.625 4.625 -2 2 C-1.34 1.34 -0.68 0.68 0 0 Z " fill="#F1F9FF" transform="translate(130,356)"/>
<path d="M0 0 C2.625 0.375 2.625 0.375 5 1 C5.625 3.375 5.625 3.375 6 6 C5.34 6.66 4.68 7.32 4 8 C1.375 7.625 1.375 7.625 -1 7 C-1.625 4.625 -1.625 4.625 -2 2 C-1.34 1.34 -0.68 0.68 0 0 Z " fill="#F1F9FF" transform="translate(322,148)"/>
<path d="M0 0 C2.625 0.375 2.625 0.375 5 1 C5.625 3.375 5.625 3.375 6 6 C5.34 6.66 4.68 7.32 4 8 C1.375 7.625 1.375 7.625 -1 7 C-1.625 4.625 -1.625 4.625 -2 2 C-1.34 1.34 -0.68 0.68 0 0 Z " fill="#F1F9FF" transform="translate(202,80)"/>
<path d="M0 0 C0.66 0 1.32 0 2 0 C1.56562003 4.92297294 -0.42607063 7.65915298 -4 11 C-7.8125 11.375 -7.8125 11.375 -11 11 C-10.01 10.34 -9.02 9.68 -8 9 C-3.04049332 5.25790036 -3.04049332 5.25790036 0 0 Z " fill="#DDE6F7" transform="translate(451,269)"/>
</svg>
