<?xml version="1.0" encoding="UTF-8"?>
<svg version="1.1" xmlns="http://www.w3.org/2000/svg" width="128" height="128">
<path d="M0 0 C1.32295578 -0.00639748 1.32295578 -0.00639748 2.67263794 -0.01292419 C4.13527321 -0.01224442 4.13527321 -0.01224442 5.62745667 -0.0115509 C6.64851501 -0.01490952 7.66957336 -0.01826813 8.72157288 -0.02172852 C12.11542458 -0.03127043 15.50922713 -0.03318323 18.90309143 -0.03425598 C21.25099712 -0.03746625 23.5989026 -0.04083014 25.94680786 -0.04434204 C30.87568119 -0.05034139 35.80453697 -0.05218111 40.7334137 -0.05158997 C47.0635377 -0.05148828 53.39354969 -0.06514322 59.72364712 -0.08236217 C64.57479372 -0.09345537 69.42591301 -0.09551 74.277071 -0.09498024 C76.61156157 -0.09616431 78.94605276 -0.10060978 81.28053093 -0.10831261 C84.53948288 -0.11805878 87.79818865 -0.1152558 91.05714417 -0.10920715 C92.03021011 -0.11482666 93.00327606 -0.12044617 94.00582886 -0.12623596 C94.8906192 -0.12204147 95.77540955 -0.11784698 96.68701172 -0.11352539 C97.45817542 -0.11407016 98.22933912 -0.11461493 99.02387142 -0.1151762 C100.90699768 0.13371277 100.90699768 0.13371277 102.90699768 2.13371277 C103.48416205 9.40598378 103.48416205 9.40598378 101.46949768 11.94621277 C100.95387268 12.33808777 100.43824768 12.72996277 99.90699768 13.13371277 C99.57699768 14.12371277 99.24699768 15.11371277 98.90699768 16.13371277 C100.22055237 16.07570496 101.53410706 16.01769714 102.88746643 15.95793152 C104.62310791 15.91102229 106.35878791 15.86552338 108.09449768 15.82121277 C108.95881409 15.77931824 109.82313049 15.73742371 110.71363831 15.69425964 C115.13242477 15.60960856 117.26863582 15.68977584 120.98512268 18.27433777 C123.19533613 21.56270411 123.553929 23.26767315 123.46949768 27.19621277 C123.47078674 28.21843933 123.47207581 29.24066589 123.47340393 30.29386902 C122.77780617 33.78145226 121.67285711 34.96017895 118.90699768 37.13371277 C116.19983526 38.03610024 114.66923 38.25222579 111.89527893 38.23136902 C110.7592926 38.22653503 110.7592926 38.22653503 109.60035706 38.22160339 C108.42183167 38.20903503 108.42183167 38.20903503 107.21949768 38.19621277 C106.02356995 38.18944519 106.02356995 38.18944519 104.80348206 38.18254089 C102.83795511 38.17077127 100.87246683 38.15283625 98.90699768 38.13371277 C98.90699768 41.76371277 98.90699768 45.39371277 98.90699768 49.13371277 C101.00301331 49.08150574 101.00301331 49.08150574 103.14137268 49.02824402 C104.97990232 49.00010326 106.81844497 48.97280341 108.65699768 48.94621277 C109.57738831 48.92107605 110.49777893 48.89593933 111.44606018 48.87004089 C112.33551331 48.86037292 113.22496643 48.85070496 114.14137268 48.84074402 C114.95831604 48.82503357 115.7752594 48.80932312 116.61695862 48.7931366 C119.57183797 49.23258827 120.77217981 50.04550838 122.90699768 52.13371277 C123.40820312 54.79008484 123.40820312 54.79008484 123.40870667 58.02629089 C123.41808762 59.23764709 123.42746857 60.4490033 123.43713379 61.69706726 C123.42028282 63.66117554 123.42028282 63.66117554 123.40309143 65.66496277 C123.4032464 67.02112404 123.40473504 68.37728576 123.40750122 69.73344421 C123.40888562 72.57491142 123.39632143 75.41587411 123.37355042 78.25724792 C123.34516473 81.89926337 123.34790209 85.54044052 123.36064053 89.18251801 C123.36759601 91.98268289 123.35981011 94.78265404 123.3473835 97.58279419 C123.34067155 99.57863772 123.34501268 101.57450847 123.3494873 103.57035828 C123.33680313 104.78171448 123.32411896 105.99307068 123.31105042 107.24113464 C123.30564743 108.30908264 123.30024445 109.37703064 123.29467773 110.4773407 C122.90699768 113.13371277 122.90699768 113.13371277 121.62281799 114.97674561 C118.54169088 117.05433081 114.81908447 116.5801005 111.22340393 116.56730652 C109.94553261 116.5751693 109.94553261 116.5751693 108.6418457 116.58319092 C106.84051096 116.58961281 105.03913429 116.58827194 103.23780823 116.57975769 C100.48289679 116.57125413 97.73006321 116.59999446 94.97535706 116.63175964 C93.22470664 116.63337193 91.47405254 116.6327936 89.72340393 116.62980652 C88.90038284 116.6410405 88.07736176 116.65227448 87.22940063 116.66384888 C83.66314491 116.62044745 81.48633757 116.47782353 78.38038635 114.63298035 C76.26367079 111.04245553 76.4100561 107.69355334 76.51637268 103.64933777 C76.520401 102.92601257 76.52442932 102.20268738 76.52857971 101.45744324 C76.54944408 98.76594021 76.60529 96.07479994 76.65699768 93.38371277 C76.73949768 87.36121277 76.82199768 81.33871277 76.90699768 75.13371277 C59.08699768 75.46371277 41.26699768 75.79371277 22.90699768 76.13371277 C27.52094069 80.74765578 31.87803366 85.01472014 36.77418518 89.21965027 C39.24631805 91.43823104 41.57261946 93.77077946 43.90699768 96.13371277 C46.82326371 99.08554302 49.75305603 101.93760136 52.90699768 104.63371277 C56.97280399 108.10932139 60.68403475 111.89376424 64.43824768 115.70011902 C67.28126364 118.50264899 70.24864533 121.10512792 73.31324768 123.66105652 C74.90699768 125.13371277 74.90699768 125.13371277 76.90699768 128.13371277 C49.84699768 128.13371277 22.78699768 128.13371277 -5.09300232 128.13371277 C-5.09300232 102.72371277 -5.09300232 77.31371277 -5.09300232 51.13371277 C-4.10300232 51.46371277 -3.11300232 51.79371277 -2.09300232 52.13371277 C-1.76300232 39.26371277 -1.43300232 26.39371277 -1.09300232 13.13371277 C-2.41300232 12.47371277 -3.73300232 11.81371277 -5.09300232 11.13371277 C-5.11988383 9.48796711 -5.13934355 7.84209863 -5.15550232 6.19621277 C-5.16710388 5.27968933 -5.17870544 4.36316589 -5.19065857 3.41886902 C-5.02388978 -0.48352063 -3.47091301 0.00754646 0 0 Z M11.90699768 91.13371277 C11.90699768 97.73371277 11.90699768 104.33371277 11.90699768 111.13371277 C18.83699768 111.13371277 25.76699768 111.13371277 32.90699768 111.13371277 C28.39174545 105.75629523 28.39174545 105.75629523 23.54762268 100.86027527 C22.98945862 100.34593933 22.43129456 99.83160339 21.85621643 99.30168152 C21.29547424 98.79250183 20.73473206 98.28332214 20.15699768 97.75871277 C19.58078674 97.22632996 19.00457581 96.69394714 18.41090393 96.14543152 C15.38880003 93.3206152 15.38880003 93.3206152 11.90699768 91.13371277 Z " fill="#070604" transform="translate(5.0930023193359375,-0.1337127685546875)"/>
<path d="M0 0 C30.03 0 60.06 0 91 0 C91 1.65 91 3.3 91 5 C89.41300293 4.98259766 89.41300293 4.98259766 87.79394531 4.96484375 C83.81241364 4.93194514 79.83253546 4.95241224 75.85107422 4.98779297 C74.13851681 4.99583013 72.42582926 4.99000524 70.71337891 4.96923828 C59.96709545 4.84990492 52.74827648 5.44079487 43.94824219 12.08984375 C43.30532227 12.72019531 42.66240234 13.35054687 42 14 C42 14.66 42 15.32 42 16 C49.99458083 23.83829579 57.51733617 25.01659308 68.20703125 25.05859375 C69.88803065 25.0399269 71.56902056 25.02038531 73.25 25 C74.97788529 25.00810909 76.70575765 25.01980206 78.43359375 25.03515625 C82.62339225 25.06470884 86.81037713 25.04594165 91 25 C91 29.29 91 33.58 91 38 C79.45 38 67.9 38 56 38 C56 39.32 56 40.64 56 42 C62.27 42 68.54 42 75 42 C75 43.32 75 44.64 75 46 C68.73 46 62.46 46 56 46 C56 47.32 56 48.64 56 50 C61.94 50 67.88 50 74 50 C74 52.64 74 55.28 74 58 C66.12416627 58.25647586 58.24933499 58.45110938 50.37035751 58.56993389 C46.7102339 58.62701079 43.05299455 58.7042087 39.39453125 58.82983398 C10.94518343 59.77759169 10.94518343 59.77759169 4.0625 53.96875 C-2.99601507 45.26357578 -1.23955715 33.35927955 -0.75 22.8125 C-0.5025 15.284375 -0.255 7.75625 0 0 Z " fill="#DBDDE1" transform="translate(8,12)"/>
<path d="M0 0 C8.8790625 -0.0309375 8.8790625 -0.0309375 17.9375 -0.0625 C19.80784912 -0.071604 21.67819824 -0.08070801 23.60522461 -0.09008789 C25.07926359 -0.09300709 26.55330337 -0.09555564 28.02734375 -0.09765625 C28.79953247 -0.10277222 29.57172119 -0.10788818 30.36730957 -0.11315918 C32.24525187 -0.11346974 34.12309253 -0.06233569 36 0 C37 1 37 1 37.12025452 3.24623108 C37.11803391 4.23884445 37.11581329 5.23145782 37.11352539 6.25415039 C37.11344986 7.37523697 37.11337433 8.49632355 37.11329651 9.65138245 C37.10813522 10.8711528 37.10297394 12.09092316 37.09765625 13.34765625 C37.0962413 14.58921982 37.09482635 15.83078339 37.09336853 17.10997009 C37.08870591 20.41605491 37.07971497 23.72207146 37.06866455 27.02813721 C37.05844827 30.39961139 37.05381574 33.77109282 37.04882812 37.14257812 C37.03862279 43.76175739 37.01905106 50.38081653 37 57 C24.79 57 12.58 57 0 57 C0 38.19 0 19.38 0 0 Z " fill="#F3CF6C" transform="translate(87,54)"/>
<path d="M0 0 C5.8932135 4.21601546 10.96430821 8.73952518 16 13.9375 C20.57701502 18.63519803 25.21483625 23.13350747 30.1875 27.41235352 C32.57233678 29.50133434 34.78889299 31.72913334 37 34 C40.51976935 37.56269337 44.12878299 40.90096001 47.93359375 44.15234375 C51.29914915 47.16162107 54.42060496 50.41167598 57.58984375 53.625 C59.70256326 55.70690188 61.85556029 57.6552537 64.125 59.5625 C65.07375 60.366875 66.0225 61.17125 67 62 C67 62.33 67 62.66 67 63 C44.89 63 22.78 63 0 63 C0 61.68 0 60.36 0 59 C1.32 59 2.64 59 4 59 C4 57.68 4 56.36 4 55 C2.68 55 1.36 55 0 55 C0 53.35 0 51.7 0 50 C1.32 50 2.64 50 4 50 C4 48.68 4 47.36 4 46 C2.68 46 1.36 46 0 46 C0 44.68 0 43.36 0 42 C1.32 42 2.64 42 4 42 C4 40.68 4 39.36 4 38 C2.68 38 1.36 38 0 38 C0 36.68 0 35.36 0 34 C1.32 34 2.64 34 4 34 C4 32.68 4 31.36 4 30 C2.68 30 1.36 30 0 30 C0 28.68 0 27.36 0 26 C1.32 26 2.64 26 4 26 C4 24.68 4 23.36 4 22 C2.68 22 1.36 22 0 22 C0 20.35 0 18.7 0 17 C1.32 17 2.64 17 4 17 C4 15.68 4 14.36 4 13 C2.68 13 1.36 13 0 13 C0 8.71 0 4.42 0 0 Z M13 30 C13 36.6 13 43.2 13 50 C19.93 50 26.86 50 34 50 C29.48474777 44.62258246 29.48474777 44.62258246 24.640625 39.7265625 C24.08246094 39.21222656 23.52429687 38.69789062 22.94921875 38.16796875 C22.38847656 37.65878906 21.82773437 37.14960937 21.25 36.625 C20.67378906 36.09261719 20.09757812 35.56023437 19.50390625 35.01171875 C16.48180235 32.18690243 16.48180235 32.18690243 13 30 Z " fill="#F6E2A1" transform="translate(4,61)"/>
<path d="M0 0 C5.53293974 4.14970481 10.27036255 8.03650857 15 12.9375 C19.25891149 17.27785681 23.53993276 21.4694884 28.1796875 25.40625 C31.62022984 28.41857033 34.90901202 31.62950779 38 35 C38 35.33 38 35.66 38 36 C25.46 36 12.92 36 0 36 C0 24.12 0 12.24 0 0 Z M5 11 C5 17.6 5 24.2 5 31 C11.93 31 18.86 31 26 31 C21.48474777 25.62258246 21.48474777 25.62258246 16.640625 20.7265625 C16.08246094 20.21222656 15.52429687 19.69789062 14.94921875 19.16796875 C14.38847656 18.65878906 13.82773437 18.14960937 13.25 17.625 C12.67378906 17.09261719 12.09757812 16.56023437 11.50390625 16.01171875 C8.48180235 13.18690243 8.48180235 13.18690243 5 11 Z " fill="#12100C" transform="translate(12,80)"/>
<path d="M0 0 C9.57 0 19.14 0 29 0 C29 5.28 29 10.56 29 16 C19.43 16 9.86 16 0 16 C0 10.72 0 5.44 0 0 Z " fill="#050606" transform="translate(91,58)"/>
<path d="M0 0 C32.67 0 65.34 0 99 0 C99 1.32 99 2.64 99 4 C66.33 4 33.66 4 0 4 C0 2.68 0 1.36 0 0 Z " fill="#7E8A95" transform="translate(4,4)"/>
<path d="M0 0 C4.62 0 9.24 0 14 0 C14 1.32 14 2.64 14 4 C10.37 4 6.74 4 3 4 C3.061875 5.4025 3.12375 6.805 3.1875 8.25 C3.19517664 14.10727773 2.47057001 19.779359 1.625 25.5625 C1.49891357 26.45549805 1.37282715 27.34849609 1.24291992 28.26855469 C1.11377197 29.1093457 0.98462402 29.95013672 0.8515625 30.81640625 C0.73635254 31.57381104 0.62114258 32.33121582 0.50244141 33.11157227 C0 35 0 35 -2 37 C-2.58007812 36.21753906 -3.16015625 35.43507812 -3.7578125 34.62890625 C-4.53898437 33.61699219 -5.32015625 32.60507812 -6.125 31.5625 C-6.89070313 30.55316406 -7.65640625 29.54382813 -8.4453125 28.50390625 C-11.36710276 25.64019439 -12.98312056 25.22704101 -17 25 C-17 23.35 -17 21.7 -17 20 C-11.75789474 19.56315789 -11.75789474 19.56315789 -9 20 C-6.5 22.375 -6.5 22.375 -5 25 C-5 25.66 -5 26.32 -5 27 C-4.34 27 -3.68 27 -3 27 C-2.95101563 25.97261719 -2.90203125 24.94523437 -2.8515625 23.88671875 C-2.42641458 15.76472425 -1.66333251 7.98399603 0 0 Z " fill="#111112" transform="translate(29,25)"/>
<path d="M0 0 C0.45890625 0.42152344 0.9178125 0.84304687 1.390625 1.27734375 C2.00421875 1.82519531 2.6178125 2.37304688 3.25 2.9375 C3.85328125 3.48277344 4.4565625 4.02804688 5.078125 4.58984375 C7.17427401 6.12787178 8.3944571 6.87786518 11 7 C13.01492568 5.5913183 13.01492568 5.5913183 14.75 3.5625 C15.36359375 2.90378906 15.9771875 2.24507812 16.609375 1.56640625 C17.06828125 1.04949219 17.5271875 0.53257813 18 0 C18.99 0.99 19.98 1.98 21 3 C20.48308594 3.45890625 19.96617188 3.9178125 19.43359375 4.390625 C18.77488281 5.00421875 18.11617187 5.6178125 17.4375 6.25 C16.77621094 6.85328125 16.11492188 7.4565625 15.43359375 8.078125 C13.78176575 9.86830805 13.78176575 9.86830805 14.09375 12 C15.13413753 14.29602764 16.37376255 15.88160963 18.0625 17.75 C18.61035156 18.36359375 19.15820312 18.9771875 19.72265625 19.609375 C20.14417969 20.06828125 20.56570312 20.5271875 21 21 C20.01 21.66 19.02 22.32 18 23 C17.54109375 22.48308594 17.0821875 21.96617188 16.609375 21.43359375 C15.68898438 20.44552734 15.68898438 20.44552734 14.75 19.4375 C14.14671875 18.77621094 13.5434375 18.11492188 12.921875 17.43359375 C11.13169195 15.78176575 11.13169195 15.78176575 9 16.09375 C6.70397236 17.13413753 5.11839037 18.37376255 3.25 20.0625 C2.63640625 20.61035156 2.0228125 21.15820312 1.390625 21.72265625 C0.70226563 22.35494141 0.70226563 22.35494141 0 23 C-0.66 22.01 -1.32 21.02 -2 20 C-1.48308594 19.54109375 -0.96617188 19.0821875 -0.43359375 18.609375 C0.55447266 17.68898438 0.55447266 17.68898438 1.5625 16.75 C2.22378906 16.14671875 2.88507812 15.5434375 3.56640625 14.921875 C5.21823425 13.13169195 5.21823425 13.13169195 4.90625 11 C3.86586247 8.70397236 2.62623745 7.11839037 0.9375 5.25 C0.38964844 4.63640625 -0.15820312 4.0228125 -0.72265625 3.390625 C-1.14417969 2.93171875 -1.56570312 2.4728125 -2 2 C-1.34 1.34 -0.68 0.68 0 0 Z " fill="#020202" transform="translate(38,36)"/>
<path d="M0 0 C15.18 0 30.36 0 46 0 C46 1.32 46 2.64 46 4 C30.82 4 15.64 4 0 4 C0 2.68 0 1.36 0 0 Z " fill="#EF7967" transform="translate(66,21)"/>
<path d="M0 0 C14.85 0 29.7 0 45 0 C45 1.32 45 2.64 45 4 C30.15 4 15.3 4 0 4 C0 2.68 0 1.36 0 0 Z " fill="#B3DC7E" transform="translate(66,29)"/>
<path d="M0 0 C6.93 0 13.86 0 21 0 C21 2.64 21 5.28 21 8 C14.07 8 7.14 8 0 8 C0 5.36 0 2.72 0 0 Z " fill="#67D2EF" transform="translate(95,62)"/>
<path d="M0 0 C10.23 0 20.46 0 31 0 C31 1.32 31 2.64 31 4 C20.77 4 10.54 4 0 4 C0 2.68 0 1.36 0 0 Z " fill="#101011" transform="translate(64,41)"/>
<path d="M0 0 C1.98 0 3.96 0 6 0 C8 2 8 2 8.265625 3.875 C8.26046875 4.57625 8.2553125 5.2775 8.25 6 C8.25515625 6.70125 8.2603125 7.4025 8.265625 8.125 C8 10 8 10 6 12 C4.02 12 2.04 12 0 12 C0 8.04 0 4.08 0 0 Z " fill="#F8E3A2" transform="translate(116,21)"/>
<path d="M0 0 C1.32 0 2.64 0 4 0 C4 1.65 4 3.3 4 5 C5.32 5 6.64 5 8 5 C8 6.32 8 7.64 8 9 C6.68 9 5.36 9 4 9 C4 10.32 4 11.64 4 13 C2.68 13 1.36 13 0 13 C0 11.68 0 10.36 0 9 C-1.32 9 -2.64 9 -4 9 C-4 7.68 -4 6.36 -4 5 C-2.68 5 -1.36 5 0 5 C0 3.35 0 1.7 0 0 Z " fill="#0E0C06" transform="translate(95,78)"/>
<path d="M0 0 C1.875 0.375 1.875 0.375 4 1 C5.32 1 6.64 1 8 1 C8 1.99 8 2.98 8 4 C8.185625 4.680625 8.37125 5.36125 8.5625 6.0625 C9 8 9 8 8 10 C7.2575 9.835 6.515 9.67 5.75 9.5 C2.80993422 8.88074304 2.80993422 8.88074304 -1 9 C-1 8.01 -1 7.02 -1 6 C-1.20625 5.319375 -1.4125 4.63875 -1.625 3.9375 C-1.74875 3.298125 -1.8725 2.65875 -2 2 C-1.34 1.34 -0.68 0.68 0 0 Z " fill="#0F0C06" transform="translate(110,96)"/>
<path d="M0 0 C4.29 0 8.58 0 13 0 C13 1.65 13 3.3 13 5 C8.71 5 4.42 5 0 5 C0 3.35 0 1.7 0 0 Z " fill="#352D17" transform="translate(107,82)"/>
<path d="M0 0 C3.96 0 7.92 0 12 0 C12 1.32 12 2.64 12 4 C8.04 4 4.08 4 0 4 C0 2.68 0 1.36 0 0 Z " fill="#0E0C06" transform="translate(91,103)"/>
<path d="M0 0 C3.96 0 7.92 0 12 0 C12 1.32 12 2.64 12 4 C8.04 4 4.08 4 0 4 C0 2.68 0 1.36 0 0 Z " fill="#000000" transform="translate(91,95)"/>
<path d="M0 0 C0 2.64 0 5.28 0 8 C-1.98 7.01 -3.96 6.02 -6 5 C-4.87312259 1.61936778 -3.78825335 0 0 0 Z " fill="#E0CCBB" transform="translate(62,23)"/>
</svg>
