<?xml version="1.0" encoding="UTF-8"?>
<svg version="1.1" xmlns="http://www.w3.org/2000/svg" width="512" height="512">
<path d="M0 0 C14.83861025 12.10401571 25.16305634 27.64913685 28.30664062 46.72021484 C28.30664062 48.04021484 28.30664062 49.36021484 28.30664062 50.72021484 C34.57664062 50.72021484 40.84664063 50.72021484 47.30664062 50.72021484 C47.96664063 48.74021484 48.62664062 46.76021484 49.30664062 44.72021484 C49.94136933 43.38678526 50.61053267 42.06886957 51.32226562 40.77490234 C51.68578125 40.09041016 52.04929687 39.40591797 52.42382812 38.70068359 C53.18581883 37.28443191 53.95683787 35.87300458 54.73632812 34.46630859 C56.92078456 30.62167801 56.92078456 30.62167801 56.64257812 26.40771484 C56.20171875 25.85083984 55.76085937 25.29396484 55.30664062 24.72021484 C51.26934306 17.57730377 50.90609205 9.21670738 52.92773438 1.28271484 C55.58532526 -4.76478086 60.78657288 -9.50793898 66.63476562 -12.45166016 C73.10879028 -14.4582292 81.47941639 -14.55591786 87.74414062 -11.77978516 C93.56899841 -8.25981733 98.28880644 -2.79015582 100.30664062 3.72021484 C101.11178168 11.55629692 101.43124454 19.33944061 96.30664062 25.72021484 C91.83942664 30.41125583 87.48914359 34.54567453 80.77929688 34.82568359 C78.28386909 34.84318309 75.80037922 34.80737464 73.30664062 34.72021484 C73.03932129 35.5808252 72.77200195 36.44143555 72.49658203 37.328125 C71.30860127 40.71462575 69.88442862 43.7916543 68.26757812 46.99365234 C67.74470215 48.03440918 67.22182617 49.07516602 66.68310547 50.14746094 C66.02262207 51.45021973 65.36213867 52.75297852 64.68164062 54.09521484 C62.57789063 58.26146484 60.47414063 62.42771484 58.30664062 66.72021484 C48.40664063 66.72021484 38.50664062 66.72021484 28.30664062 66.72021484 C27.97664063 69.69021484 27.64664062 72.66021484 27.30664062 75.72021484 C26.64664062 78.03021484 25.98664063 80.34021484 25.30664062 82.72021484 C41.47664063 82.72021484 57.64664063 82.72021484 74.30664062 82.72021484 C76.78164063 87.62896484 79.25664062 92.53771484 81.80664062 97.59521484 C82.58974609 99.14321777 83.37285156 100.6912207 84.1796875 102.28613281 C84.7952393 103.51139657 85.41049418 104.73680956 86.02539062 105.96240234 C86.34926758 106.59992432 86.67314453 107.23744629 87.00683594 107.89428711 C89.30664062 112.49207124 89.30664062 112.49207124 89.30664062 114.72021484 C89.93570312 114.67380859 90.56476563 114.62740234 91.21289062 114.57958984 C97.53169986 114.31313403 102.15787071 114.89328234 107.30664062 118.72021484 C112.3633074 123.49761797 115.91415584 127.90033384 116.64257812 134.98974609 C116.73647266 143.50598057 116.42436942 149.39616978 110.43554688 155.68505859 C103.53169331 162.06688164 98.10496133 163.20063736 88.75195312 163.02490234 C80.88983308 162.32961282 76.75705359 158.67267466 71.75195312 152.81787109 C67.29093882 146.34337195 67.57725161 139.32302271 68.30664062 131.72021484 C69.32739681 128.66256509 70.58482231 126.4855594 72.30664062 123.72021484 C73.61245886 120.85150464 73.61245886 120.85150464 72.50219727 118.57543945 C71.86592407 117.36126343 71.86592407 117.36126343 71.21679688 116.12255859 C70.53520508 114.79708008 70.53520508 114.79708008 69.83984375 113.44482422 C69.35451172 112.52507812 68.86917969 111.60533203 68.36914062 110.65771484 C67.41912628 108.8352643 66.47234217 107.01112508 65.52929688 105.18505859 C65.10398682 104.37673584 64.67867676 103.56841309 64.24047852 102.7355957 C63.30664062 100.72021484 63.30664062 100.72021484 63.30664062 98.72021484 C47.79664063 98.72021484 32.28664063 98.72021484 16.30664062 98.72021484 C15.64664062 100.04021484 14.98664063 101.36021484 14.30664062 102.72021484 C13.97664063 103.38021484 13.64664062 104.04021484 13.30664062 104.72021484 C11.65849115 111.54851116 10.73971207 119.05785765 13.30664062 125.72021484 C18.68811321 131.83952917 26.05782779 135.76207974 33.17358398 139.56298828 C35.30664062 140.72021484 35.30664062 140.72021484 36.30664062 141.72021484 C36.33064787 144.06149242 36.29679716 146.38084695 36.23632812 148.72021484 C36.22541291 150.17983036 36.21770841 151.63947272 36.21289062 153.09912109 C36.20507611 155.40098374 36.18244618 157.69644069 36.10449219 159.99707031 C35.67475788 169.36918483 35.67475788 169.36918483 39.58935547 177.57958984 C42.39018813 179.86121809 45.24971526 181.80024935 48.30664062 183.72021484 C49.57887202 184.77427118 50.83080652 185.85395732 52.04882812 186.97021484 C52.57734375 187.43298828 53.10585938 187.89576172 53.65039062 188.37255859 C54.69994681 189.29627513 55.74396721 190.22630877 56.78320312 191.16162109 C59.86850135 193.84216485 62.16766659 195.49572812 66.30664062 195.72021484 C67.29664063 195.39021484 68.28664063 195.06021484 69.30664062 194.72021484 C77.20761382 194.10781413 84.86501311 193.54673771 91.30664062 198.72021484 C96.35185284 203.52470123 99.91227057 207.88198539 100.64257812 214.98974609 C100.73647266 223.50598057 100.42436942 229.39616978 94.43554688 235.68505859 C87.53169331 242.06688164 82.10496133 243.20063736 72.75195312 243.02490234 C64.88983308 242.32961282 60.75705359 238.67267466 55.75195312 232.81787109 C52.29493125 227.80051773 52.3413584 224.6895353 53.11914062 218.72021484 C53.34540503 214.98891746 53.22636954 212.02124368 51.02050781 208.90087891 C47.47902467 205.19680855 43.41450121 202.15853239 39.2734375 199.15869141 C36.49477943 197.12643553 33.88390362 194.92974022 31.24414062 192.72021484 C30.42816406 192.06021484 29.6121875 191.40021484 28.77148438 190.72021484 C27.95808594 190.06021484 27.1446875 189.40021484 26.30664062 188.72021484 C25.20449219 188.12982422 24.10234375 187.53943359 22.96679688 186.93115234 C21.42993164 185.64892578 21.42993164 185.64892578 20.30664062 183.72021484 C20.0051358 179.29723144 20.38953617 174.93388716 20.68359375 170.51956177 C21.4263303 159.04660834 21.4263303 159.04660834 17.14257812 148.77050781 C11.8573223 144.02827062 5.8519774 140.66599818 -0.57617188 137.70288086 C-2.69335937 136.72021484 -2.69335937 136.72021484 -3.69335938 135.72021484 C-3.9298946 133.19425225 -4.11509629 130.68914277 -4.25585938 128.15771484 C-4.29904297 127.44679687 -4.34222656 126.73587891 -4.38671875 126.00341797 C-4.49307714 124.24259572 -4.59374784 122.48143165 -4.69335938 120.72021484 C-5.63695312 121.19072266 -6.58054687 121.66123047 -7.55273438 122.14599609 C-16.54660453 126.54114264 -25.48341595 130.72021484 -35.69335938 130.72021484 C-35.69335938 138.64021484 -35.69335938 146.56021484 -35.69335938 154.72021484 C-33.38335937 154.63771484 -31.07335937 154.55521484 -28.69335938 154.47021484 C-21.1304202 154.39555922 -16.25598793 155.32081429 -10.73242188 160.59130859 C-4.34319347 167.48906743 -3.21297354 172.92384637 -3.38867188 182.27490234 C-4.08885111 190.19231367 -7.80755337 194.32593978 -13.69335938 199.37255859 C-15.74632074 200.7559017 -17.30514261 201.19064022 -19.69335938 201.72021484 C-19.67241211 202.60056396 -19.65146484 203.48091309 -19.62988281 204.38793945 C-18.95368775 237.12134393 -18.95368775 237.12134393 -23.69335938 250.72021484 C-24.00684326 251.65824951 -24.00684326 251.65824951 -24.32666016 252.61523438 C-29.80040556 268.7494577 -38.62434537 281.80963883 -50.69335938 293.72021484 C-52.02173828 295.0640625 -52.02173828 295.0640625 -53.37695312 296.43505859 C-68.75607899 311.26574609 -92.00191521 322.72021484 -113.69335938 322.72021484 C-113.34402344 323.39568359 -112.9946875 324.07115234 -112.63476562 324.76708984 C-112.17972656 325.65912109 -111.7246875 326.55115234 -111.25585938 327.47021484 C-110.80339844 328.35193359 -110.3509375 329.23365234 -109.88476562 330.14208984 C-103.67776262 343.57363732 -108.38433266 362.95865615 -110.17773438 377.05615234 C-110.43780108 379.15394715 -110.6972491 381.25181873 -110.95611572 383.34976196 C-111.4970257 387.71230779 -112.04591335 392.07375369 -112.60058594 396.43457031 C-113.30689229 401.99336459 -113.99197117 407.55453825 -114.67101669 413.1167202 C-115.20095775 417.43665365 -115.74261011 421.7550587 -116.28766632 426.07310867 C-116.5448765 428.12254709 -116.79843456 430.17244763 -117.04808807 432.22282028 C-119.1945941 449.76706113 -121.44978461 464.30175556 -135.60742188 476.18115234 C-141.81987121 480.76486964 -147.72128925 482.8349735 -155.41529846 482.86738586 C-156.58288193 482.87454117 -157.75046539 482.88169647 -158.95343018 482.8890686 C-160.23087097 482.89175751 -161.50831177 482.89444641 -162.82446289 482.8972168 C-164.18649976 482.90348505 -165.54853492 482.91013217 -166.91056824 482.91712952 C-171.381122 482.93813652 -175.85167596 482.94853156 -180.32226562 482.95849609 C-181.86485245 482.96254548 -183.40743909 482.96666245 -184.95002556 482.97084618 C-192.2014157 482.9898937 -199.45279571 483.00412335 -206.70420605 483.01245815 C-215.05530066 483.02221693 -223.40612925 483.04850255 -231.75713021 483.08895904 C-238.22357351 483.11920265 -244.68994094 483.13393496 -251.15645355 483.13723916 C-255.01280944 483.13958105 -258.86888103 483.14842775 -262.7251606 483.17370033 C-266.35895992 483.19712987 -269.99229078 483.20115537 -273.62614632 483.19093895 C-275.5790015 483.1902143 -277.5318337 483.20920222 -279.48458862 483.22900391 C-292.2638584 483.1542669 -301.44516106 479.5495636 -310.69335938 470.72021484 C-319.84091829 461.23634862 -320.57254782 447.16712215 -321.69335938 434.72021484 C-322.49257813 434.76662109 -323.29179687 434.81302734 -324.11523438 434.86083984 C-338.36154015 435.3290283 -352.39535998 430.30713155 -363.00976562 420.53271484 C-378.22610663 404.15131757 -380.58410426 387.59995681 -379.88867188 366.13427734 C-378.06037363 334.17562397 -360.82989659 303.46524237 -337.41162109 282.21972656 C-316.93439261 264.3494314 -292.46972024 254.43122434 -265.69335938 250.72021484 C-264.36775972 250.53066111 -263.04223541 250.34057947 -261.71679688 250.14990234 C-260.7190625 250.00810547 -259.72132813 249.86630859 -258.69335938 249.72021484 C-258.03335938 246.42021484 -257.37335938 243.12021484 -256.69335938 239.72021484 C-257.49257813 239.35412109 -258.29179687 238.98802734 -259.11523438 238.61083984 C-274.15533342 231.19670651 -283.83242121 220.51890308 -289.69335938 204.72021484 C-290.64800433 201.39099084 -291.36191051 198.16728301 -291.69335938 194.72021484 C-292.80710937 194.80271484 -293.92085938 194.88521484 -295.06835938 194.97021484 C-302.7211891 194.94312518 -309.62483173 191.59494821 -315.16210938 186.42333984 C-321.37911828 179.50850341 -324.07509042 172.13975776 -324.00585938 162.84521484 C-324.00529541 162.13413574 -324.00473145 161.42305664 -324.00415039 160.69042969 C-323.93817332 156.93448008 -323.66681355 153.78349758 -322.13085938 150.34521484 C-319.87847803 144.66529667 -321.15617209 139.76288735 -322.19702148 133.86743164 C-323.6034902 125.61418143 -324.05948937 117.58463214 -324.06835938 109.22021484 C-324.09285156 108.00462891 -324.11734375 106.78904297 -324.14257812 105.53662109 C-324.1932344 89.71497912 -318.7668026 75.38526825 -307.90429688 63.79443359 C-303.24160823 59.42007375 -298.31667998 55.56342504 -292.19335938 53.59521484 C-291.36835938 53.30646484 -290.54335938 53.01771484 -289.69335938 52.72021484 C-288.99375014 51.06710591 -288.33158623 49.39797785 -287.69335938 47.72021484 C-281.40678572 37.93316267 -273.06910061 30.57685194 -262.75585938 25.34521484 C-262.12429932 25.02351318 -261.49273926 24.70181152 -260.84204102 24.37036133 C-251.18861728 19.74126994 -241.78787525 18.25813093 -231.15039062 18.28662109 C-229.98311935 18.28137924 -228.81584808 18.27613739 -227.61320496 18.27073669 C-225.15677684 18.26434986 -222.70031799 18.26560984 -220.24389648 18.27416992 C-216.53312182 18.28265252 -212.82390339 18.25391213 -209.11328125 18.22216797 C-193.26297481 18.17379274 -178.5538732 18.78680616 -164.31835938 26.53271484 C-163.32932617 27.04983032 -163.32932617 27.04983032 -162.3203125 27.57739258 C-156.79392377 30.52800243 -151.62003407 33.84290408 -146.69335938 37.72021484 C-145.99984375 38.26162109 -145.30632812 38.80302734 -144.59179688 39.36083984 C-131.14782553 50.46898605 -122.52897464 66.17041532 -117.69335938 82.72021484 C-117.50717041 83.33952881 -117.32098145 83.95884277 -117.12915039 84.59692383 C-115.16965937 92.00709328 -115.34661292 99.55092806 -115.38085938 107.15771484 C-115.38068817 107.86620575 -115.38051697 108.57469666 -115.38034058 109.30465698 C-115.38977095 118.44578534 -115.71004074 127.37146277 -117.71362305 136.3293457 C-118.94880703 141.88659954 -118.54053307 146.31245801 -116.65429688 151.67333984 C-114.00835765 160.06290323 -114.63613161 170.69317727 -118.43554688 178.61083984 C-122.92408319 186.13819889 -128.71618208 190.54269978 -136.69335938 194.03271484 C-140.48129381 194.90078315 -143.81189268 194.85405852 -147.69335938 194.72021484 C-147.74492187 195.25646484 -147.79648438 195.79271484 -147.84960938 196.34521484 C-149.94920076 210.85148261 -158.06130336 223.92842494 -169.69335938 232.72021484 C-180.18903305 239.72021484 -180.18903305 239.72021484 -184.69335938 239.72021484 C-184.47679687 240.33509766 -184.26023438 240.94998047 -184.03710938 241.58349609 C-183.61945313 242.79585938 -183.61945313 242.79585938 -183.19335938 244.03271484 C-182.91492188 244.83322266 -182.63648438 245.63373047 -182.34960938 246.45849609 C-181.69335938 248.72021484 -181.69335938 248.72021484 -181.69335938 251.72021484 C-181.0875 251.76919922 -180.48164063 251.81818359 -179.85742188 251.86865234 C-172.83094947 252.49562988 -166.08081263 253.77417024 -159.19335938 255.25927734 C-140.2325057 259.22920608 -120.13015489 259.52947388 -103.08789062 249.13037109 C-101.58596224 248.12826879 -100.09764882 247.105112 -98.63085938 246.05224609 C-96.69335938 244.72021484 -96.69335938 244.72021484 -94.56835938 243.79443359 C-92.19220025 242.43309243 -91.80265185 241.18782464 -90.69335938 238.72021484 C-89.61349815 237.34658785 -88.50703014 235.99363804 -87.38085938 234.65771484 C-82.46505766 228.44882124 -79.01879551 221.56002857 -77.69335938 213.72021484 C-78.40492188 213.46498047 -79.11648438 213.20974609 -79.84960938 212.94677734 C-88.00334574 209.42991853 -94.97120432 203.8692048 -98.69335938 195.72021484 C-101.02086814 188.73768854 -100.85791303 180.20218403 -97.81835938 173.47021484 C-95.58207784 169.5985927 -93.08169679 167.41276288 -89.60351562 164.65380859 C-83.41786336 158.55272139 -83.189312 152.60038798 -83.01953125 144.31982422 C-83.01880615 143.45123779 -83.01808105 142.58265137 -83.01733398 141.68774414 C-83.00581231 139.02182394 -82.89287668 136.37328833 -82.76953125 133.71044922 C-82.31119623 124.91584726 -82.31119623 124.91584726 -85.60449219 117.08789062 C-87.89119503 115.31524912 -90.13218079 114.04968363 -92.69335938 112.72021484 C-102.10943781 104.68691716 -108.27273282 94.1846969 -112.69335938 82.72021484 C-113.17482422 81.47498047 -113.17482422 81.47498047 -113.66601562 80.20458984 C-119.37802694 62.03242362 -116.62420113 40.76099743 -108.13085938 24.03271484 C-98.31204028 5.98870699 -81.63429724 -6.10979517 -62.25585938 -12.21728516 C-40.94019993 -16.83856634 -17.54585144 -13.26057573 0 0 Z " fill="#000000" transform="translate(387.693359375,21.27978515625)"/>
<path d="M0 0 C1.31917923 -0.0071553 2.63835846 -0.01431061 3.99751282 -0.02168274 C5.46830726 -0.02452321 6.93910196 -0.02723491 8.40989685 -0.02983093 C9.95222121 -0.03609458 11.49454405 -0.04274129 13.03686523 -0.04974365 C18.11228887 -0.07080594 23.18771287 -0.08115106 28.26316833 -0.09111023 C30.01072137 -0.09515759 31.75827424 -0.09927451 33.50582695 -0.10346031 C41.71937284 -0.12252021 49.93290971 -0.13674708 58.14647347 -0.14507228 C67.62164395 -0.15483487 77.09658022 -0.18112538 86.57166821 -0.22157317 C93.89748059 -0.25177002 101.22322599 -0.26654472 108.54909939 -0.26985329 C112.92296064 -0.2722006 117.29657191 -0.28111857 121.67036629 -0.30631447 C125.79001615 -0.32966141 129.90925267 -0.33380201 134.02895164 -0.32355309 C135.53615319 -0.32305914 137.04337552 -0.32933765 138.55051422 -0.34310913 C147.84104982 -0.42320878 155.77883432 -0.08754128 163.16160583 6.11201477 C169.85382207 14.37502015 170.49881772 20.13692355 169.4839325 30.64506531 C168.99538979 34.73772879 168.46728822 38.82331587 167.92332458 42.90888977 C167.72578494 44.42800899 167.5288049 45.94720108 167.33235168 47.46646118 C166.81596451 51.44800273 166.2919467 55.42850303 165.76628113 59.40882874 C165.23838592 63.4166979 164.71793802 67.42553298 164.19676208 71.4342804 C162.4294537 85.00853637 160.63093169 98.57839898 158.82176208 112.14717102 C102.72176208 112.14717102 46.62176208 112.14717102 -11.17823792 112.14717102 C-12.36292414 106.22373989 -13.47035555 100.57202961 -14.23146057 94.62471008 C-14.31953476 93.94348083 -14.40760895 93.26225159 -14.49835205 92.56037903 C-14.78355968 90.34499525 -15.06334679 88.12897538 -15.34230042 85.91279602 C-15.5411582 84.34636105 -15.74008324 82.77993462 -15.93907166 81.21351624 C-16.35351219 77.94271036 -16.76482464 74.6715277 -17.17433167 71.40010071 C-17.69488549 67.24621705 -18.22676153 63.0938697 -18.7614994 58.94179153 C-19.17582254 55.70966337 -19.58218443 52.4765684 -19.9864769 49.24317169 C-20.17899092 47.71370004 -20.37427605 46.18457412 -20.57260513 44.65584564 C-24.13152557 17.13987845 -24.13152557 17.13987845 -18.88136292 9.05342102 C-13.67554056 3.22672077 -7.69587252 0.02855834 0 0 Z " fill="#CBD0D8" transform="translate(94.17823791503906,343.8528289794922)"/>
<path d="M0 0 C1.63196392 2.04922742 2.89337732 4.23771436 4.24609375 6.48046875 C9.8796203 14.57317392 19.42611545 20.00935384 29 22 C31.04646058 22.11421977 33.09606964 22.17616359 35.14550781 22.20532227 C36.38649231 22.22526749 37.62747681 22.24521271 38.90606689 22.26576233 C40.255085 22.28274393 41.60410441 22.29962283 42.953125 22.31640625 C44.33746951 22.33698876 45.72180792 22.35798557 47.10614014 22.37937927 C50.742544 22.43446607 54.37900333 22.48393414 58.01550293 22.53222656 C61.72913525 22.58253964 65.44268744 22.63817442 69.15625 22.69335938 C76.43743206 22.80077704 83.71868094 22.90225808 91 23 C91.09324882 31.77189151 91.16404022 40.54360879 91.20724869 49.31589031 C91.22800111 53.39054228 91.25608837 57.46485172 91.30175781 61.53930664 C91.3456622 65.48158377 91.36922956 69.42353436 91.37950897 73.36603737 C91.38682134 74.85974064 91.40109716 76.35342885 91.42292023 77.84699059 C91.62655477 92.38000081 89.20744133 104.9092466 79.2578125 115.9296875 C67.34670709 127.44540352 52.49789572 127.25994325 37.0559082 127.35009766 C34.98938694 127.36660006 32.92292139 127.3938138 30.85668945 127.43212891 C14.04327173 127.74166913 2.15149716 126.27738931 -10.64453125 114.484375 C-18.36431892 106.4323433 -21.09470347 95.51872231 -21.17700195 84.67456055 C-21.18357315 83.95516296 -21.19014435 83.23576538 -21.19691467 82.49456787 C-21.21654705 80.12528359 -21.22828686 77.75606235 -21.23828125 75.38671875 C-21.24235678 74.57384714 -21.2464323 73.76097553 -21.25063133 72.92347145 C-21.27144787 68.62191654 -21.28576936 64.32039312 -21.29516602 60.01879883 C-21.30622935 55.59042162 -21.34064077 51.16254699 -21.38033772 46.73434734 C-21.40655242 43.31554771 -21.41486206 39.89686713 -21.41844749 36.47797585 C-21.42329985 34.84618543 -21.43487512 33.21439986 -21.45348549 31.58270836 C-21.64093656 14.06067997 -21.64093656 14.06067997 -14.7109375 6.50390625 C-13.94007812 5.86324219 -13.16921875 5.22257812 -12.375 4.5625 C-11.59898438 3.90378906 -10.82296875 3.24507813 -10.0234375 2.56640625 C-6.58461565 -0.09569329 -4.34992391 -0.83652383 0 0 Z " fill="#EECEB3" transform="translate(133,121)"/>
<path d="M0 0 C1.01993042 -0.0066568 2.03986084 -0.0133136 3.09069824 -0.02017212 C5.24566862 -0.03026802 7.40067006 -0.03499009 9.55566406 -0.03466797 C12.80588331 -0.03901189 16.05471067 -0.07528425 19.3046875 -0.11328125 C42.60946946 -0.24115569 61.42601506 5.0179105 78.67578125 21.57421875 C91.86901439 35.30686857 98.54354119 52.24305305 98.53125 71.1484375 C98.53189453 72.16494385 98.53253906 73.1814502 98.53320312 74.22875977 C98.47403559 82.76434848 97.62897846 90.9016257 96.34375 99.3359375 C91.72375 98.3459375 87.10375 97.3559375 82.34375 96.3359375 C82.34375 88.4159375 82.34375 80.4959375 82.34375 72.3359375 C79.12625 72.4596875 79.12625 72.4596875 75.84375 72.5859375 C68.09719028 72.5469709 63.78753864 71.5767886 58.15625 66.27734375 C50.97884253 58.67698191 50.03942973 52.64081102 50.21875 42.4609375 C50.22777344 41.48640625 50.23679687 40.511875 50.24609375 39.5078125 C50.2695323 37.11708078 50.30539911 34.72647651 50.34375 32.3359375 C45.06375 32.3359375 39.78375 32.3359375 34.34375 32.3359375 C34.39657485 50.94189326 34.39657485 50.94189326 40.34375 68.3359375 C40.72660156 69.10550781 41.10945313 69.87507813 41.50390625 70.66796875 C41.78105469 71.21839844 42.05820313 71.76882812 42.34375 72.3359375 C34.09739879 72.29775995 29.57282161 69.51134069 23.8046875 63.81640625 C17.97044648 57.35097541 18.07372407 50.69394774 18.21875 42.4609375 C18.22777344 41.48640625 18.23679687 40.511875 18.24609375 39.5078125 C18.2695323 37.11708078 18.30539911 34.72647651 18.34375 32.3359375 C13.06375 32.3359375 7.78375 32.3359375 2.34375 32.3359375 C2.39657485 50.94189326 2.39657485 50.94189326 8.34375 68.3359375 C8.72660156 69.10550781 9.10945313 69.87507813 9.50390625 70.66796875 C9.78105469 71.21839844 10.05820313 71.76882812 10.34375 72.3359375 C3.11841074 72.02847625 -2.06249003 68.79626579 -7.234375 63.81640625 C-13.24382664 56.95621899 -14.07553456 51.23309163 -13.84375 42.4609375 C-13.83021484 41.48640625 -13.81667969 40.511875 -13.80273438 39.5078125 C-13.76757459 37.11694741 -13.71377375 34.72636907 -13.65625 32.3359375 C-18.93625 32.3359375 -24.21625 32.3359375 -29.65625 32.3359375 C-29.65625 37.9459375 -29.65625 43.5559375 -29.65625 49.3359375 C-31.47125 50.0371875 -33.28625 50.7384375 -35.15625 51.4609375 C-46.98190382 56.4277121 -53.93873415 63.54101575 -58.89453125 75.35546875 C-60.59269667 79.77069885 -60.96939494 83.84292032 -61.21875 88.5234375 C-61.26193359 89.27302734 -61.30511719 90.02261719 -61.34960938 90.79492188 C-61.45547685 92.64172125 -61.5563476 94.48880584 -61.65625 96.3359375 C-62.33171875 96.46871094 -63.0071875 96.60148437 -63.703125 96.73828125 C-65.04117188 97.00318359 -65.04117188 97.00318359 -66.40625 97.2734375 C-67.72882813 97.53447266 -67.72882813 97.53447266 -69.078125 97.80078125 C-71.28860053 98.25962238 -73.47137068 98.76929824 -75.65625 99.3359375 C-77.36179552 91.26505244 -77.89653204 83.37711797 -77.96875 75.1484375 C-77.98615234 74.23497559 -78.00355469 73.32151367 -78.02148438 72.38037109 C-78.01274972 60.25011963 -73.77703371 49.75453754 -65.65625 40.7109375 C-62.37445704 37.56129728 -58.58384358 35.62315947 -54.59375 33.5234375 C-48.9209822 30.50913631 -46.02608384 27.63717795 -43.109375 21.91796875 C-36.96251886 10.99573244 -26.03082684 5.26371695 -14.61010742 1.27099609 C-9.79054643 -0.06792704 -4.97124217 0.01144469 0 0 Z " fill="#646B76" transform="translate(157.65625,55.6640625)"/>
<path d="M0 0 C4.19353084 0.90301154 5.962681 4.58350402 8.33203125 7.953125 C9.47212938 9.51271037 10.61546648 11.06993216 11.76171875 12.625 C12.35307617 13.43130859 12.94443359 14.23761719 13.55371094 15.06835938 C17.10366556 19.78782159 20.92413537 24.28605982 24.72436523 28.80444336 C25.27680908 29.46581299 25.82925293 30.12718262 26.3984375 30.80859375 C26.88127197 31.3811792 27.36410645 31.95376465 27.86157227 32.54370117 C29.85354536 35.10607841 31.60366492 37.81007405 33.39453125 40.515625 C32.03722397 40.52775528 32.03722397 40.52775528 30.65249634 40.54013062 C22.09069724 40.61833681 13.52904984 40.70570441 4.96744728 40.80315208 C0.56670864 40.85292356 -3.83400819 40.89925399 -8.23486328 40.9375 C-12.48843704 40.97459634 -16.74181939 41.0210195 -20.99522781 41.07368851 C-22.61134073 41.09210397 -24.22749448 41.10725838 -25.84366989 41.11896896 C-39.9755417 41.22495484 -51.78641921 41.7159402 -62.8359375 51.48828125 C-70.39762987 59.30534034 -74.03303502 67.80706367 -74.04296875 78.703125 C-73.87714895 87.37214449 -72.75960113 95.93176543 -71.60546875 104.515625 C-77.87546875 104.515625 -84.14546875 104.515625 -90.60546875 104.515625 C-90.60546875 109.795625 -90.60546875 115.075625 -90.60546875 120.515625 C-83.67546875 120.515625 -76.74546875 120.515625 -69.60546875 120.515625 C-69.03391659 124.59048572 -68.46360785 128.66549021 -67.89648438 132.7409668 C-67.70320855 134.12713713 -67.50920368 135.51320601 -67.31445312 136.89916992 C-67.03453669 138.89214641 -66.7574651 140.88552181 -66.48046875 142.87890625 C-66.31289062 144.07813721 -66.1453125 145.27736816 -65.97265625 146.51293945 C-65.60546875 149.515625 -65.60546875 149.515625 -65.60546875 152.515625 C-75.92022735 153.37518822 -84.90322054 149.6232136 -92.8671875 143.09375 C-100.3735596 136.27897623 -105.16075137 127.68884322 -106.60546875 117.515625 C-107.02439199 107.98755687 -106.87246424 98.81947931 -104.60546875 89.515625 C-104.37214844 88.41476562 -104.13882813 87.31390625 -103.8984375 86.1796875 C-100.03515464 69.63284127 -92.27462573 54.67995439 -81.60546875 41.515625 C-80.82558594 40.55269531 -80.04570313 39.58976562 -79.2421875 38.59765625 C-57.83124857 13.7525569 -30.77445239 6.09029642 0 0 Z " fill="#5BD4B1" transform="translate(130.60546875,287.484375)"/>
<path d="M0 0 C1.8125 0.8125 1.8125 0.8125 2.8125 1.8125 C2.94625873 3.47705312 3.04391914 5.14455085 3.125 6.8125 C3.9249003 15.89372109 6.73159752 21.52975299 13.71484375 27.40234375 C18.38872162 30.54437338 22.54577752 31.1246464 28.125 31.4375 C29.37925781 31.51226562 30.63351562 31.58703125 31.92578125 31.6640625 C32.87839844 31.71304688 33.83101563 31.76203125 34.8125 31.8125 C35.55922883 62.38625903 30.75429694 86.57135035 9.8125 109.8125 C1.52241777 118.2358157 -8.22331277 124.45389718 -19.1875 128.8125 C-19.46722656 128.131875 -19.74695313 127.45125 -20.03515625 126.75 C-21.99496669 122.01116575 -23.97006992 117.28420423 -26.04296875 112.59375 C-26.3567749 111.88347656 -26.67058105 111.17320312 -26.99389648 110.44140625 C-27.61428683 109.04171574 -28.23741912 107.64323677 -28.86352539 106.24609375 C-30.23942373 103.14174 -31.53905836 100.1570937 -32.1875 96.8125 C-31.50945312 96.4721875 -30.83140625 96.131875 -30.1328125 95.78125 C-11.71545369 86.18993848 1.39153864 71.46957147 8.0703125 51.69921875 C9.49642347 46.15239766 10.18180207 40.49707999 10.8125 34.8125 C10.15507812 34.59335938 9.49765625 34.37421875 8.8203125 34.1484375 C4.77959448 32.35372898 1.31465408 29.94809845 -2.3125 27.4375 C-3.02792969 26.95539063 -3.74335938 26.47328125 -4.48046875 25.9765625 C-12.60160577 20.3904346 -12.60160577 20.3904346 -13.8125 15.0625 C-12.85294902 10.07283492 -9.66851723 7.3536644 -6.1875 3.8125 C-5.1046875 2.5440625 -5.1046875 2.5440625 -4 1.25 C-2.1875 -0.1875 -2.1875 -0.1875 0 0 Z " fill="#EDCDB2" transform="translate(317.1875,192.1875)"/>
<path d="M0 0 C26.4 0 52.8 0 80 0 C80 14.73602307 78.50713941 26.12221759 68.1171875 36.96484375 C59.75064827 44.72439876 49.90523114 48.58549901 38.4453125 48.24609375 C25.99103123 46.99270762 15.83433868 42.21636604 7.7578125 32.5703125 C0.65819868 22.1890994 0 12.5267768 0 0 Z " fill="#010101" transform="translate(128,184)"/>
<path d="M0 0 C5.19648876 0.37173199 10.21577224 0.96589225 15.28515625 2.19140625 C32.99363216 6.44433215 49.92027158 6.54492365 68 6 C69.44302773 8.99737087 70.87838185 11.99835736 72.3125 15 C72.71662109 15.83917969 73.12074219 16.67835938 73.53710938 17.54296875 C80 31.09927591 80 31.09927591 80 37 C73.76892122 38.82924259 68.20220251 39.27737372 61.72851562 39.22705078 C60.73248322 39.22734283 59.73645081 39.22763489 58.7102356 39.22793579 C55.4421495 39.22655065 52.17429591 39.2110279 48.90625 39.1953125 C46.63081995 39.19157947 44.35538829 39.18873387 42.07995605 39.18673706 C36.10904454 39.17912345 30.13823127 39.15949448 24.1673584 39.1373291 C18.06731495 39.11682168 11.96725553 39.10772489 5.8671875 39.09765625 C-6.08858469 39.07624643 -18.04428415 39.04213796 -30 39 C-25.6439341 32.42571591 -25.6439341 32.42571591 -23.15234375 29.40625 C-22.63454346 28.77485107 -22.11674316 28.14345215 -21.58325195 27.49291992 C-21.04015381 26.83525635 -20.49705566 26.17759277 -19.9375 25.5 C-15.51392459 20.09984833 -11.12530128 14.67665225 -6.8125 9.1875 C-6.35544678 8.60742188 -5.89839355 8.02734375 -5.42749023 7.4296875 C-3.52308861 5.00017113 -1.71350913 2.57026369 0 0 Z " fill="#5BD4B1" transform="translate(202,289)"/>
<path d="M0 0 C54.12 0 108.24 0 164 0 C162.04813242 5.85560275 160.40235043 9.84371339 155.20506382 13.13756561 C148.45728586 16.42974128 142.31275834 16.56767395 134.89624023 16.51757812 C132.96770706 16.52809204 132.96770706 16.52809204 131.00021362 16.53881836 C127.49809909 16.55693765 123.99645984 16.55003254 120.4943378 16.53730202 C116.8158795 16.52711688 113.13745967 16.5365827 109.45899963 16.54284668 C103.28484857 16.55010624 97.11088945 16.54057912 90.93676758 16.52148438 C83.81396379 16.49970906 76.69161793 16.50677831 69.56882519 16.52879 C63.43519644 16.54698096 57.301705 16.54948464 51.16805798 16.53903532 C47.51256597 16.53282184 43.85728877 16.53190535 40.20181084 16.54518127 C36.12572265 16.55895319 32.05041594 16.53983014 27.97436523 16.51757812 C26.17324532 16.52972351 26.17324532 16.52972351 24.33573914 16.54211426 C16.50824093 16.46307856 11.07129451 15.45326119 4.94140625 10.25390625 C4.48636719 9.69574219 4.03132813 9.13757813 3.5625 8.5625 C3.08941406 8.00691406 2.61632812 7.45132812 2.12890625 6.87890625 C1 5 1 5 0 0 Z " fill="#A9B1BC" transform="translate(86,472)"/>
<path d="M0 0 C6.50099074 3.68128391 11.87819747 8.78320492 13.9453125 16.1015625 C15.20812266 24.11138693 13.56404504 30.47013291 8.9453125 37.1015625 C4.47848837 42.13071841 -0.87231967 45.59365876 -7.66015625 46.41796875 C-13.9939959 46.688795 -18.95192045 45.99878784 -24.0546875 42.1015625 C-30.68547555 35.894768 -34.00248154 30.87379596 -34.4296875 21.7265625 C-34.25680824 15.00246918 -32.59983783 10.77492003 -27.9609375 5.90234375 C-19.7156089 -1.75206963 -10.78488932 -4.67199659 0 0 Z " fill="#020202" transform="translate(178.0546875,361.8984375)"/>
<path d="M0 0 C12.87 0 25.74 0 39 0 C43 13 43 13 41 17 C39.34213118 19.1991559 37.66365505 21.35607009 35.9375 23.5 C33.01815388 27.15656451 30.11154154 30.81262653 27.34375 34.5859375 C26.93648682 35.14087891 26.52922363 35.69582031 26.10961914 36.26757812 C24.99412801 37.79734142 23.88554661 39.33213616 22.77734375 40.8671875 C22.19082031 41.57101562 21.60429687 42.27484375 21 43 C20.34 43 19.68 43 19 43 C17.27206885 40.99474657 15.65834473 38.98221274 14.0625 36.875 C11.05465699 32.92783901 8.05103918 29.0150687 4.79296875 25.26953125 C-2.68840235 16.55343938 -2.68840235 16.55343938 -3.53515625 12.33203125 C-3.31010049 9.97486829 -2.85537302 8.20310709 -2 6 C-1.34 4.02 -0.68 2.04 0 0 Z " fill="#EDCDB1" transform="translate(148,264)"/>
<path d="M0 0 C14.52 0 29.04 0 44 0 C41.65159577 7.04521269 38.87572193 9.75858483 33 14 C27.07867557 16.58385066 20.0968521 17.16421337 13.828125 15.3828125 C8.34297356 12.98040121 4.32588125 8.93580058 1 4 C0.67 2.68 0.34 1.36 0 0 Z " fill="#FC806C" transform="translate(146,200)"/>
<path d="M0 0 C2.62868183 1.65110469 3.59350965 2.32706812 5 5 C5.62909235 9.61589808 5.46877863 14.16501384 5.3125 18.8125 C5.28994141 20.07771484 5.26738281 21.34292969 5.24414062 22.64648438 C5.18530392 25.76482979 5.09562681 28.88256589 5 32 C-0.28 32 -5.56 32 -11 32 C-11.13487291 27.60314317 -11.23408579 23.2104172 -11.3125 18.8125 C-11.35439453 17.56662109 -11.39628906 16.32074219 -11.43945312 15.03710938 C-11.57761111 4.73052388 -11.57761111 4.73052388 -8.66796875 1.67578125 C-5.36082098 -0.40147555 -3.83173951 -0.79827906 0 0 Z " fill="#EDCDB2" transform="translate(331,144)"/>
<path d="M0 0 C4.2290362 -0.08725659 8.45784012 -0.1404789 12.6875 -0.1875 C13.88568359 -0.21263672 15.08386719 -0.23777344 16.31835938 -0.26367188 C17.47529297 -0.27333984 18.63222656 -0.28300781 19.82421875 -0.29296875 C20.88729248 -0.3086792 21.95036621 -0.32438965 23.0456543 -0.34057617 C26.42477331 0.04896775 28.27990964 0.99204546 31 3 C32.40457737 5.80915474 32.24895157 7.88810534 32 11 C30.22015595 14.1359157 29.47691793 14.84102736 26 16 C22.52517506 16.25394579 19.04564065 16.23126084 15.5625 16.25 C14.13067383 16.2809375 14.13067383 16.2809375 12.66992188 16.3125 C11.74888672 16.31765625 10.82785156 16.3228125 9.87890625 16.328125 C9.0391626 16.3374707 8.19941895 16.34681641 7.33422852 16.35644531 C4.44742792 15.9156202 3.1057398 14.99722064 1 13 C-0.00496852 9.98509443 -0.10335303 7.95818308 -0.0625 4.8125 C-0.05347656 3.91144531 -0.04445313 3.01039063 -0.03515625 2.08203125 C-0.02355469 1.39496094 -0.01195312 0.70789063 0 0 Z " fill="#ECCDB1" transform="translate(336,192)"/>
<path d="M0 0 C9.9 0 19.8 0 30 0 C30 8 30 8 28 16 C19.42 16 10.84 16 2 16 C0 8 0 8 0 0 Z " fill="#68D4F2" transform="translate(329,88)"/>
<path d="M0 0 C8.58 0 17.16 0 26 0 C28 8 28 8 28 16 C18.1 16 8.2 16 -2 16 C-2 8 -2 8 0 0 Z " fill="#68D4F2" transform="translate(331,56)"/>
<path d="M0 0 C7.91317365 1.13045338 7.91317365 1.13045338 10.8125 3.8125 C11.37582031 4.31394531 11.93914062 4.81539062 12.51953125 5.33203125 C16.17097285 9.44592455 16.43409959 13.19581856 16.31640625 18.53125 C15.69970296 23.34305841 12.99340629 26.00659371 9.6875 29.3125 C7 31 7 31 0 32 C0 21.44 0 10.88 0 0 Z " fill="#E9CAAF" transform="translate(240,168)"/>
<path d="M0 0 C0 10.56 0 21.12 0 32 C-7.25202537 30.96399638 -9.38254857 30.10415577 -14 25 C-16.62255682 20.78110425 -16.69212562 15.8363346 -16 11 C-12.44947467 4.03045028 -7.82609187 0 0 0 Z " fill="#EACAAF" transform="translate(96,168)"/>
<path d="M0 0 C7.92 0 15.84 0 24 0 C24.66 5.28 25.32 10.56 26 16 C18.74 16 11.48 16 4 16 C0 5.625 0 5.625 0 0 Z " fill="#67D3F0" transform="translate(289,88)"/>
<path d="M0 0 C7.92 0 15.84 0 24 0 C23 8 23 8 20 16 C13.07 16 6.14 16 -1 16 C-0.67 10.72 -0.34 5.44 0 0 Z " fill="#67D2F0" transform="translate(375,88)"/>
<path d="M0 0 C6.93 0 13.86 0 21 0 C25 10.375 25 10.375 25 16 C17.08 16 9.16 16 1 16 C0.67 10.72 0.34 5.44 0 0 Z " fill="#67D2F0" transform="translate(374,56)"/>
<path d="M0 0 C6.93 0 13.86 0 21 0 C20.67 5.28 20.34 10.56 20 16 C12.08 16 4.16 16 -4 16 C-3 7 -3 7 0 0 Z " fill="#67D2F0" transform="translate(293,56)"/>
<path d="M0 0 C14.52 0 29.04 0 44 0 C42.09174939 5.72475182 40.51080718 8.38051687 37 13 C35.98292969 12.566875 35.98292969 12.566875 34.9453125 12.125 C28.2699666 9.46225815 21.11762235 7.11777309 14.03515625 9.72265625 C10.86496872 10.15467797 9.39049762 8.59720124 6.875 6.75 C6.00617188 6.12609375 5.13734375 5.5021875 4.2421875 4.859375 C2 3 2 3 0 0 Z " fill="#67D2EF" transform="translate(306,120)"/>
<path d="M0 0 C4.0743356 0.84881992 5.54405875 2.30225596 8 5.625 C8.625 8.625 8.625 8.625 8 11.625 C5.54405875 14.94774404 4.0743356 16.40118008 0 17.25 C-4.0743356 16.40118008 -5.54405875 14.94774404 -8 11.625 C-8.625 8.625 -8.625 8.625 -8 5.625 C-5.54405875 2.30225596 -4.0743356 0.84881992 0 0 Z " fill="#64CBE8" transform="translate(168,375.375)"/>
<path d="M0 0 C4.0743356 0.84881992 5.54405875 2.30225596 8 5.625 C8.625 8.625 8.625 8.625 8 11.625 C5.54405875 14.94774404 4.0743356 16.40118008 0 17.25 C-4.0743356 16.40118008 -5.54405875 14.94774404 -8 11.625 C-8.625 8.625 -8.625 8.625 -8 5.625 C-5.54405875 2.30225596 -4.0743356 0.84881992 0 0 Z " fill="#F27B68" transform="translate(464,231.375)"/>
<path d="M0 0 C4.0743356 0.84881992 5.54405875 2.30225596 8 5.625 C8.625 8.625 8.625 8.625 8 11.625 C5.54405875 14.94774404 4.0743356 16.40118008 0 17.25 C-4.0743356 16.40118008 -5.54405875 14.94774404 -8 11.625 C-8.625 8.625 -8.625 8.625 -8 5.625 C-5.54405875 2.30225596 -4.0743356 0.84881992 0 0 Z " fill="#F27B68" transform="translate(480,151.375)"/>
<path d="M0 0 C4.0743356 0.84881992 5.54405875 2.30225596 8 5.625 C8.625 8.625 8.625 8.625 8 11.625 C5.54405875 14.94774404 4.0743356 16.40118008 0 17.25 C-4.0743356 16.40118008 -5.54405875 14.94774404 -8 11.625 C-8.625 8.625 -8.625 8.625 -8 5.625 C-5.54405875 2.30225596 -4.0743356 0.84881992 0 0 Z " fill="#0B0908" transform="translate(200,151.375)"/>
<path d="M0 0 C4.0743356 0.84881992 5.54405875 2.30225596 8 5.625 C8.625 8.625 8.625 8.625 8 11.625 C5.54405875 14.94774404 4.0743356 16.40118008 0 17.25 C-4.0743356 16.40118008 -5.54405875 14.94774404 -8 11.625 C-8.625 8.625 -8.625 8.625 -8 5.625 C-5.54405875 2.30225596 -4.0743356 0.84881992 0 0 Z " fill="#0B0908" transform="translate(136,151.375)"/>
<path d="M0 0 C4.0743356 0.84881992 5.54405875 2.30225596 8 5.625 C8.625 8.625 8.625 8.625 8 11.625 C5.54405875 14.94774404 4.0743356 16.40118008 0 17.25 C-4.0743356 16.40118008 -5.54405875 14.94774404 -8 11.625 C-8.625 8.625 -8.625 8.625 -8 5.625 C-5.54405875 2.30225596 -4.0743356 0.84881992 0 0 Z " fill="#F27B68" transform="translate(464,23.375)"/>
<path d="M0 0 C4.95 0 9.9 0 15 0 C8.88838181 6.11161819 2.47152907 10.77065024 -6 13 C-4.31057815 8.49487506 -2.17831861 4.2840266 0 0 Z " fill="#63CBE8" transform="translate(368,120)"/>
<path d="M0 0 C8.47152907 2.22934976 14.88838181 6.88838181 21 13 C16.05 13 11.1 13 6 13 C0 2.25 0 2.25 0 0 Z " fill="#63CBE8" transform="translate(362,27)"/>
<path d="M0 0 C-1.68942185 4.50512494 -3.82168139 8.7159734 -6 13 C-10.95 13 -15.9 13 -21 13 C-17.36752463 9.36752463 -15.14967709 7.24084939 -10.9375 4.8125 C-10.10089844 4.32394531 -9.26429688 3.83539062 -8.40234375 3.33203125 C-2.39296188 0 -2.39296188 0 0 0 Z " fill="#64CBE8" transform="translate(326,27)"/>
<path d="M0 0 C4.42679007 1.47559669 4.91432696 3.90057368 7 8 C7 8.66 7 9.32 7 10 C3.04 10 -0.92 10 -5 10 C-3.84414715 6.08788267 -2.64465038 3.1254959 0 0 Z " fill="#64CDEA" transform="translate(343,30)"/>
</svg>
